<?xml version="1.0" encoding="utf-8"?>
<!-- Generator: Adobe Illustrator 17.0.2, SVG Export Plug-In . SVG Version: 6.00 Build 0)  -->
<!DOCTYPE svg PUBLIC "-//W3C//DTD SVG 1.1//EN" "http://www.w3.org/Graphics/SVG/1.1/DTD/svg11.dtd">
<svg version="1.1" xmlns="http://www.w3.org/2000/svg" xmlns:xlink="http://www.w3.org/1999/xlink" x="0px" y="0px" width="900px"
	 height="525px" viewBox="0 0 900 525" enable-background="new 0 0 900 525" xml:space="preserve">
<g id="Layer_1">
	<g>
		<path fill="#FFFFFF" d="M329.341,341.945l-52.011,5.485c-0.737,0.076-1.141-0.079-1.228-0.195
			c-0.088-0.117-0.123-0.555,0.155-1.235l11.558-28.226c1.423-3.469,1.336-8.868-0.198-12.29l-11.217-25.027
			c-0.303-0.673-0.336-1.276-0.092-1.701s0.784-0.702,1.519-0.779l303.563-32.025c0.633-0.067,1.212-0.389,1.604-0.891
			c0.392-0.502,0.563-1.141,0.475-1.772c-4.35-30.974-19.432-59.808-42.467-81.19c-0.951-0.881-2.436-0.829-3.319,0.123
			c-0.883,0.951-0.828,2.437,0.123,3.319c21.65,20.096,36.024,47.004,40.651,75.996l-301.123,31.767
			c-2.241,0.236-4.099,1.37-5.099,3.111c-1,1.74-1.043,3.915-0.121,5.965l11.216,25.023c1.018,2.272,1.083,6.284,0.138,8.587
			L271.91,344.22c-0.886,2.16-0.727,4.287,0.434,5.835c1.015,1.353,2.67,2.093,4.621,2.093c0.28,0,0.568-0.014,0.859-0.046
			l52.01-5.485c1.29-0.136,2.225-1.292,2.089-2.583C331.786,342.744,330.641,341.823,329.341,341.945z"/>
		<path fill="#FFFFFF" d="M313.225,264.849c1.297,0,2.349-1.052,2.349-2.349c0-72.932,59.335-132.265,132.268-132.265
			c19.692,0,38.636,4.221,56.303,12.547c1.173,0.555,2.573,0.051,3.126-1.123c0.554-1.174,0.051-2.573-1.123-3.126
			c-18.299-8.625-37.916-12.997-58.306-12.997c-75.523,0-136.966,61.442-136.966,136.964
			C310.876,263.797,311.927,264.849,313.225,264.849z"/>
		<path fill="#FFFFFF" d="M616.635,281.628c-1.018-2.271-1.083-6.284-0.141-8.585l11.56-28.226c0.96-2.343,0.762-4.769-0.53-6.487
			c-0.859-1.143-2.105-1.737-3.309-1.618l-32.234,3.4c-1.29,0.136-2.225,1.293-2.089,2.583c0.136,1.29,1.27,2.212,2.583,2.089
			l31.428-3.316c0.078,0.319,0.097,0.85-0.196,1.567l-11.56,28.226c-1.42,3.469-1.332,8.865,0.201,12.287l11.22,25.031
			c0.302,0.67,0.335,1.272,0.091,1.696c-0.244,0.426-0.785,0.703-1.52,0.78l-282.312,29.792c-0.84,0.089-1.568,0.622-1.906,1.397
			c-0.338,0.775-0.234,1.672,0.274,2.348c26.147,34.871,66.113,54.871,109.646,54.871c49.256,0,94.951-26.653,119.255-69.557
			c0.639-1.129,0.243-2.562-0.886-3.202c-1.129-0.639-2.562-0.243-3.202,0.886c-23.471,41.434-67.601,67.174-115.167,67.174
			c-40.647,0-78.072-18.052-103.333-49.687l278.122-29.35c2.241-0.236,4.101-1.371,5.101-3.111c0.999-1.74,1.044-3.914,0.122-5.961
			L616.635,281.628z"/>
		<path fill="#FFFFFF" d="M560.606,264.276c0.136,1.29,1.291,2.229,2.582,2.091l3.559-0.374v34.727l-4.05,0.425
			c-1.29,0.136-2.225,1.291-2.091,2.582c0.126,1.207,1.146,2.104,2.334,2.104c0.082,0,0.165-0.005,0.248-0.013l21.721-2.282
			c6.759-0.894,6.759-5.884,6.759-7.525V265.16c0-1.403-0.592-2.755-1.667-3.806c-1.291-1.263-3.144-1.951-5.235-1.951
			c-0.137,0-0.276,0.002-0.41,0.015l-21.658,2.277C561.406,261.831,560.47,262.986,560.606,264.276z M584.741,264.101
			c0.007,0,0.016,0,0.024,0c0.844,0,1.55,0.222,1.951,0.613c0.187,0.183,0.253,0.355,0.253,0.447v30.851c0,1.673,0,2.513-2.614,2.86
			l-12.91,1.356v-34.728L584.741,264.101z"/>
		<path fill="#FFFFFF" d="M537.779,303.764c-1.29,0.136-2.225,1.292-2.091,2.582c0.126,1.206,1.146,2.104,2.334,2.104
			c0.082,0,0.165-0.005,0.248-0.013l12.656-1.329c1.29-0.136,2.225-1.292,2.091-2.582c-0.135-1.289-1.296-2.224-2.582-2.091
			l-3.732,0.392v-6.056c0-4.19-1.551-8.155-4.15-10.741c2.277-1.64,3.455-4.034,3.455-6.334v-10.089
			c0-2.219-0.926-3.524-1.702-4.227c-1.236-1.122-2.98-1.58-5.197-1.361l-21.007,2.233c-1.29,0.137-2.225,1.294-2.088,2.584
			c0.138,1.29,1.305,2.225,2.584,2.088l3.766-0.4v34.862l-4.259,0.448c-1.29,0.136-2.227,1.292-2.091,2.582
			c0.127,1.207,1.146,2.104,2.334,2.104c0.082,0,0.165-0.005,0.248-0.013l12.789-1.344c1.29-0.136,2.227-1.291,2.091-2.582
			c-0.136-1.29-1.285-2.224-2.582-2.091l-3.831,0.403V289.06l9.596-1.019c0.679-0.057,1.565,0.355,2.389,1.108
			c1.852,1.696,2.957,4.545,2.957,7.622v6.549L537.779,303.764z M527.061,270.024l12.524-1.332c0.985-0.098,1.453,0.067,1.563,0.167
			c0.077,0.07,0.159,0.333,0.159,0.747v10.089c0,1.644-1.725,3.429-5.023,3.661c-0.011,0.001-0.021,0.005-0.032,0.006
			c-0.017,0.001-0.034,0-0.051,0.001l-9.141,0.97V270.024z"/>
		<path fill="#FFFFFF" d="M494.037,308.362c-1.29,0.136-2.225,1.291-2.091,2.582c0.126,1.206,1.146,2.104,2.334,2.104
			c0.082,0,0.164-0.005,0.248-0.013l12.917-1.355c1.29-0.136,2.225-1.291,2.091-2.582c-0.135-1.289-1.269-2.221-2.582-2.091
			l-3.856,0.405L493.48,270.7c-0.295-1.122-1.343-1.861-2.519-1.74l-4.121,0.435c-0.97,0.102-1.775,0.794-2.024,1.738
			l-10.357,39.289l-4.029,0.424c-1.29,0.136-2.227,1.292-2.091,2.582c0.128,1.207,1.146,2.104,2.334,2.104
			c0.082,0,0.165-0.005,0.248-0.013l12.919-1.359c1.29-0.136,2.227-1.292,2.091-2.582c-0.137-1.29-1.284-2.217-2.582-2.091
			l-3.894,0.41l2.844-10.79l13.485-1.071l2.587,9.873L494.037,308.362z M483.568,294.293l5.377-20.397l0.502-0.053l5.129,19.576
			L483.568,294.293z"/>
		<path fill="#FFFFFF" d="M407.398,319.83c0.126,1.206,1.146,2.104,2.334,2.104c0.082,0,0.164-0.005,0.248-0.013l12.214-1.282
			c1.29-0.136,2.225-1.292,2.091-2.582c-0.135-1.289-1.278-2.217-2.582-2.091l-4.092,0.429l-9.277-16.858l8.701-18.103l4.57-0.482
			c1.289-0.136,2.225-1.293,2.089-2.583c-0.136-1.289-1.27-2.214-2.583-2.089l-11.624,1.225c-1.289,0.136-2.225,1.293-2.089,2.583
			c0.128,1.206,1.147,2.103,2.334,2.103c0.082,0,0.165-0.005,0.249-0.013l1.564-0.165l-5.993,12.469l-6.159-11.191l2.531-0.266
			c1.289-0.135,2.225-1.291,2.091-2.582c-0.135-1.289-1.269-2.23-2.582-2.091l-6.025,0.632c-0.015,0.001-0.03,0.003-0.046,0.005
			l-5.694,0.597c-1.289,0.135-2.225,1.291-2.091,2.582c0.126,1.206,1.146,2.104,2.334,2.104c0.082,0,0.164-0.005,0.248-0.013
			l4.162-0.437l8.729,15.861l-9.235,19.213l-4.147,0.435c-1.289,0.135-2.225,1.292-2.091,2.582c0.126,1.206,1.146,2.104,2.334,2.104
			c0.082,0,0.164-0.005,0.248-0.013l11.764-1.234c1.289-0.135,2.225-1.292,2.091-2.582c-0.135-1.289-1.269-2.22-2.582-2.091
			l-2.128,0.223l6.528-13.582l6.708,12.188l-3.052,0.32C408.199,317.384,407.264,318.539,407.398,319.83z"/>
		<path fill="#FFFFFF" d="M338.842,329.399l12.771-1.343c1.29-0.136,2.227-1.291,2.091-2.582c-0.137-1.29-1.3-2.222-2.582-2.091
			l-3.791,0.399V288.76l4.283-0.452c1.289-0.136,2.225-1.293,2.089-2.583c-0.136-1.289-1.273-2.219-2.583-2.089l-8.691,0.916
			c-0.859,0.09-1.6,0.646-1.927,1.446l-10.432,25.477l-10.33-22.918c-0.417-0.924-1.371-1.473-2.387-1.371l-8.604,0.904
			c-1.29,0.136-2.227,1.291-2.091,2.582c0.135,1.29,1.285,2.219,2.582,2.091l3.749-0.394v35.025l-4.24,0.445
			c-1.29,0.136-2.225,1.292-2.091,2.582c0.126,1.206,1.146,2.104,2.334,2.104c0.082,0,0.165-0.005,0.248-0.013l12.693-1.332
			c1.29-0.136,2.225-1.291,2.091-2.582c-0.135-1.289-1.292-2.224-2.582-2.091l-3.754,0.394v-31.465l10.345,22.952
			c0.38,0.844,1.218,1.384,2.141,1.384c0.013,0,0.028-0.001,0.041-0.001c0.939-0.016,1.778-0.59,2.133-1.458l10.285-25.116v31.082
			l-4.281,0.45c-1.29,0.136-2.227,1.291-2.091,2.582c0.128,1.207,1.146,2.104,2.334,2.104
			C338.676,329.412,338.759,329.408,338.842,329.399z"/>
		<path fill="#FFFFFF" d="M457.776,286.354c1.297,0,2.349-1.052,2.349-2.349v-9.216c0-0.666-0.283-1.3-0.777-1.745
			c-0.495-0.447-1.161-0.659-1.817-0.591l-15.704,1.654c-4.428,0.413-6,4.102-6,7.136V312.5c0,2.153,0.577,3.718,1.76,4.784
			c0.956,0.859,2.214,1.292,3.749,1.292c0.307,0,0.625-0.017,0.954-0.052l15.767-1.655c1.195-0.125,2.104-1.134,2.104-2.336v-8.93
			c0-1.298-1.052-2.349-2.349-2.349c-1.297,0-2.349,1.052-2.349,2.349v6.816l-13.664,1.434c-0.805,0.082-1.062-0.058-1.065-0.058
			c-0.005-0.006-0.207-0.276-0.207-1.295v-31.258c0-2.296,1.263-2.414,1.764-2.461l13.137-1.383v6.606
			C455.427,285.302,456.479,286.354,457.776,286.354z"/>
		<path fill="#FFFFFF" d="M377.771,285.558c1.29-0.136,2.227-1.291,2.091-2.582s-1.297-2.223-2.582-2.091l-12.644,1.329
			c-1.29,0.136-2.227,1.291-2.091,2.582c0.126,1.207,1.146,2.104,2.334,2.104c0.082,0,0.165-0.005,0.248-0.013l3.748-0.394v35.024
			l-4.239,0.446c-1.29,0.136-2.227,1.291-2.091,2.582c0.126,1.207,1.146,2.104,2.334,2.104c0.082,0,0.165-0.005,0.248-0.013
			l12.644-1.329c1.29-0.136,2.227-1.292,2.091-2.582s-1.297-2.217-2.582-2.091l-3.706,0.39v-35.024L377.771,285.558z"/>
		<path fill="#FFFFFF" d="M456.496,369.493c-0.968,0.106-1.666,0.976-1.56,1.943c0.099,0.903,0.862,1.571,1.749,1.571
			c0.064,0,0.129-0.004,0.194-0.011l9.186-1.005c0.968-0.106,1.666-0.976,1.56-1.943c-0.106-0.968-0.972-1.677-1.943-1.56
			l-2.639,0.289v-15.034c0-1.157-0.503-2.283-1.38-3.091c-0.678-0.626-1.873-1.333-3.821-1.176l-2.07,0.214
			c-3.279,0.341-5.893,1.012-7.446,2.674c-1.675-1.209-4.196-1.243-7.449-0.904l-9.922,1.139c-0.966,0.111-1.66,0.984-1.549,1.951
			c0.111,0.966,0.988,1.666,1.951,1.549l2.629-0.302v16.157l-3.021,0.329c-0.967,0.106-1.666,0.975-1.56,1.943
			c0.099,0.901,0.862,1.571,1.749,1.571c0.064,0,0.129-0.004,0.194-0.011l9.185-1.001c0.966-0.106,1.666-0.975,1.56-1.943
			c-0.106-0.966-0.967-1.672-1.943-1.56l-2.639,0.288v-16.177l3.75-0.43c2.807-0.292,4.509-0.185,5.068,0.309
			c0.219,0.194,0.35,0.613,0.4,1.225v14.065l-1.839,0.202c-0.967,0.106-1.665,0.976-1.559,1.944
			c0.099,0.901,0.862,1.569,1.749,1.569c0.065,0,0.13-0.004,0.195-0.011l6.952-0.764c0.967-0.106,1.665-0.976,1.559-1.944
			s-0.997-1.666-1.944-1.559l-1.589,0.175v-13.033c0.009-0.069,0.023-0.136,0.024-0.208c0.032-1.944,0.332-3.166,5.86-3.74
			l2.034-0.211c0.343-0.03,0.817-0.007,1.107,0.26c0.193,0.177,0.243,0.396,0.243,0.498v15.419L456.496,369.493z"/>
		<path fill="#FFFFFF" d="M486.378,347.472c-0.799-0.717-1.882-1.04-3.063-0.92l-9.177,1.006c-1.501,0.159-3.02,1.574-3.02,3.973
			v15.327c0,1.415,0.397,2.494,1.178,3.206c0.424,0.385,1.139,0.817,2.24,0.817c0.132,0,0.271-0.006,0.414-0.019l9.184-1.005
			c3.359-0.371,3.359-3.897,3.359-6.472c0-0.973-0.79-1.762-1.762-1.762c-0.972,0-1.762,0.79-1.762,1.762
			c0,1.601-0.078,2.599-0.235,2.97l-9.058,0.982c-0.018-0.106-0.035-0.262-0.035-0.48v-5.902l11.294-1.317
			c0.887-0.104,1.557-0.856,1.557-1.75v-7.77c0-0.048-0.01-0.094-0.014-0.141c0.004-0.047,0.014-0.093,0.014-0.141
			C487.493,348.985,487.076,348.1,486.378,347.472z M483.969,356.322l-9.328,1.088v-5.878c0-0.248,0.043-0.407,0.081-0.492
			l8.971-0.983c0.145-0.016,0.233,0,0.281,0.015c0,0.017-0.005,0.032-0.005,0.049V356.322z"/>
		<path fill="#FFFFFF" d="M421.019,375.04c0,1.112,0.899,2.006,2.008,2.006c1.11,0,2.01-0.895,2.01-2.006
			c0-1.109-0.899-2.007-2.01-2.007C421.919,373.033,421.019,373.931,421.019,375.04z"/>
		<path fill="#FFFFFF" d="M400.891,158.768v83.568c0,0.666,0.283,1.3,0.778,1.745c0.433,0.39,0.994,0.604,1.572,0.604
			c0.081,0,0.162-0.005,0.244-0.013l107.736-11.277c0.043-0.005,0.083-0.018,0.126-0.025c0.067-0.011,0.132-0.023,0.198-0.039
			c0.084-0.021,0.166-0.049,0.247-0.079c0.062-0.023,0.123-0.044,0.182-0.072c0.085-0.04,0.164-0.088,0.243-0.138
			c0.05-0.031,0.102-0.058,0.15-0.094c0.109-0.08,0.21-0.171,0.304-0.27c0.013-0.013,0.028-0.022,0.041-0.036l19.292-21.115
			c0.146-0.16,0.26-0.343,0.356-0.535c0.019-0.037,0.038-0.072,0.055-0.11c0.082-0.186,0.14-0.381,0.171-0.583
			c0.006-0.037,0.006-0.074,0.01-0.112c0.009-0.082,0.023-0.162,0.023-0.245v-64.48c0-0.666-0.283-1.3-0.777-1.745
			c-0.494-0.444-1.146-0.661-1.816-0.591l-127.03,13.306C401.799,156.557,400.891,157.565,400.891,158.768z M527.92,207.834
			l-17.194,1.855c-1.193,0.129-2.098,1.135-2.098,2.335v16.918l-103.039,10.786v-78.844l122.331-12.813V207.834z M513.327,225.002
			v-10.87l11.019-1.189L513.327,225.002z"/>
		<path fill="#FFFFFF" d="M412.884,214.817c0.077,0,0.154-0.004,0.231-0.012l107.74-11.277c1.129-0.118,1.986-1.07,1.986-2.205
			v-44.751c0-0.628-0.266-1.226-0.733-1.648c-0.467-0.42-1.093-0.625-1.715-0.557l-107.74,11.281
			c-1.129,0.118-1.986,1.07-1.986,2.205V212.6c0,0.628,0.266,1.226,0.733,1.648C411.809,214.616,412.339,214.817,412.884,214.817z
			 M415.101,210.139v-27.31l103.306-10.818v27.315L415.101,210.139z M518.407,159.033v8.52L415.101,178.37v-8.521L518.407,159.033z"
			/>
		<path fill="#FFFFFF" d="M442.432,183.909c-4.921,0.515-8.926,4.943-8.926,9.871c0,4.747,3.701,8.466,8.426,8.466
			c0.317,0,0.637-0.017,0.963-0.051c4.92-0.519,8.923-4.949,8.923-9.874C451.818,187.256,447.61,183.363,442.432,183.909z
			 M442.432,197.785c-2.524,0.27-4.492-1.503-4.492-4.005c0-2.679,2.269-5.179,4.954-5.461c0.17-0.018,0.337-0.026,0.502-0.026
			c2.311,0,3.989,1.695,3.989,4.028C447.384,195,445.116,197.502,442.432,197.785z"/>
		<path fill="#FFFFFF" d="M490.744,178.876c-4.92,0.515-8.922,4.942-8.922,9.868c0,4.748,3.697,8.467,8.418,8.467
			c0.318,0,0.642-0.017,0.968-0.052c5.004-0.528,8.923-4.864,8.923-9.872C500.13,182.223,495.922,178.312,490.744,178.876z
			 M490.743,192.75c-2.547,0.276-4.487-1.503-4.487-4.005c0-2.678,2.266-5.178,4.951-5.458c0.171-0.018,0.339-0.027,0.504-0.027
			c2.31,0,3.985,1.693,3.985,4.028C495.697,189.964,493.428,192.467,490.743,192.75z"/>
		<path fill="#FFFFFF" d="M392.186,230.53l-17.893,1.923c-1.289,0.138-2.223,1.296-2.083,2.586c0.129,1.204,1.147,2.098,2.333,2.098
			c0.083,0,0.169-0.005,0.254-0.015l17.893-1.923c1.289-0.138,2.223-1.296,2.083-2.587
			C394.636,231.325,393.503,230.384,392.186,230.53z"/>
		<path fill="#FFFFFF" d="M372.77,202.364c0.083,0,0.167-0.005,0.253-0.014l21.433-2.299c1.29-0.137,2.223-1.295,2.085-2.585
			c-0.137-1.288-1.273-2.233-2.585-2.085l-21.433,2.299c-1.29,0.137-2.223,1.295-2.084,2.585
			C370.567,201.469,371.585,202.364,372.77,202.364z"/>
		<path fill="#FFFFFF" d="M395.854,220.639c-0.137-1.29-1.303-2.205-2.585-2.087l-25.362,2.708c-1.29,0.138-2.224,1.295-2.087,2.585
			c0.129,1.206,1.148,2.1,2.334,2.1c0.083,0,0.167-0.005,0.251-0.013l25.362-2.708C395.057,223.085,395.991,221.929,395.854,220.639
			z"/>
		<path fill="#FFFFFF" d="M396.542,209.035c-0.138-1.289-1.279-2.222-2.584-2.088l-44.141,4.684
			c-1.29,0.137-2.224,1.294-2.088,2.584c0.129,1.206,1.147,2.102,2.334,2.102c0.082,0,0.166-0.005,0.25-0.013l44.141-4.684
			C395.744,211.482,396.678,210.325,396.542,209.035z"/>
		<path fill="#FFFFFF" d="M396.542,186.192c-0.138-1.29-1.279-2.213-2.584-2.088l-41.026,4.356c-1.29,0.137-2.224,1.294-2.088,2.584
			c0.129,1.206,1.147,2.102,2.334,2.102c0.082,0,0.166-0.005,0.25-0.013l41.026-4.356
			C395.744,188.639,396.678,187.483,396.542,186.192z"/>
		<path fill="#FFFFFF" d="M396.542,175.244c-0.137-1.29-1.293-2.221-2.585-2.087l-26.741,2.854c-1.29,0.138-2.224,1.295-2.087,2.585
			c0.129,1.206,1.148,2.1,2.334,2.1c0.083,0,0.167-0.005,0.252-0.013l26.741-2.854C395.745,177.69,396.679,176.534,396.542,175.244z
			"/>
	</g>
</g>
<g id="Layer_2">
</g>
</svg>
