<?xml version="1.0" encoding="utf-8"?>
<!-- Generator: Adobe Illustrator 17.0.2, SVG Export Plug-In . SVG Version: 6.00 Build 0)  -->
<!DOCTYPE svg PUBLIC "-//W3C//DTD SVG 1.1//EN" "http://www.w3.org/Graphics/SVG/1.1/DTD/svg11.dtd">
<svg version="1.1" id="Layer_1" xmlns="http://www.w3.org/2000/svg" xmlns:xlink="http://www.w3.org/1999/xlink" x="0px" y="0px"
	 width="900px" height="525px" viewBox="0 0 900 525" enable-background="new 0 0 900 525" xml:space="preserve">
<g id="Layer_1_1_">
	<g>
		<path d="M370.298,230.465l-1.929,2.159l3.805,3.398l1.734-1.942c1.257-1.407,2.607-3.158,0.783-4.787
			C373.027,227.807,371.448,229.176,370.298,230.465z"/>
		<path d="M462.561,317.694c-2.47,0-5.676,1.686-5.676,6.887c0,3.514,1.71,8.074,6.388,8.074c2.85,0,5.558-2.136,5.558-6.815
			C468.831,321.919,467.096,317.694,462.561,317.694z"/>
		<path d="M506.513,317.694c-2.471,0-5.676,1.686-5.676,6.887c0,3.514,1.709,8.074,6.387,8.074c2.85,0,5.558-2.136,5.558-6.815
			C512.782,321.919,511.049,317.694,506.513,317.694z"/>
		<path d="M516.438,200.677l-2.748-1.337l-5.588,11.47l2.246,1.094c3.775,1.84,7.65,1.717,9.653-2.393
			C522.003,205.399,520.119,202.472,516.438,200.677z"/>
		<polygon points="401.385,215.402 406.403,212.398 399.985,207.317 		"/>
		<path d="M491.731,191.622c-3.779-0.877-6.961,1.44-7.807,5.089c-0.907,3.907,0.932,7.388,4.71,8.266
			c3.803,0.883,6.986-1.435,7.892-5.342C497.373,195.985,495.535,192.504,491.731,191.622z"/>
		<path d="M467.157,248.525c-0.142-0.32-0.275-0.727-0.542-0.908c-1.206-0.809-2.144-2.037-3.706-2.306
			c-0.464-0.078-0.919-0.348-1.366-0.331c-0.945,0.027-1.885,0.265-2.824,0.277c-1.61,0.015-3.224-0.163-4.832-0.123
			c-1.865,0.045-3.729,0.177-5.584,0.406c-0.553,0.068-1.299,0.47-1.52,0.922c-0.362,0.734-0.469,1.638-0.489,2.477
			c-0.034,1.215,0.13,2.434,0.161,3.65c0.029,0.988-0.044,1.979,0,2.966c0.016,0.34,0.204,0.943,0.371,0.963
			c0.866,0.098,1.755,0.065,2.632,0.046c1.18-0.022,2.358-0.091,3.539-0.111c0.819-0.015,1.638-0.003,2.454,0.045
			c0.641,0.044,1.276,0.241,1.913,0.23c0.668-0.014,1.327-0.225,2.002-0.287c0.402-0.031,0.824,0.104,1.233,0.078
			c0.879-0.046,1.756-0.146,2.761-0.232c1.179-0.006,3.45-1.844,3.796-3.177c0.149-0.564,0.342-1.126,0.441-1.694
			c0.088-0.484,0.141-0.997,0.065-1.472C467.588,249.458,467.358,248.988,467.157,248.525z M461.707,251.052
			c-0.46,0.192-0.983,0.252-1.466,0.387c-0.351,0.095-0.78,0.141-1.017,0.363c-0.233,0.229-0.348,0.647-0.382,0.993
			c-0.06,0.569,0.016,0.105-0.017,0.678c-0.05,0.764-0.599,0.691-1.17,0.679c-0.747-0.017-1.5,0.1-2.251,0.128
			c-0.448,0.017-0.905,0.014-1.348-0.043c-0.271-0.028-0.546-0.145-0.774-0.287c-0.106-0.069-0.319-0.2-0.274-0.593
			c0.086-0.803-0.209-1.411-0.925-1.745c-0.879-0.406-1.795-0.741-2.712-1.079c-0.882-0.318-0.318-0.801-0.097-1.147
			c0.108-0.174,0.524-0.265,0.775-0.226c1.095,0.165,2.172,0.451,3.268,0.571c1.18,0.133,2.371,0.112,3.557,0.19
			c0.437,0.027,0.868,0.144,1.307,0.181c0.162,0.014,0.328-0.132,0.498-0.142c0.387-0.029,0.78-0.009,1.169-0.03
			c0.107-0.008,0.209-0.108,0.315-0.125c0.171-0.028,0.346-0.015,0.523-0.03c0.476-0.032,0.952-0.107,1.43-0.092
			c0.215,0.006,0.426,0.188,0.641,0.295c0.021,0.112,0.046,0.226,0.066,0.341C462.454,250.567,462.108,250.88,461.707,251.052z"/>
		<path d="M463.308,125.07L265.432,262.501L463.305,399.93l197.876-137.429L463.308,125.07z M456.578,185.714l3.35,0.053
			l-0.119,7.496l8.798,0.136l0.118-7.493l3.347,0.052l-0.296,18.815l-3.348-0.051l0.131-8.292l-8.797-0.138l-0.131,8.291
			l-3.349-0.051L456.578,185.714z M370.193,257.344l-3.488,5.81l-16.129-9.686l3.776-6.287c1.463-2.438,4.084-4.273,7.023-2.508
			c1.822,1.094,2.347,2.958,1.849,4.922l0.045,0.029c1.446-1.891,3.915-2.393,5.989-1.147
			C372.767,250.581,372.026,254.292,370.193,257.344z M384.793,238.171l-8.85-2.059l-1.628,1.824l5.946,5.309l-2.23,2.497
			l-14.035-12.531l4.355-4.876c2.407-2.696,5.544-4.456,8.696-1.64c2.021,1.805,2.464,4.303,0.903,6.649l9.532,1.814
			L384.793,238.171z M392.402,231.013l-12.077-14.429l2.569-2.149l12.076,14.429L392.402,231.013z M402.63,223.02l-3.216,1.925
			l-2.64-20.353l2.485-1.487l16.624,11.985l-3.286,1.966l-3.717-2.796l-7.002,4.193L402.63,223.02z M416.045,264.611
			c0.03-0.06,0.092-0.1,0.149-0.129c0.289-0.137,0.508-0.338,0.716-0.579c0.09-0.111,0.321-0.105,0.503-0.153
			c0.181,0.139,0.471,0.093,0.569,0.378c0.038,0.118,0.207,0.185,0.303,0.283c0.12,0.131,0.226,0.271,0.345,0.41
			c0.024,0.024,0.067,0.07,0.096,0.067c0.226-0.035,0.288,0.154,0.411,0.28c0.154,0.161,0.354,0.284,0.528,0.436
			c0.065,0.051,0.109,0.134,0.164,0.194c0.086,0.099,0.152,0.236,0.257,0.283c0.31,0.124,0.404,0.434,0.608,0.647
			c0.025,0.028,0.019,0.091,0.001,0.136c-0.096,0.288-0.255,0.527-0.517,0.708c-0.218,0.147-0.428,0.314-0.61,0.499
			c-0.139,0.136-0.228,0.322-0.336,0.477c-0.028,0.045-0.051,0.093-0.089,0.116c-0.382,0.185-0.614,0.53-0.924,0.795
			c-0.055,0.046-0.108,0.109-0.139,0.175c-0.163,0.319-0.336,0.405-0.68,0.331c-0.093-0.02-0.19-0.041-0.284-0.032
			c-0.22,0.026-0.431-0.071-0.527-0.265c-0.164-0.328-0.437-0.534-0.735-0.747c-0.396-0.283-0.791-0.599-1.017-1.057
			c-0.044-0.096-0.144-0.175-0.239-0.232c-0.175-0.099-0.279-0.228-0.308-0.425c-0.017-0.103-0.037-0.21-0.092-0.291
			c-0.113-0.163-0.043-0.299,0.025-0.445c0.171-0.368,0.403-0.696,0.744-0.94c0.225-0.164,0.482-0.312,0.641-0.528
			C415.733,264.831,415.953,264.799,416.045,264.611z M420.403,325.553c-1.046,0.499-2.304,0.713-3.279,0.713
			c-0.164-0.07-0.164-0.427-0.023-0.475c2.565-0.475,3.491-1.924,3.491-3.988c0-2.305-1.354-3.8-3.824-3.8
			c-1.258,0-1.281,0.095-1.281,0.854v10.593c0,2.493,0.046,2.802,1.568,2.969l0.64,0.071c0.142,0.119,0.096,0.523-0.047,0.594
			c-1.354-0.047-2.138-0.072-3.088-0.072c-0.996,0-1.852,0.024-2.897,0.072c-0.141-0.072-0.19-0.451-0.047-0.594l0.498-0.071
			c1.378-0.191,1.426-0.476,1.426-2.969v-8.763c0-2.018-0.048-2.423-1.117-2.541l-0.855-0.094c-0.166-0.143-0.142-0.499,0.047-0.595
			c1.259-0.165,2.731-0.19,4.702-0.19s3.443,0.261,4.56,0.95c1.093,0.688,1.901,1.923,1.901,3.563
			C422.778,323.965,421.423,325.055,420.403,325.553z M420.877,212.922l-5.968-17.846l4.21-1.409l13.081,10.368l0.034,0.017
			l0.017-0.033l-4.434-13.261l3.176-1.061l5.968,17.846l-4.034,1.35l-13.401-10.736l-0.05,0.015l4.578,13.689L420.877,212.922z
			 M447.616,333.083c-1.14-0.047-1.947-0.072-2.874-0.072c-0.974,0-1.828,0.024-2.873,0.072c-0.142-0.072-0.19-0.451-0.048-0.594
			l0.451-0.071c1.45-0.24,1.45-0.476,1.45-2.969V326.1c0-0.713-0.048-0.761-1.187-0.761h-6.792c-1.141,0-1.187,0.048-1.187,0.761
			v3.349c0,2.493,0.117,2.826,1.448,2.969l0.688,0.071c0.143,0.095,0.097,0.523-0.046,0.594c-1.283-0.047-2.09-0.072-3.017-0.072
			c-1.02,0-1.828,0.048-2.754,0.072c-0.143-0.072-0.191-0.451-0.048-0.594l0.404-0.071c1.33-0.24,1.379-0.476,1.379-2.969V320.9
			c0-2.494-0.168-2.897-1.401-2.992l-0.618-0.048c-0.142-0.094-0.095-0.522,0.048-0.593c1.164,0.024,1.972,0.072,2.992,0.072
			c0.927,0,1.733-0.024,2.754-0.072c0.143,0.072,0.192,0.499,0.048,0.593l-0.452,0.048c-1.377,0.143-1.424,0.498-1.424,2.992v2.731
			c0,0.736,0.047,0.76,1.187,0.76h6.792c1.139,0,1.187-0.024,1.187-0.76V320.9c0-2.494-0.048-2.849-1.45-2.992l-0.451-0.048
			c-0.142-0.094-0.095-0.522,0.048-0.593c1.093,0.047,1.9,0.072,2.873,0.072c0.927,0,1.734-0.024,2.803-0.072
			c0.142,0.072,0.19,0.499,0.048,0.593l-0.498,0.048c-1.377,0.143-1.425,0.498-1.425,2.992v8.549c0,2.493,0.048,2.802,1.425,2.969
			l0.57,0.071C447.806,332.584,447.758,333.012,447.616,333.083z M452.616,291.118c-0.352,0.016-0.7,0.146-1.056,0.17
			c-0.535,0.049-1.078,0.058-1.62,0.073c-0.044,0.003-0.084-0.033-0.128-0.034c-0.254-0.029-0.725-0.051-0.725-0.077
			c0-0.684,0.012-1.316,0.922-1.573c0.802-0.228,1.605-0.589,2.29-1.063c0.314-0.225,0.342-0.847,0.498-1.273
			c0-1.61,0.035-3.196-0.011-4.782c-0.054-1.865-0.244-3.731-0.233-5.593c0.006-1.475,0.274-2.945,0.341-4.418
			c0.051-1.172-0.085-2.351-0.035-3.52c0.059-1.332,0.269-2.653,0.348-3.98c0.049-0.919,0.021-0.799-0.05-1.712
			c-0.044-0.628-0.221-1.241-0.339-1.86c-0.006-0.04-0.006-0.082-0.009-0.123c0.025,0,0.051-0.006,0.063,0.008
			c0.333,0.239,0.804-0.341,0.821-0.341c0.117,0.013,0.247-0.017,0.357,0.016c0.292,0.089,0.572,0.208,0.865,0.3
			c0.051,0.016,0.135-0.057,0.205-0.065c1.104-0.013,2.213-0.027,3.324-0.038c0.036,0,0.103,0.028,0.103,0.051
			c0.016,0.142-0.005,0.293,0.025,0.431c0.063,0.293,0.167,0.577,0.229,0.87c0.046,0.212,0.077,0.433,0.073,0.647
			c-0.01,0.534-0.044,0.017-0.076,0.545c-0.011,0.095-0.101,0.18-0.107,0.274c-0.02,0.316-0.012,0.631-0.033,0.947
			c-0.033,0.365-0.133,0.736-0.111,1.096c0.023,0.328,0.217,0.638,0.258,0.963c0.05,0.425,0.035,0.861,0.019,1.286
			c-0.004,0.117-0.159,0.228-0.166,0.342c-0.005,0.137,0.039,0.306,0.125,0.411c0.073,0.079,0.255,0.148,0.358,0.12
			c0.627-0.18,1.231-0.465,1.863-0.562c1.199-0.175,2.409-0.271,3.617-0.351c0.477-0.031,0.967,0.029,1.44,0.114
			c1.174,0.216,2.25,0.659,3.157,1.444c0.018,0.008,0.051,0.022,0.045,0.034c-0.093,0.347-0.235,0.696-0.271,1.045
			c-0.074,0.672-0.611,1.185-1.283,1.031c-0.796-0.182-1.648-0.344-2.337-0.741c-1.05-0.606-2.037-0.439-3.075-0.139
			c-1.072,0.311-2.168,0.564-3.208,0.964c-0.265,0.102-0.497,0.629-0.521,0.975c-0.085,1.263-0.089,2.533-0.105,3.801
			c-0.016,1.208-0.037,2.418,0.006,3.625c0.036,1.117,0.179,2.228,0.224,3.346c0.033,0.761-0.083,1.532,0.006,2.285
			c0.075,0.676,0.348,1.329,0.509,1.995c0.278,1.171,1.375,1.02,2.192,1.316c0.489,0.183,1.094,0.211,1.462,0.521
			c0.213,0.171,0.167,0.813,0.03,1.156c-0.077,0.189-0.602,0.234-0.931,0.277c-0.251,0.024-0.514-0.037-0.771-0.088
			c-0.491-0.089-0.978-0.24-1.476-0.289c-0.534-0.048-1.119,0.118-1.6-0.045c-1.453-0.479-2.8,0.103-4.187,0.251
			C453.499,291.227,453.054,291.105,452.616,291.118z M462.964,333.391c-5.271,0-8.455-3.776-8.455-8.052
			c0-4.749,3.562-8.383,8.455-8.383c5.485,0,8.241,3.968,8.241,8.146C471.205,329.9,467.547,333.391,462.964,333.391z
			 M474.085,276.964c-0.437,0.561-0.806,1.187-1.31,1.686c-0.78,0.775-1.62,1.51-2.496,2.184c-0.58,0.446-1.247,0.83-1.932,1.09
			c-0.493,0.189-1.082,0.097-1.624,0.183c-0.764,0.108-1.515,0.299-2.277,0.396c-0.736,0.097-1.473,0.134-2.216,0.165
			c-0.536,0.021-0.782,0.103-1.274-0.054c-0.329-0.104-0.22-0.532-0.387-0.879c-0.045-0.1-0.062-0.529,0.172-0.606
			c0.657-0.217,1.073-0.226,1.683-0.527c1.311-0.646,2.603-1.363,3.83-2.162c0.923-0.598,1.844-1.268,2.57-2.075
			c1.008-1.132,1.76-2.466,1.905-4.025c0.122-1.257,0.257-2.525,0.221-3.785c-0.026-0.673-0.412-1.33-0.623-2
			c-0.146-0.489-0.179-1.038-0.43-1.472c-0.338-0.603-0.832-1.129-1.256-1.688c-0.561-0.748-1.043-1.572-1.699-2.228
			c-0.44-0.448-1.143-0.636-1.685-1.009c-1.281-0.879-2.784-0.596-4.189-0.802c-0.828-0.122-1.673-0.148-2.505-0.242
			c-0.558-0.057-1.112-0.187-1.672-0.238c-0.256-0.02-0.525,0.127-0.791,0.127c-2.097-0.01-4.202-0.04-6.301-0.042
			c-0.945,0-1.894,0-2.828,0.121c-0.168,0.021-0.316,0.605-0.386,0.948c-0.115,0.63-0.217,1.275-0.236,1.915
			c-0.02,0.705,0.084,1.415,0.089,2.123c0,0.605-0.099,1.21-0.102,1.811c0,0.497,0.124,0.996,0.109,1.487
			c-0.037,1.744-0.115,3.485-0.166,5.228c-0.026,0.828-0.043,1.66-0.046,2.485c0,0.809,0.034,1.62,0.025,2.429
			c-0.002,0.656,0.946,1.786,1.78,2.035c1.141,0.344,1.61,0.634,2.726,1.033c0.168,0.058,0.187,0.579,0.212,0.89
			c0.01,0.144-0.132,0.297-0.212,0.447c-0.083,0.161-0.178,0.32-0.269,0.48c-0.153-0.082-0.299-0.217-0.461-0.236
			c-0.309-0.029-0.633,0.015-0.95,0c-0.927-0.038-1.166-0.123-2.097-0.135c-1.981-0.025-3.964-0.037-5.95-0.019
			c-0.563,0.008-1.127,0.19-1.689,0.185c-0.838-0.003-1.713-0.274-2.499-0.1c-0.649,0.144-1.221,0.73-1.772,1.19
			c-0.474,0.396-0.847,0.914-1.309,1.328c-0.16,0.14-0.46,0.171-0.693,0.171c-0.336,0-0.681-0.031-1.009-0.117
			c-0.858-0.232-0.766-1.009-0.633-1.537c0.125-0.499,0.575-1.005,1.017-1.321c0.985-0.684,2.173-0.79,3.345-0.949
			c1.339-0.181,2.775-0.211,3.809-1.234c0.311-0.31,0.452-0.873,0.512-1.338c0.113-1.016,0.146-2.034,0.17-3.056
			c0.017-0.692-0.058-1.382-0.069-2.072c-0.014-1.14-0.014-2.276-0.021-3.41c-0.003-0.853-0.016-1.709,0-2.563
			c0.013-0.715,0.069-1.428,0.09-2.143c0.014-0.605-0.026-1.206,0.007-1.804c0.046-0.812,0.181-1.62,0.198-2.429
			c0.016-0.588-0.13-1.18-0.166-1.773c-0.014-0.239,0.067-0.485,0.112-0.73c0.01-0.051,0.073-0.1,0.073-0.156
			c0.026-0.528,0.073-1.062,0.062-1.593c-0.019-0.57-0.119-1.14-0.125-1.711c0-0.497,0.104-0.992,0.122-1.491
			c0.025-0.918,0.12-1.857,0.003-2.767c-0.149-1.165-0.247-2.436-0.802-3.421c-0.498-0.88-1.331-1.734-2.706-1.687
			c-0.987,0.034-1.984-0.322-2.98-0.471c-0.3-0.043-0.619,0.068-0.922,0.033c-0.424-0.044-0.846-0.131-1.253-0.25
			c-0.519-0.154-1.039-0.322-1.53-0.547c-0.913-0.411-1.43-1.072-1.393-2.128c0.043-1.16,1.926-2.421,3.002-1.96
			c0.618,0.264,1,1.62,0.783,2.376c-0.052,0.192,0.307,0.656,0.566,0.739c0.523,0.175,1.105,0.199,1.671,0.233
			c0.268,0.021,0.55-0.085,0.827-0.091c0.5-0.013,0.999,0.009,1.498,0.003c0.368,0,0.738-0.009,1.106-0.034
			c0.971-0.072,1.937-0.134,2.904-0.244c0.614-0.068,1.218-0.276,1.83-0.31c1.657-0.097,3.309-0.166,4.967-0.186
			c1.151-0.014,2.299,0.089,3.447,0.104c1.337,0.021,2.67-0.007,4.003,0.013c1.122,0.011,2.249,0.069,3.369,0.094
			c0.187,0,0.38-0.094,0.565-0.131c0.132-0.026,0.27-0.036,0.401-0.043c0.035-0.005,0.07,0.046,0.108,0.054
			c0.277,0.031,0.547,0.076,0.823,0.089c0.494,0.025,0.99,0.026,1.489,0.042c0.796,0.023,1.6,0.023,2.393,0.094
			c0.536,0.052,1.066,0.215,1.599,0.317c0.554,0.113,1.143,0.137,1.649,0.347c0.667,0.283,1.281,0.693,1.902,1.074
			c0.426,0.266,0.94,0.491,1.219,0.873c0.503,0.672,0.888,1.435,1.259,2.194c0.243,0.488,0.374,1.024,0.511,1.406
			c-0.05,1.008-0.054,1.842-0.145,2.662c-0.033,0.33-0.279,0.632-0.38,0.96c-0.189,0.613-0.34,1.234-0.52,1.849
			c-0.02,0.073-0.123,0.125-0.164,0.201c-0.071,0.12-0.122,0.256-0.19,0.374c-0.171,0.284-0.349,0.563-0.528,0.847
			c-0.015,0.026-0.039,0.047-0.059,0.063c-0.015-0.015-0.034-0.037-0.034-0.054c0.001-0.08,0.014-0.16,0.028-0.235
			c-0.083,0.072-0.168,0.145-0.249,0.222c-0.411,0.39-0.829,0.781-1.239,1.178c-0.064,0.057-0.119,0.132-0.181,0.202
			c0.073,0.024,0.15,0.039,0.211,0.075c1.15,0.663,2.236,1.468,3.457,1.958c1.501,0.606,2.425,1.856,3.418,2.916
			c0.824,0.876,1.086,2.313,1.447,3.547c0.185,0.633-0.064,1.382,0.075,2.041c0.269,1.317-0.369,2.43-0.7,3.603
			c-0.274,0.954-0.548,1.936-1.036,2.785C475.548,275.298,474.763,276.103,474.085,276.964z M491.968,320.353
			c-0.095,0.19-0.499,0.19-0.617,0.048c-0.072-0.591-0.238-1.473-0.594-1.732c-0.546-0.405-1.449-0.595-2.754-0.595h-1.687
			c-0.711,0-0.689,0.024-0.689,0.809v10.567c0,2.493,0.049,2.849,1.426,2.969l0.76,0.071c0.142,0.095,0.096,0.523-0.047,0.594
			c-1.353-0.047-2.16-0.072-3.11-0.072c-0.95,0-1.782,0.024-3.301,0.072c-0.142-0.072-0.19-0.475,0-0.594l0.855-0.071
			c1.353-0.12,1.472-0.476,1.472-2.969v-10.616c0-0.737,0-0.761-0.713-0.761h-1.306c-1.021,0-2.326,0.048-2.921,0.595
			c-0.57,0.522-0.808,1.043-1.069,1.637c-0.19,0.143-0.522,0.024-0.616-0.165c0.38-1.069,0.736-2.588,0.902-3.539
			c0.072-0.047,0.38-0.072,0.452,0c0.142,0.762,0.926,0.737,2.018,0.737h9.618c1.283,0,1.497-0.047,1.854-0.666
			c0.117-0.047,0.378-0.023,0.426,0.071C492.062,317.718,491.898,319.641,491.968,320.353z M494.072,270.529
			c-0.465,1.75-1.864,2.656-3.325,3.497c-0.677,0.391-1.367,0.762-2.034,1.17c-0.234,0.142-0.467,0.332-0.619,0.551
			c-0.098,0.155-0.044,0.405-0.068,0.613c-0.101,0.984-0.232,1.96-0.297,2.945c-0.039,0.538-0.009,1.085,0.061,1.619
			c0.072,0.523,0.311,1.032,0.314,1.551c0,0.762-0.207,1.523-0.205,2.279c0.009,1.181,0.017,2.378,0.25,3.528
			c0.061,0.297,0.929,0.533,1.455,0.63c1.401,0.26,1.978,0.756,1.65,2.028c-0.047,0.166-0.406,0.376-0.607,0.367
			c-1.503-0.074-2.996-0.226-4.502-0.286c-1.088-0.051-2.183-0.012-3.53-0.012c-0.447,0.106-1.138,0.276-1.831,0.435
			c-0.621,0.135-1.246,0.27-1.874,0.39c-0.567,0.109-0.705-0.367-0.727-1.068c-0.048-1.57,1.204-1.507,2.142-1.816
			c1.296-0.431,1.503-0.664,1.64-1.986c0.103-0.97,0.302-1.932,0.411-2.901c0.057-0.564,0.036-1.143,0.005-1.708
			c-0.079-1.491-0.171-2.978-0.284-4.466c-0.026-0.382-0.167-0.759-0.204-1.144c-0.028-0.288,0.155-0.705,0.019-0.838
			c-0.25-0.243-0.657-0.354-1.017-0.461c-0.932-0.277-0.942-0.294-1.887-0.529c-0.41-0.101-0.91-0.072-0.88-0.673
			c0.014-0.299,0.119-0.596,0.196-0.889c0.078-0.273,0.436-0.796,0.408-0.762c-0.012,0.015,1.788,0.328,3.13,0.526
			c0.075,0.012,0.231-0.304,0.298-0.487c0.096-0.289,0.212-0.59,0.213-0.889c0.009-1.018-0.031-2.034-0.049-3.05
			c-0.024-1.253-0.07-2.511-0.076-3.767c-0.006-0.675,0.081-1.344,0.076-2.017c-0.021-1.368-0.068-2.738-0.113-4.103
			c-0.019-0.465-0.133-0.929-0.117-1.391c0.029-0.729,0.168-1.458,0.194-2.186c0.012-0.519-0.045-1.053-0.159-1.563
			c-0.083-0.403-0.277-0.792-0.464-1.166c-0.065-0.126-0.244-0.215-0.385-0.277c-0.777-0.36-1.581-0.652-2.322-1.072
			c-0.34-0.194-0.808-0.67-0.757-0.936c0.106-0.611,0.507-0.904,1.322-0.692c0.962,0.249,2.009,0.162,3.021,0.254
			c0.54,0.046,1.081,0.242,1.62,0.225c1.294-0.034,2.593-0.112,3.879-0.252c0.896-0.098,1.774-0.384,2.669-0.49
			c0.528-0.066,1.176,0.046,1.182,0.721c0.006,0.27-0.451,0.642-0.783,0.791c-0.526,0.233-1.12,0.325-1.694,0.453
			c-0.896,0.205-1.391,1.127-1.4,2.039c-0.006,0.756-0.171,1.509-0.171,2.262c-0.001,1.74,0.081,3.48,0.073,5.217
			c0,0.907-0.126,1.813-0.182,2.722c-0.075,1.099-0.175,2.2-0.191,3.301c-0.012,0.891,0.08,1.784,0.153,2.672
			c0.033,0.408,0.152,0.813,0.176,1.224c0.026,0.575-0.027,1.154,0.026,1.726c0.009,0.108,0.408,0.308,0.516,0.253
			c0.903-0.462,1.779-0.97,2.656-1.488c0.039-0.026-0.009-0.241-0.048-0.36c-0.188-0.53-0.533-0.824-0.182-1.685
			c0.133-0.193,0.179-0.303,0.298-0.394c0.102-0.08,0.385-0.15,0.551-0.168c0.137-0.015,0.28-0.025,0.402-0.085
			c0.227-0.108,0.819-0.023,0.827-0.023C494.276,268.367,494.117,270.361,494.072,270.529z M487.924,207.919
			c-5.642-1.307-8.791-6.074-7.463-11.793c1.362-5.875,6.287-8.769,11.93-7.461c5.743,1.223,8.892,5.989,7.528,11.865
			C498.593,206.248,493.667,209.142,487.924,207.919z M506.916,333.391c-5.272,0-8.455-3.776-8.455-8.052
			c0-4.749,3.563-8.383,8.455-8.383c5.485,0,8.241,3.968,8.241,8.146C515.157,329.9,511.5,333.391,506.916,333.391z M512.242,267.03
			c0.015,0.032,0.022,0.08,0.01,0.103c-0.192,0.223-0.392,0.442-0.58,0.671c-0.189,0.213-0.361,0.446-0.552,0.659
			c-0.234,0.273-0.47,0.535-0.851,0.653c-0.163,0.042-0.274,0.239-0.403,0.367c-0.144,0.134-0.263,0.328-0.434,0.413
			c-0.103,0.048-0.306-0.037-0.439-0.114c-0.309-0.177-0.579-0.4-0.83-0.666c-0.211-0.232-0.485-0.401-0.73-0.597
			c-0.304-0.252-0.562-0.523-0.74-0.876c-0.155-0.295-0.372-0.554-0.551-0.836c-0.069-0.118-0.129-0.239-0.163-0.314
			c0.084-0.308,0.129-0.526,0.373-0.689c0.297-0.196,0.587-0.42,0.792-0.724c0.054-0.081,0.163-0.117,0.256-0.167
			c0.357-0.205,0.602-0.504,0.801-0.853c0.119-0.211,0.325-0.322,0.547-0.411c0.188-0.059,0.396-0.089,0.595-0.14
			c0.143-0.033,0.237,0.009,0.337,0.138c0.073,0.103,0.227,0.164,0.336,0.256c0.184,0.148,0.354,0.308,0.531,0.465
			c0.156,0.141,0.319,0.268,0.519,0.361c0.166,0.084,0.258,0.325,0.38,0.492c0.04,0.054,0.081,0.103,0.131,0.139
			c0.177,0.137,0.38,0.237,0.466,0.476c0.06,0.18,0.232,0.316,0.346,0.463c0.133,0.179,0.112,0.373-0.062,0.489
			C512.241,266.86,512.197,266.92,512.242,267.03z M523.156,211.047c-2.817,5.782-9.021,6.073-13.083,4.094l-6.309-3.074
			l8.243-16.919l6.668,3.249C523.118,200.56,525.949,205.312,523.156,211.047z M531.206,228.971
			c-4.54-3.604-5.343-9.264-1.691-13.867c3.752-4.728,9.447-5.231,13.987-1.629c2.249,1.786,3.889,3.867,4.339,6.466l-3.492,0.419
			c-0.209-1.66-1.233-3.321-2.712-4.494c-3.041-2.414-6.911-1.683-9.241,1.251c-2.496,3.146-2.329,7.082,0.714,9.495
			c1.333,1.059,2.739,1.766,4.068,1.974l2.761-3.48l-3.02-2.395l1.882-2.373l5.645,4.478l-5.984,7.538
			C535.912,231.892,533.476,230.772,531.206,228.971z M551.116,248.699l-8.336-9.9l14.391-12.114l8.026,9.53l-2.318,1.951
			l-5.867-6.971l-3.537,2.978l5.562,6.606l-2.319,1.951l-5.56-6.606l-3.903,3.286l6.177,7.339L551.116,248.699z M572.406,255.062
			c0.518-1.126,0.295-2.47-0.355-3.599c-0.771-1.336-2.136-2.327-3.634-1.465c-3.271,1.884,3.05,8.546-2.754,11.889
			c-3.501,2.017-6.797,0.234-8.641-2.967c-1.166-2.026-1.685-4.366-0.863-6.617l3.378,0.968c-0.672,1.337-0.59,2.915,0.153,4.206
			c0.768,1.336,2.382,2.431,3.879,1.57c3.569-2.057-2.937-8.613,2.891-11.97c3.363-1.933,6.652,0.157,8.39,3.174
			c0.981,1.704,1.479,3.688,1.012,5.645L572.406,255.062z"/>
		<path d="M367.308,251.211c-1.686-1.012-2.934-0.276-4.331,2.048l-1.656,2.756l4.648,2.793l1.586-2.644
			C368.445,254.683,369.425,252.481,367.308,251.211z"/>
		<path d="M360.131,247.829c-1.391-0.833-2.649-0.286-3.948,1.877l-1.423,2.37l4.1,2.462l1.573-2.62
			C361.583,250.006,361.338,248.555,360.131,247.829z"/>
	</g>
</g>
<g id="Layer_2">
</g>
</svg>
