<?xml version="1.0" encoding="utf-8"?>
<!-- Generator: Adobe Illustrator 17.0.2, SVG Export Plug-In . SVG Version: 6.00 Build 0)  -->
<!DOCTYPE svg PUBLIC "-//W3C//DTD SVG 1.1//EN" "http://www.w3.org/Graphics/SVG/1.1/DTD/svg11.dtd">
<svg version="1.1" xmlns="http://www.w3.org/2000/svg" xmlns:xlink="http://www.w3.org/1999/xlink" x="0px" y="0px" width="900px"
	 height="525px" viewBox="0 0 900 525" enable-background="new 0 0 900 525" xml:space="preserve">
<g id="Layer_1">
	<g>
		<path fill="#FFFFFF" d="M448.252,387.234l-105.807-48.622V137.766h215.11v200.877L448.252,387.234z M349.448,334.123
			l98.851,45.426l102.252-45.457V144.769H349.448V334.123z"/>
		<polygon fill="#FFFFFF" points="385.943,310.453 380.991,310.453 380.991,305.5 504.998,181.493 509.95,181.493 509.95,186.445 		
			"/>
		<path fill="#FFFFFF" d="M401.521,171.768c-0.617-0.637-0.941-1.479-1.694-2.684c-1.387-2.216-3.972-3.838-6.968-4.082
			c-5.124-0.418-9.617,3.396-10.036,8.521c-0.419,5.125,3.395,9.618,8.52,10.037c2.438,0.199,5.008-0.506,7.025-1.923
			c2.191-1.534,2.138-3.098,3.353-3.76l4.349-2.454L401.521,171.768z M393.793,175.449c-0.911,0-1.649-0.739-1.649-1.651
			c0-0.912,0.739-1.651,1.649-1.651c0.913,0,1.651,0.739,1.651,1.651C395.444,174.71,394.705,175.449,393.793,175.449z"/>
		<polygon fill="#FFFFFF" points="432.246,193.904 435.836,193.904 438.749,190.99 438.749,187.4 442.338,187.4 447.653,182.085 
			402.643,182.085 420.349,199.792 429.948,199.792 432.246,197.494 		"/>
		<path fill="#FFFFFF" d="M417.587,218.044l2.26,2.26l4.677,0l2.26-2.26l2.261,2.261l6.36,0L396.39,180.41l-2.934-1.602
			l-10.72-4.344c0,0,0,66.096,0,68.793l-3.024,3.024l2.991,2.99l-3.082,3.081l3.292,3.292l19.232-19.561c0,0,0-24.493,0-24.647
			l9.018,8.869l4.164,0L417.587,218.044z"/>
		<path fill="#FFFFFF" d="M515.813,309.858v-3.322l-3.181-3.181h-3.322v-3.323l-1.902-1.903c-3.25,3.248-7.739,5.258-12.696,5.258
			c-9.913,0-17.951-8.038-17.951-17.953c0-9.916,8.037-17.953,17.951-17.953c4.957,0,9.446,2.01,12.694,5.257l2.069-2.069v-3.001
			h3.002l3.502-3.501v-3.002h3.002l2.056-2.056c-6.737-6.737-16.044-10.904-26.325-10.904c-20.558,0-37.227,16.668-37.227,37.229
			c0,20.56,16.669,37.228,37.227,37.228c10.281,0,19.588-4.167,26.325-10.904l-1.902-1.902H515.813z"/>
	</g>
</g>
<g id="Layer_2">
</g>
</svg>
