<?xml version="1.0" encoding="utf-8"?>
<!-- Generator: Adobe Illustrator 17.0.2, SVG Export Plug-In . SVG Version: 6.00 Build 0)  -->
<!DOCTYPE svg PUBLIC "-//W3C//DTD SVG 1.1//EN" "http://www.w3.org/Graphics/SVG/1.1/DTD/svg11.dtd">
<svg version="1.1" xmlns="http://www.w3.org/2000/svg" xmlns:xlink="http://www.w3.org/1999/xlink" x="0px" y="0px" width="900px"
	 height="525px" viewBox="0 0 900 525" enable-background="new 0 0 900 525" xml:space="preserve">
<g id="Layer_1">
	<rect x="-2.347" y="1.482" fill="#4A2836" width="900" height="525"/>
	<defs>
		<filter id="Adobe_OpacityMaskFilter" filterUnits="userSpaceOnUse" x="309.151" y="125.678" width="281.698" height="273.644">
			<feColorMatrix  type="matrix" values="1 0 0 0 0  0 1 0 0 0  0 0 1 0 0  0 0 0 1 0"/>
		</filter>
	</defs>
	<mask maskUnits="userSpaceOnUse" x="309.151" y="125.678" width="281.698" height="273.644" id="SVGID_1_">
		<g filter="url(#Adobe_OpacityMaskFilter)">
			
				<image overflow="visible" width="2362" height="1575" xlink:href="../../../../Documents/Dropbox/Nathan&apos;s Stuff/Projects/FMC/texture-9.jpg"  transform="matrix(0.178 0 0 0.178 217.227 122.7612)">
			</image>
		</g>
	</mask>
	<g mask="url(#SVGID_1_)">
		<path fill="#F0EFE8" d="M588.275,254.891c-3.127-2.118-6.264-4.232-6.186-9.32c0.773,0,1.548,0,2.318,0
			c1.142-8.319,0.935-17.907,3.868-26.529c-4.426-2.112-4.957-7.833-6.962-12.189c-1.122-0.393-3.994,0.838-3.864-0.717
			c0.127-4.658,0.551-9.592-2.32-11.471c2.138-0.364-1.931-6.596-4.638-7.171c-6.377-13.445-24.966-15.565-35.568-25.096
			c-1.256-2.348,0.173-2.74,0-5.735c1.289,0,2.578,0,3.867,0c-0.663-2.251-2.954-2.998-4.639-4.302
			c0.719-5.684-5.056-5.35-7.733-7.887c-8.635-1.073-13.688-5.47-18.555-10.038c-11.824-3.351-19.221-8.671-33.249-6.454
			c-1.675,2.032-5.785,1.805-9.278,2.151c-0.304,1.234,1.147,1.839,0,2.152c-3.291-1.25-8.203-0.996-9.276-4.303
			c-4.851,0.283-11.328-0.945-13.918,1.435c-4.653-3.327-11.048-5.71-16.238-1.435c-2.057-0.242-2.709-1.787-4.637-2.149
			c-10.392,2.792-23.751,2.832-34.023,5.735c-6.912,9.126-10.907,20.955-20.874,27.246c-4.511,1.073-4.56-1.986-7.733-2.152
			c-6.493,3.539-13.63,6.481-14.691,15.056c-6.077,0.339-9.679,2.973-14.691,4.303c-0.298,5.22-2.123,9.025-6.958,10.038
			c-0.664,2.252,1.809,7.413-2.32,6.453c-0.777,13.237-9.079,27.468,0,37.999c-1.481,7.949-5.468,13.572-10.825,17.926
			c1.051,11.43,3.129,18.816,3.953,25.852c-1.215,0.067-2.681-0.095-2.321,1.435c-0.404,10.995-2.75,19.59,2.321,28.681
			c1.068,2.902-1.68,2.266-1.547,4.302c4.127-0.958,1.654,4.202,2.32,6.453c6.31-1.311,2.692,5.746,7.646,5.694
			c4.996,8.274,7.774,10.717,16.954,15.112c0.256,3.958,6.596,10.483,5.468,14.285c0.91,0.112,2.196-0.125,2.32,0.715
			c-0.414,8.032,6.487,10.206,10.503,14.13c-1.352,7.23,3.702,8.516,5.414,12.904c6.842,2.021,12.475,5.162,15.462,10.757
			c3.632,0.696,8.405,0.331,10.053,2.868c6.699-8.49,11.716,1.81,21.199,2.362c0,1.194,0,0.027,0,1.222
			c3.863,0,7.731,2.362,11.599,2.362c-0.122-2.741,0.037-2.859,1.544-4.09c3.444,0.565,5.142-0.49,6.96-1.432
			c6.006,2.791,13.603,0.567,22.421,0.754c-1.112,5.096,6.393,1.02,5.414,5.993c7.65,0.125,8.697,0.352,15.463-1.648
			c2.845,6.224,6.865-3.156,13.144-0.716c0.131-1.074-0.275-1.466,0.774-1.688c10.176-0.601,16.626-4.657,20.876-10.755
			c2.361,0.516,2.815-0.733,4.639-0.718c6.888-9.624,9.438-19.727,27.061-19.398c2.313-5.743,7.118-9.174,15.465-9.323
			c6.05-6.578,10.571-14.575,16.236-21.508c-0.242-4.047,0.576-7.114,3.867-7.888c1.224-13.385,12.622-20.548,10.049-35.134
			C594.967,285.174,589.697,265.219,588.275,254.891z M447.958,385.213c-68.332,0-123.923-55.592-123.923-123.924
			c0-68.332,55.591-123.923,123.923-123.923c68.33,0,123.922,55.591,123.922,123.923
			C571.88,329.621,516.288,385.213,447.958,385.213z"/>
		<path fill="#F0EFE8" d="M446.376,275.221h-1.531v7.646h1.452c2.522,0,3.723-1.426,3.723-3.791
			C450.021,276.132,448.701,275.221,446.376,275.221z"/>
		<polygon fill="#F0EFE8" points="477.475,279.948 480.565,279.948 479.033,275.3 		"/>
		<path fill="#F0EFE8" d="M419.335,255.136c0.393-0.165,0.729-0.394,1.01-0.689c0.281-0.296,0.496-0.644,0.647-1.046
			c0.15-0.401,0.224-0.845,0.224-1.329c0-0.474-0.075-0.915-0.224-1.321c-0.151-0.408-0.366-0.758-0.647-1.055
			c-0.28-0.294-0.617-0.525-1.01-0.689c-0.391-0.165-0.83-0.247-1.314-0.247c-0.485,0-0.922,0.082-1.315,0.247
			c-0.393,0.165-0.729,0.395-1.01,0.689c-0.28,0.297-0.496,0.647-0.646,1.055c-0.151,0.406-0.226,0.848-0.226,1.321
			c0,0.484,0.075,0.927,0.226,1.329c0.15,0.401,0.365,0.75,0.646,1.046c0.281,0.295,0.617,0.525,1.01,0.689
			c0.393,0.166,0.83,0.247,1.315,0.247C418.505,255.383,418.943,255.302,419.335,255.136z"/>
		<path fill="#F0EFE8" d="M399.835,249.059c-0.165-0.082-0.354-0.138-0.566-0.167c-0.213-0.03-0.421-0.044-0.624-0.044h-1.482v2.338
			h1.336c0.203,0,0.419-0.008,0.647-0.021c0.227-0.015,0.433-0.059,0.617-0.132c0.183-0.072,0.337-0.186,0.457-0.34
			c0.121-0.156,0.182-0.373,0.182-0.654c0-0.262-0.054-0.469-0.161-0.623C400.135,249.259,399.999,249.141,399.835,249.059z"/>
		<path fill="#F0EFE8" d="M388.174,309.366c-0.23-0.369-0.52-0.672-0.861-0.905c-0.344-0.233-0.732-0.388-1.165-0.469
			c-0.433-0.081-0.899-0.071-1.392,0.03c-0.496,0.102-0.929,0.274-1.296,0.52c-0.368,0.246-0.663,0.541-0.887,0.891
			c-0.223,0.348-0.369,0.739-0.436,1.169c-0.067,0.43-0.05,0.88,0.051,1.344c0.102,0.474,0.27,0.89,0.506,1.249
			c0.236,0.36,0.525,0.656,0.869,0.885c0.342,0.229,0.728,0.383,1.156,0.461c0.427,0.079,0.879,0.067,1.365-0.032
			c0.484-0.1,0.91-0.267,1.27-0.506c0.361-0.241,0.652-0.535,0.876-0.88c0.226-0.345,0.379-0.729,0.454-1.154
			c0.075-0.424,0.066-0.871-0.026-1.348C388.564,310.155,388.404,309.735,388.174,309.366z"/>
		<path fill="#F0EFE8" d="M511.432,309.15c-0.226-0.349-0.523-0.644-0.891-0.887c-0.366-0.243-0.801-0.419-1.296-0.518
			c-0.496-0.1-0.96-0.105-1.394-0.021c-0.434,0.083-0.823,0.242-1.165,0.477c-0.34,0.234-0.627,0.535-0.855,0.905
			c-0.229,0.37-0.385,0.79-0.474,1.256c-0.09,0.476-0.097,0.929-0.021,1.351c0.077,0.424,0.23,0.808,0.457,1.152
			c0.227,0.344,0.52,0.635,0.883,0.873c0.363,0.238,0.783,0.406,1.269,0.504c0.485,0.097,0.944,0.106,1.369,0.025
			c0.426-0.081,0.808-0.237,1.149-0.467c0.342-0.231,0.632-0.527,0.866-0.889c0.233-0.361,0.401-0.778,0.501-1.251
			c0.098-0.465,0.115-0.911,0.046-1.341C511.806,309.886,511.656,309.496,511.432,309.15z"/>
		<path fill="#F0EFE8" d="M506.561,251.165c0.227-0.015,0.433-0.059,0.617-0.132c0.183-0.072,0.337-0.186,0.457-0.34
			c0.121-0.156,0.182-0.373,0.182-0.654c0-0.262-0.054-0.469-0.161-0.623c-0.106-0.156-0.242-0.274-0.406-0.356
			c-0.165-0.082-0.354-0.138-0.566-0.167c-0.213-0.03-0.421-0.044-0.624-0.044h-1.482v2.338h1.336
			C506.117,251.186,506.333,251.179,506.561,251.165z"/>
		<path fill="#F0EFE8" d="M447.958,140.582c-66.558,0-120.707,54.149-120.707,120.707c0,66.559,54.149,120.708,120.707,120.708
			c66.558,0,120.707-54.149,120.707-120.708C568.665,194.731,514.516,140.582,447.958,140.582z M481.116,198.182h26.305v1.276
			h-26.305V198.182z M388.501,198.182h26.304v1.276h-26.304V198.182z M369.951,319.98c-0.586,0.455-1.223,0.774-1.918,0.962
			c-0.792,0.214-1.552,0.294-2.285,0.238c-0.735-0.057-1.41-0.241-2.024-0.553c-0.615-0.313-1.152-0.748-1.612-1.311
			c-0.457-0.563-0.804-1.244-1.033-2.034c-0.231-0.79-0.299-1.546-0.208-2.267c0.092-0.722,0.323-1.381,0.692-1.976
			c0.371-0.595,0.868-1.109,1.488-1.543c0.621-0.434,1.341-0.762,2.16-0.983c0.296-0.08,0.611-0.136,0.946-0.171
			c0.333-0.035,0.671-0.039,1.012-0.007c0.34,0.03,0.677,0.103,1.012,0.216c0.334,0.112,0.651,0.275,0.948,0.49
			c-0.567,0.734-0.849,1.101-1.407,1.837c-0.294-0.203-0.626-0.329-0.991-0.383c-0.365-0.052-0.763-0.021-1.194,0.096
			c-0.431,0.117-0.809,0.307-1.133,0.566c-0.322,0.259-0.578,0.571-0.767,0.93c-0.188,0.358-0.305,0.754-0.345,1.188
			c-0.04,0.434,0.005,0.881,0.135,1.339c0.131,0.466,0.327,0.871,0.583,1.215c0.259,0.344,0.557,0.622,0.896,0.834
			c0.339,0.212,0.704,0.35,1.098,0.413s0.79,0.041,1.194-0.069c0.461-0.125,0.843-0.333,1.148-0.614
			c0.304-0.281,0.53-0.623,0.671-1.021c0.896,0.346,1.343,0.521,2.233,0.874C370.968,318.947,370.537,319.525,369.951,319.98z
			 M377.654,246.929h6.899v2.092h-4.633v2.092h4.284v2.092h-4.284v4.01h-2.266V246.929z M391.033,312.446
			c-0.155,0.709-0.435,1.339-0.841,1.893c-0.408,0.557-0.925,1.023-1.551,1.402c-0.626,0.379-1.341,0.652-2.14,0.815
			c-0.799,0.163-1.562,0.193-2.287,0.091c-0.727-0.103-1.386-0.327-1.979-0.678c-0.591-0.35-1.099-0.819-1.522-1.41
			c-0.421-0.591-0.723-1.288-0.902-2.09c-0.181-0.804-0.203-1.562-0.069-2.276c0.136-0.714,0.404-1.361,0.809-1.931
			c0.405-0.57,0.929-1.05,1.573-1.444c0.643-0.394,1.382-0.677,2.21-0.846c0.826-0.17,1.615-0.199,2.363-0.09
			c0.745,0.11,1.416,0.347,2.012,0.711c0.596,0.365,1.098,0.849,1.503,1.453c0.404,0.605,0.681,1.313,0.831,2.123
			C391.194,310.979,391.188,311.737,391.033,312.446z M398.28,253.103h-1.118v4.111h-2.266v-10.285h3.98
			c0.522,0,1.02,0.052,1.488,0.153c0.47,0.101,0.881,0.27,1.235,0.509c0.353,0.238,0.634,0.557,0.843,0.959
			c0.208,0.401,0.312,0.902,0.312,1.503c0,0.726-0.188,1.344-0.566,1.852c-0.378,0.509-0.93,0.83-1.657,0.965l2.615,4.344h-2.716
			L398.28,253.103z M402.328,313.485c-0.611-4.069-0.917-6.098-1.529-10.166c0.939-0.141,1.41-0.209,2.35-0.343
			c0.464,3.245,0.694,4.863,1.157,8.106c1.696-0.242,2.545-0.358,4.244-0.576c0.106,0.83,0.16,1.248,0.265,2.078
			C406.217,312.916,404.92,313.096,402.328,313.485z M415.196,274.983l-0.885,0.106c-0.197,0.026-0.211,0.052-0.211,0.25v7.422
			c0,0.172,0.04,0.224,0.211,0.251l0.885,0.106v0.713h-3.591v-0.713l1.096-0.092c0.184-0.014,0.212-0.066,0.212-0.264v-6.55
			l-2.655,5.375h-1.28l-2.562-5.361v6.523c0,0.212,0.013,0.238,0.211,0.264l1.148,0.106v0.713h-3.591v-0.713l0.831-0.092
			c0.186-0.026,0.212-0.066,0.212-0.264v-7.408c0-0.198-0.026-0.251-0.212-0.264l-0.831-0.092v-0.727h2.561l2.906,6.272l3.01-6.272
			h2.535V274.983z M414.041,256.016c-0.494-0.47-0.879-1.04-1.156-1.708c-0.275-0.668-0.414-1.413-0.414-2.236
			c0-0.823,0.138-1.568,0.414-2.237c0.277-0.668,0.662-1.236,1.156-1.706c0.494-0.469,1.079-0.83,1.758-1.082
			c0.677-0.252,1.418-0.378,2.222-0.378c0.803,0,1.544,0.126,2.223,0.378c0.677,0.252,1.263,0.613,1.758,1.082
			c0.494,0.47,0.879,1.038,1.154,1.706c0.275,0.669,0.414,1.415,0.414,2.237c0,0.823-0.138,1.568-0.414,2.236
			c-0.275,0.668-0.661,1.238-1.154,1.708c-0.495,0.469-1.081,0.83-1.758,1.082c-0.678,0.252-1.42,0.378-2.223,0.378
			c-0.804,0-1.546-0.126-2.222-0.378C415.12,256.847,414.534,256.485,414.041,256.016z M418.933,311.457
			c-0.388-4.096-0.581-6.14-0.97-10.236c0.945-0.09,1.416-0.136,2.36-0.218c0.286,3.265,0.428,4.894,0.712,8.158
			c1.703-0.148,2.555-0.214,4.26-0.339c0.06,0.834,0.092,1.252,0.152,2.087C422.84,311.099,421.539,311.211,418.933,311.457z
			 M432.399,283.831h-6.919v-0.713l0.831-0.092c0.186-0.026,0.211-0.066,0.211-0.264v-7.408c0-0.198-0.025-0.251-0.211-0.264
			l-0.831-0.092v-0.727h6.629v2.179l-0.897-0.052l-0.186-1.017c-0.026-0.132-0.079-0.172-0.224-0.172h-3.064v3.328h3.526v0.951
			h-3.526v3.407h3.354c0.145,0,0.184-0.014,0.212-0.146l0.211-1.148h0.885V283.831z M435.595,310.337
			c-0.163-4.111-0.246-6.161-0.409-10.272c2.918-0.116,4.378-0.156,7.297-0.204c0.014,0.836,0.021,1.254,0.036,2.09
			c-1.96,0.032-2.939,0.056-4.899,0.12c0.025,0.767,0.037,1.147,0.061,1.913c1.839-0.059,2.757-0.08,4.597-0.112
			c0.014,0.836,0.021,1.254,0.036,2.09c-1.827,0.031-2.74,0.054-4.567,0.112c0.027,0.836,0.042,1.253,0.069,2.089
			c2.028-0.065,3.04-0.089,5.068-0.12c0.014,0.836,0.021,1.255,0.035,2.092C439.989,310.182,438.525,310.222,435.595,310.337z
			 M433.824,257.214v-10.285h3.079l4.373,7.147h0.029v-7.147h2.266v10.285h-2.963l-4.489-7.321h-0.029v7.321H433.824z
			 M446.311,283.831h-3.725v-0.713l0.833-0.092c0.184-0.026,0.211-0.066,0.211-0.264v-7.408c0-0.198-0.026-0.251-0.211-0.264
			l-0.833-0.092v-0.727h3.949c3.314,0,4.74,1.782,4.74,4.636C451.276,281.836,449.732,283.831,446.311,283.831z M455.707,306.39
			c0.143,0.405,0.344,0.759,0.603,1.062c0.259,0.303,0.567,0.541,0.922,0.717c0.354,0.176,0.733,0.273,1.147,0.288
			c0.472,0.016,0.896-0.069,1.268-0.247c0.37-0.178,0.684-0.436,0.935-0.775c0.747,0.596,1.117,0.892,1.857,1.492
			c-0.472,0.59-1.048,1.016-1.736,1.278c-0.688,0.262-1.387,0.379-2.1,0.353c-0.812-0.029-1.558-0.181-2.235-0.451
			c-0.678-0.272-1.26-0.647-1.75-1.128c-0.489-0.48-0.875-1.055-1.144-1.728c-0.268-0.673-0.395-1.425-0.38-2.247
			c0.015-0.824,0.168-1.564,0.466-2.227c0.299-0.663,0.709-1.22,1.234-1.679c0.525-0.459,1.146-0.805,1.861-1.037
			c0.714-0.232,1.495-0.332,2.335-0.302c0.304,0.011,0.617,0.049,0.945,0.113c0.327,0.065,0.649,0.163,0.964,0.294
			c0.314,0.13,0.608,0.297,0.894,0.502c0.283,0.206,0.537,0.454,0.755,0.747c-0.753,0.535-1.128,0.803-1.875,1.342
			c-0.218-0.28-0.494-0.497-0.824-0.656c-0.33-0.157-0.718-0.248-1.161-0.263c-0.443-0.015-0.856,0.055-1.238,0.208
			c-0.382,0.153-0.716,0.373-0.999,0.659c-0.283,0.287-0.511,0.631-0.676,1.033c-0.166,0.403-0.253,0.844-0.266,1.319
			C455.498,305.542,455.564,305.985,455.707,306.39z M453.434,248.934v-2.004h8.133v2.004h-2.934v8.281h-2.266v-8.281H453.434z
			 M464.991,274.983l-1.017,0.106c-0.198,0.026-0.211,0.052-0.211,0.25v7.408c0,0.212,0.013,0.238,0.211,0.264l1.017,0.106v0.713
			h-3.619v-0.713l0.965-0.092c0.184-0.014,0.211-0.066,0.211-0.264v-7.422c0-0.198-0.026-0.25-0.211-0.264l-0.965-0.092v-0.713
			h3.619V274.983z M463.012,211.11c2.352,2.64,6.579,8.367,6.579,8.367c0.041,0.056,0.032,0.138-0.017,0.186l-1.119,1.243
			c-0.051,0.047-0.148,0.085-0.217,0.085l-2.854-0.027v-0.004c-0.066-0.001-0.117-0.055-0.116-0.121
			c-0.086-1.723-2.307-5.436-5.067-8.249c-1.192-1.218-6.505-6.351-12.242-11.874c-5.739,5.523-11.05,10.656-12.244,11.874
			c-2.76,2.813-4.979,6.527-5.066,8.249c0,0.066-0.05,0.12-0.115,0.121v0.004l-2.856,0.027c-0.069,0-0.165-0.037-0.216-0.085
			l-1.121-1.243c-0.05-0.047-0.059-0.13-0.019-0.186c0,0,4.228-5.726,6.582-8.367c2.271-2.549,2.206-2.118,13.106-12.269
			c-7.258-6.983-14.534-13.953-14.534-13.953c-0.047-0.047-0.098-0.062-0.158-0.003c-1.33,1.301-2.19,5.047-2.19,5.047
			c-0.008,0.069-0.067,0.117-0.136,0.107c0,0-1.498-0.55-3.357-1.846c-1.862-1.293-2.927-2.611-2.927-2.611
			c-0.057-0.04-0.065-0.112-0.017-0.163c0,0,3.248-2.651,4.288-3.672c1.04-1.018,4.48-4.699,4.48-4.699
			c0.046-0.05,0.126-0.052,0.176-0.005l3.703,3.691c0.047,0.047,0.057,0.132,0.016,0.187l-0.752,0.8
			c-0.04,0.056-0.05,0.151-0.022,0.214c0,0,1.959,4.314,13.379,15.085c11.418-10.771,13.376-15.085,13.376-15.085
			c0.029-0.064,0.019-0.158-0.022-0.214l-0.75-0.8c-0.04-0.055-0.031-0.14,0.017-0.187l3.702-3.691
			c0.05-0.047,0.13-0.045,0.177,0.005c0,0,3.439,3.681,4.479,4.699c1.04,1.021,4.288,3.672,4.288,3.672
			c0.047,0.051,0.04,0.123-0.017,0.163c0,0-1.065,1.319-2.926,2.611c-1.861,1.296-3.358,1.846-3.358,1.846
			c-0.069,0.01-0.128-0.039-0.136-0.107c0,0-0.861-3.746-2.19-5.047c-0.06-0.06-0.11-0.045-0.158,0.003
			c0,0-7.276,6.97-14.533,13.953C460.803,208.992,460.741,208.561,463.012,211.11z M471.402,246.929h2.266v10.285h-2.266V246.929z
			 M480.519,303.543c-1.214-0.128-1.82-0.19-3.035-0.305c-0.318,3.297-0.469,4.945-0.782,8.242
			c-0.914-0.087-1.372-0.127-2.286-0.207c0.288-3.299,0.433-4.952,0.725-8.252c-1.214-0.107-1.824-0.155-3.039-0.249
			c0.064-0.799,0.092-1.199,0.156-1.998c3.392,0.264,5.084,0.421,8.47,0.778C480.644,302.349,480.604,302.745,480.519,303.543z
			 M483.709,283.831h-3.222v-0.713l1.082-0.118l-0.713-2.087h-3.683l-0.7,2.087l1.069,0.118v0.713h-3.036v-0.699l0.567-0.146
			c0.212-0.052,0.278-0.092,0.33-0.251l2.906-8.465h1.532l2.958,8.477c0.052,0.158,0.158,0.186,0.317,0.224l0.595,0.146V283.831z
			 M484.533,246.929h6.987v2.092h-4.721v1.918h4.459v2.092h-4.459v2.092h4.982v2.092h-7.248V246.929z M491.82,313.305
			c-0.909-0.133-1.366-0.197-2.276-0.323c0.562-4.076,0.84-6.11,1.407-10.186c0.941,0.131,1.412,0.196,2.352,0.333
			C492.706,307.2,492.413,309.234,491.82,313.305z M502.311,246.929h3.98c0.522,0,1.02,0.052,1.488,0.153
			c0.47,0.101,0.881,0.27,1.235,0.509c0.353,0.238,0.635,0.557,0.843,0.959c0.208,0.401,0.312,0.902,0.312,1.503
			c0,0.726-0.188,1.344-0.566,1.852c-0.378,0.509-0.93,0.83-1.657,0.965l2.615,4.344h-2.716l-2.15-4.111h-1.118v4.111h-2.266
			V246.929z M514.207,312.17c-0.176,0.803-0.476,1.502-0.895,2.095c-0.419,0.593-0.92,1.066-1.511,1.419
			c-0.592,0.355-1.253,0.58-1.977,0.686c-0.725,0.106-1.49,0.082-2.289-0.077c-0.8-0.16-1.514-0.432-2.143-0.809
			c-0.63-0.378-1.143-0.839-1.552-1.392c-0.408-0.553-0.695-1.187-0.855-1.895c-0.158-0.708-0.167-1.467-0.021-2.276
			c0.147-0.81,0.42-1.521,0.821-2.126c0.403-0.606,0.902-1.088,1.496-1.456c0.593-0.368,1.265-0.609,2.012-0.723
			c0.745-0.113,1.533-0.086,2.362,0.08c0.828,0.166,1.566,0.448,2.211,0.839c0.644,0.391,1.173,0.87,1.582,1.439
			c0.406,0.567,0.679,1.209,0.818,1.923C514.405,310.609,514.384,311.366,514.207,312.17z M535.72,312.342
			c-1.147,3.953-1.719,5.927-2.866,9.879c-1.162-0.338-1.745-0.505-2.909-0.83c-0.976-3.313-1.487-4.971-2.553-8.28
			c-0.011-0.004-0.014-0.001-0.025-0.005c-0.747,2.832-1.122,4.249-1.867,7.081c-0.894-0.236-1.341-0.354-2.236-0.582
			c1.017-3.986,1.524-5.978,2.543-9.966c1.256,0.322,1.886,0.486,3.14,0.82c1.045,3.238,1.548,4.856,2.508,8.097
			c0.011,0.004,0.019,0.004,0.03,0.007c0.777-2.752,1.159-4.126,1.936-6.878C534.34,311.944,534.801,312.075,535.72,312.342z"/>
	</g>
</g>
<g id="Layer_2">
</g>
</svg>
