<?xml version="1.0" encoding="utf-8"?>
<!-- Generator: Adobe Illustrator 17.0.2, SVG Export Plug-In . SVG Version: 6.00 Build 0)  -->
<!DOCTYPE svg PUBLIC "-//W3C//DTD SVG 1.1//EN" "http://www.w3.org/Graphics/SVG/1.1/DTD/svg11.dtd">
<svg version="1.1" id="Layer_1" xmlns="http://www.w3.org/2000/svg" xmlns:xlink="http://www.w3.org/1999/xlink" x="0px" y="0px"
	 width="900px" height="525px" viewBox="0 0 900 525" enable-background="new 0 0 900 525" xml:space="preserve">
<g id="Layer_1_1_">
	<g>
		<g>
			<path d="M301.592,366.181c-1.702,0-3.848-0.324-5.433-0.969l0.589-2.762c1.379,0.413,3.319,0.735,4.875,0.735
				c1.939,0,2.377-0.382,2.377-1.558c0-1.145-0.115-1.439-3.142-2.084c-4.171-0.881-4.553-2.029-4.553-4.906
				c0-3.261,1.85-4.319,5.904-4.319c1.497,0,3.614,0.206,5.082,0.616l-0.44,2.909c-1.616-0.355-3.29-0.528-4.582-0.528
				c-1.969,0-2.321,0.234-2.321,1.439c0,1.29,0.118,1.379,3.053,2.055c4.32,1,4.643,1.734,4.643,4.672
				C307.644,364.623,306.47,366.181,301.592,366.181z"/>
			<path d="M321.86,365.887v-6.169h-6.078v6.169h-3.645V350.61h3.645v5.964h6.078v-5.964h3.643v15.277H321.86z"/>
			<path d="M344.537,365.887h-3.645l-0.879-2.732h-6.169l-0.882,2.732h-3.643l5.349-15.277h4.522L344.537,365.887z M336.93,353.372
				l-2.234,6.933h4.466L336.93,353.372z"/>
			<path d="M355.229,361.423h-3.232v4.464h-3.643V350.61h7.167c4.027,0,5.349,1.588,5.349,4.291v2.203
				c0,1.732-0.471,2.729-2.029,3.583l3.527,5.199h-4.145L355.229,361.423z M357.313,356.898v-1.822c0-1.084-0.498-1.497-1.761-1.497
				h-3.554v4.935h3.437C356.815,358.514,357.313,357.985,357.313,356.898z"/>
			<path d="M370.265,361.568v4.319h-3.645V350.61h6.962c4.054,0,5.348,1.588,5.348,4.291v2.35c0,2.76-1.5,4.317-5.523,4.317
				L370.265,361.568L370.265,361.568z M375.317,357.074v-1.998c0-1.026-0.5-1.497-1.879-1.497h-3.172v5.053h3.172
				C374.817,358.631,375.317,358.133,375.317,357.074z"/>
			<path d="M386.709,355.166v10.721h-3.464V350.61h4.435l6.022,10.752V350.61h3.467v15.277h-4.438L386.709,355.166z"/>
			<path d="M402.89,350.61h10.72v2.998h-7.077v2.966h6.549v3.027h-6.549v3.29h7.077v2.996h-10.72V350.61z"/>
			<path d="M425.624,361.423h-3.232v4.464h-3.642V350.61h7.167c4.025,0,5.346,1.588,5.346,4.291v2.203
				c0,1.732-0.469,2.729-2.027,3.583l3.525,5.199h-4.139L425.624,361.423z M427.708,356.898v-1.822c0-1.084-0.499-1.497-1.761-1.497
				h-3.555v4.935h3.435C427.209,358.514,427.708,357.985,427.708,356.898z"/>
			<path d="M441.716,366.181c-1.703,0-3.848-0.324-5.435-0.969l0.59-2.762c1.379,0.413,3.316,0.735,4.875,0.735
				c1.937,0,2.379-0.382,2.379-1.558c0-1.145-0.118-1.439-3.145-2.084c-4.171-0.881-4.551-2.029-4.551-4.906
				c0-3.261,1.851-4.319,5.904-4.319c1.498,0,3.611,0.206,5.082,0.616l-0.442,2.909c-1.614-0.355-3.29-0.528-4.582-0.528
				c-1.969,0-2.322,0.234-2.322,1.439c0,1.29,0.118,1.379,3.056,2.055c4.317,1,4.644,1.734,4.644,4.672
				C447.77,364.623,446.593,366.181,441.716,366.181z"/>
			<path d="M463.534,361.568v4.319h-3.639V350.61h6.959c4.053,0,5.348,1.588,5.348,4.291v2.35c0,2.76-1.498,4.317-5.523,4.317
				L463.534,361.568L463.534,361.568z M468.588,357.074v-1.998c0-1.026-0.498-1.497-1.88-1.497h-3.174v5.053h3.174
				C468.09,358.631,468.588,358.133,468.588,357.074z"/>
			<path d="M489.177,361.334c0,2.614-1.792,4.846-6.551,4.846s-6.552-2.232-6.552-4.846v-6.169c0-2.616,1.793-4.848,6.552-4.848
				s6.551,2.232,6.551,4.848V361.334z M482.626,353.461c-2.145,0-2.909,0.763-2.909,2.114v5.348c0,1.351,0.764,2.116,2.909,2.116
				s2.909-0.764,2.909-2.116v-5.348C485.535,354.224,484.771,353.461,482.626,353.461z"/>
			<path d="M497.043,355.166v10.721h-3.464V350.61h4.434l6.023,10.752V350.61h3.466v15.277h-4.435L497.043,355.166z"/>
			<path d="M524.864,360.717c0,2.937-1.087,5.17-5.64,5.17h-6.875V350.61h6.875c4.553,0,5.64,2.234,5.64,5.173V360.717z
				 M515.992,362.802h3.024c1.646,0,2.264-0.647,2.264-2.056v-4.993c0-1.41-0.618-2.058-2.264-2.058h-3.024V362.802z"/>
			<path d="M545.379,361.423h-3.232v4.464h-3.642V350.61h7.167c4.022,0,5.346,1.588,5.346,4.291v2.203
				c0,1.732-0.471,2.729-2.029,3.583l3.527,5.199h-4.142L545.379,361.423z M547.463,356.898v-1.822c0-1.084-0.5-1.497-1.763-1.497
				h-3.553v4.935h3.437C546.963,358.514,547.463,357.985,547.463,356.898z"/>
			<path d="M569.285,361.334c0,2.614-1.792,4.846-6.551,4.846c-4.759,0-6.552-2.232-6.552-4.846v-6.169
				c0-2.616,1.793-4.848,6.552-4.848s6.551,2.232,6.551,4.848V361.334z M562.735,353.461c-2.146,0-2.908,0.763-2.908,2.114v5.348
				c0,1.351,0.761,2.116,2.908,2.116c2.143,0,2.909-0.764,2.909-2.116v-5.348C565.644,354.224,564.878,353.461,562.735,353.461z"/>
			<path d="M587.517,365.887h-3.643l-0.881-2.732h-6.167l-0.884,2.732H572.3l5.348-15.277h4.524L587.517,365.887z M579.911,353.372
				l-2.233,6.933h4.467L579.911,353.372z"/>
			<path d="M603.842,360.717c0,2.937-1.089,5.17-5.64,5.17h-6.873V350.61h6.873c4.551,0,5.64,2.234,5.64,5.173V360.717z
				 M594.97,362.802h3.026c1.645,0,2.261-0.647,2.261-2.056v-4.993c0-1.41-0.616-2.058-2.261-2.058h-3.026V362.802z"/>
		</g>
		<g>
			<path d="M365.322,388.818l-0.057,2.136c-0.683,0.27-1.708,0.384-2.547,0.384c-2.89,0-4.187-1.665-4.187-3.915
				c0-2.733,1.709-4.2,4.413-4.2c0.698,0,1.353,0.086,2.364,0.456v2.007h-1.168v-0.982c-0.498-0.185-0.939-0.228-1.28-0.228
				c-1.753,0-2.649,1.224-2.649,2.776c0,2.037,1.181,2.834,2.79,2.834c0.385,0,0.727-0.029,1.097-0.113l0.057-1.154L365.322,388.818
				L365.322,388.818z"/>
			<path d="M372.602,383.223c2.691,0,3.873,1.779,3.873,3.944c0,2.462-1.466,4.171-3.873,4.171c-2.691,0-3.873-1.779-3.873-3.958
				C368.729,384.932,370.196,383.223,372.602,383.223z M372.602,390.085c1.452,0,2.279-1.238,2.279-2.819
				c0-1.779-0.969-2.79-2.279-2.79c-1.452,0-2.277,1.238-2.277,2.848C370.325,389.074,371.293,390.085,372.602,390.085z"/>
			<path d="M386.217,384.461h-0.926v-1.081h3.062v1.081h-0.884l-0.042,6.719h-1.167l-4.172-5.551h-0.028l-0.044,4.47h0.926v1.081
				h-3.06v-1.08h0.882l0.042-5.638h-0.924v-1.081h2.306l3.957,5.281h0.029L386.217,384.461z"/>
			<path d="M398.551,388.818l-0.057,2.136c-0.683,0.27-1.707,0.384-2.547,0.384c-2.89,0-4.187-1.665-4.187-3.915
				c0-2.733,1.709-4.2,4.413-4.2c0.697,0,1.353,0.086,2.364,0.456v2.007h-1.168v-0.982c-0.499-0.185-0.939-0.228-1.28-0.228
				c-1.751,0-2.649,1.224-2.649,2.776c0,2.037,1.181,2.834,2.79,2.834c0.385,0,0.727-0.029,1.097-0.113l0.057-1.154L398.551,388.818
				L398.551,388.818z"/>
			<path d="M405.832,383.223c2.691,0,3.873,1.779,3.873,3.944c0,2.462-1.466,4.171-3.873,4.171c-2.691,0-3.873-1.779-3.873-3.958
				C401.959,384.932,403.425,383.223,405.832,383.223z M405.832,390.085c1.452,0,2.278-1.238,2.278-2.819
				c0-1.779-0.969-2.79-2.278-2.79c-1.452,0-2.277,1.238-2.277,2.848C403.555,389.074,404.522,390.085,405.832,390.085z"/>
			<path d="M413.225,390.1h0.882l0.044-5.638h-0.926v-1.081h3.602c1.808,0,2.392,1.039,2.392,2.049c0,0.898-0.442,1.709-1.837,2.065
				v0.028c0.725,0.201,0.911,0.385,1.636,1.639c0.484,0.811,0.655,0.939,0.926,0.939c0.115,0,0.228-0.029,0.328-0.044v1.125h-0.798
				c-1.054,0-1.181-0.128-2.007-1.764c-0.741-1.453-0.911-1.552-1.481-1.552h-0.314l-0.014,2.235h0.926v1.081h-3.36V390.1H413.225z
				 M415.688,386.784h0.612c0.84,0,1.41-0.456,1.41-1.183c0-0.712-0.356-1.139-1.068-1.139h-0.939L415.688,386.784z"/>
			<path d="M423.495,390.1h0.882l0.044-5.638h-0.926v-1.081h4.001c2.633,0,3.873,1.665,3.873,3.816c0,2.447-1.751,3.985-4.214,3.985
				h-3.659V390.1H423.495z M425.929,390.1h1.068c1.737,0,2.691-1.081,2.691-2.932s-0.926-2.706-2.463-2.706h-1.253L425.929,390.1z"
				/>
			<path d="M448.886,388.449h-0.84v2.462c-0.854,0.314-1.651,0.427-2.704,0.427c-2.89,0-4.186-1.665-4.186-3.915
				c0-2.733,1.709-4.2,4.413-4.2c0.84,0,1.709,0.113,2.478,0.442l0.029,2.021h-1.168l-0.028-1.039
				c-0.371-0.128-0.884-0.172-1.395-0.172c-1.753,0-2.649,1.224-2.649,2.776c0,2.122,1.181,2.919,2.79,2.919
				c0.371,0,0.798-0.071,1.04-0.129v-1.593h-0.982v-1.083h3.203v1.084H448.886z"/>
			<path d="M452.151,390.1h0.882l0.044-5.638h-0.926v-1.081h3.602c1.808,0,2.392,1.039,2.392,2.049c0,0.898-0.442,1.709-1.837,2.065
				v0.028c0.725,0.201,0.911,0.385,1.636,1.639c0.484,0.811,0.655,0.939,0.926,0.939c0.115,0,0.228-0.029,0.328-0.044v1.125H458.4
				c-1.054,0-1.181-0.128-2.007-1.764c-0.741-1.453-0.911-1.552-1.481-1.552H454.6l-0.014,2.235h0.926v1.081h-3.36V390.1H452.151z
				 M454.615,386.784h0.612c0.84,0,1.41-0.456,1.41-1.183c0-0.712-0.356-1.139-1.068-1.139h-0.939L454.615,386.784z"/>
			<path d="M461.866,390.1h0.783l2.79-6.778h1.722l2.606,6.778h0.783v1.081h-3.331V390.1h0.782l-0.541-1.651h-2.633l-0.599,1.651
				h0.783v1.081h-3.146V390.1H461.866z M466.222,384.662h-0.029l-0.982,2.704h1.893L466.222,384.662z"/>
			<path d="M473.673,390.1h0.882l0.044-5.638h-0.926v-1.081h3.488c1.822,0,2.591,0.953,2.591,2.264c0,1.295-0.911,2.42-2.562,2.42
				h-1.068l-0.014,2.036h0.926v1.081h-3.36V390.1H473.673z M476.136,386.981h0.825c0.769,0,1.282-0.442,1.282-1.295
				c0-0.854-0.499-1.225-1.154-1.225h-0.939L476.136,386.981z"/>
			<path d="M483.073,390.1h0.882l0.044-5.638h-0.926v-1.081h5.852l0.071,2.191h-1.154l-0.1-1.11h-2.206l-0.015,2.207h2.235v1.083
				h-2.25l-0.013,2.348h2.22l0.142-1.253h1.253l-0.142,2.334h-5.894V390.1H483.073z"/>
			<path d="M502.6,384.461h-0.882l-0.044,5.012c-0.013,1.95-1.054,3.004-2.648,3.759l-0.612-1.04
				c1.324-0.683,1.694-1.508,1.707-3.031l0.044-4.7h-0.926v-1.081h3.36v1.081H502.6z"/>
			<path d="M506.006,390.1h0.882l0.044-5.638h-0.926v-1.081h5.852l0.071,2.191h-1.154l-0.1-1.11h-2.206l-0.015,2.207h2.235v1.083
				h-2.249l-0.013,2.348h2.22l0.142-1.253h1.253l-0.142,2.334h-5.894L506.006,390.1L506.006,390.1z"/>
			<path d="M515.677,390.1h0.882l0.044-5.638h-0.926v-1.081h3.36v1.081h-0.882l-0.044,5.638h2.222l0.142-1.253h1.253l-0.142,2.334
				h-5.909L515.677,390.1L515.677,390.1z"/>
			<path d="M525.077,390.1h0.882l0.044-5.638h-0.926v-1.081h3.36v1.081h-0.882l-0.044,5.638h2.222l0.142-1.253h1.253l-0.142,2.334
				h-5.909L525.077,390.1L525.077,390.1z"/>
			<path d="M541.469,384.461h-0.74l-2.606,3.488l-0.029,2.151h0.926v1.081h-3.36V390.1h0.882l0.029-2.151l-2.605-3.488h-0.74v-1.081
				h3.402v1.081h-0.74l1.594,2.35l1.651-2.35h-0.882v-1.081h3.217L541.469,384.461L541.469,384.461z"/>
		</g>
		
			<radialGradient id="SVGID_1_" cx="740.9974" cy="-81.759" r="105.6382" gradientTransform="matrix(1 0 0 -1 -291 145)" gradientUnits="userSpaceOnUse">
			<stop  offset="0" style="stop-color:#0F0F0F"/>
			<stop  offset="0.5317" style="stop-color:#0C0C0C"/>
			<stop  offset="0.9204" style="stop-color:#030303"/>
			<stop  offset="1" style="stop-color:#000000"/>
		</radialGradient>
		<path fill="url(#SVGID_1_)" d="M550.64,156.894c0-1.011-0.163-2.016-0.471-2.986c-0.06-0.198-0.141-0.392-0.211-0.587
			c-0.045-0.102-0.074-0.208-0.115-0.308c-0.244-0.593-0.546-1.151-0.891-1.683c-0.015-0.026-0.032-0.057-0.047-0.084
			c-0.116-0.176-0.241-0.337-0.366-0.506c-0.09-0.124-0.183-0.25-0.278-0.371c-0.038-0.045-0.077-0.086-0.118-0.132
			c-1.88-2.261-4.692-3.807-7.968-3.807c-76.57,0-89.582-14.662-89.582-14.662s-13.573,14.662-90.769,14.662
			c-0.843,0-1.649,0.105-2.427,0.282c-4.596,0.741-8.043,3.764-8.043,10.274c0,55.162-14.663,69.865-14.663,69.865
			s14.663,11.314,14.663,69.772c0,1.011,0.163,2.017,0.468,2.986c0.065,0.199,0.14,0.392,0.214,0.586
			c0.038,0.103,0.071,0.209,0.115,0.311c0.244,0.59,0.546,1.15,0.889,1.681c0.014,0.026,0.035,0.057,0.051,0.084
			c0.116,0.173,0.237,0.337,0.363,0.504c0.093,0.125,0.182,0.25,0.276,0.371c0.039,0.047,0.081,0.087,0.118,0.132
			c1.888,2.263,4.695,3.807,7.972,3.807c76.57,0,89.578,14.665,89.578,14.665s13.574-14.665,90.774-14.665
			c0.84,0,1.648-0.102,2.422-0.28c4.593-0.74,8.045-3.761,8.045-10.271c0-55.164,14.665-69.868,14.665-69.868
			S550.64,215.353,550.64,156.894z M492.884,201.185v21.117c0,10.384,0,10.418-10.278,10.418H472.12v-8.485h11.962
			c0.49,0,0.894-0.4,0.894-0.889v-23.713c0-0.49-0.404-0.889-0.894-0.889h-68.699c-0.487,0-0.889,0.4-0.889,0.889v4.155h-8.038
			V192.46c0-1.128,0.564-1.693,1.691-1.693h74.457C492.884,190.767,492.884,190.767,492.884,201.185z M439.484,215.358
			c-0.491,0-0.892,0.403-0.892,0.891v4.394h-8.036v-5.304v-6.263c0-1.125,0.564-1.689,1.691-1.689h49.13v7.971H439.484z
			 M468.524,218.645v18.614h-7.795v-18.614H468.524z M415.383,224.235h41.752v8.485h-40.93c-0.475,0-0.875,0.15-1.203,0.446
			c-0.326,0.299-0.488,0.683-0.488,1.155v2.486h-8.058v-17.871h8.038v4.409C414.494,223.835,414.897,224.235,415.383,224.235z
			 M382.359,184.568c0-10.348-0.058-10.416,10.41-10.416h74.062c1.129,0,1.693,0.564,1.693,1.693v4.766
			c0,0.477-0.163,0.862-0.491,1.157c-0.326,0.296-0.725,0.446-1.202,0.446h-75.078c-0.478,0-0.859,0.163-1.154,0.488
			c-0.297,0.327-0.448,0.728-0.448,1.203v21.786c0,0.475,0.151,0.876,0.448,1.202c0.295,0.328,0.676,0.488,1.154,0.488h35.422
			c-0.125,0.539-0.215,1.099-0.215,1.694v6.263h-34.192c-10.41,0-10.41,0-10.41-10.326v-20.444H382.359z M414.514,263.761
			c0,1.13-0.568,1.693-1.69,1.693h-4.676c-1.128,0-1.691-0.562-1.691-1.693V252.89h8.058v10.871H414.514z M426.961,248.834h-42.909
			c-1.131,0-1.693-0.561-1.693-1.688v-4.592c0-0.474,0.164-0.875,0.488-1.2c0.327-0.326,0.725-0.491,1.205-0.491h42.909V248.834z
			 M518.874,281.672c-0.174,0.267-0.506,0.4-0.977,0.4h-6.737c-0.477,0-0.949-0.132-1.424-0.4c-0.475-0.269-0.834-0.609-1.07-1.026
			l-9.435-30.989c-0.124-0.237-0.328-0.352-0.622-0.352h-59.593c-0.299,0-0.449,0.151-0.449,0.442v30.631
			c0,1.129-0.561,1.693-1.693,1.693h-4.627c-1.128,0-1.691-0.564-1.691-1.693v-44.062h8.036v3.645c0,0.491,0.401,0.894,0.892,0.894
			h68.699c0.491,0,0.892-0.403,0.892-0.894v-23.713c0-0.488-0.401-0.891-0.892-0.891h-11.705v-7.971h9.934
			c10.505,0,10.416,0,10.416,10.416v21.372c0,5.721-2.229,8.014-7.123,9.791l-0.266,0.092c-0.416,0.119-0.504,0.298-0.267,0.533
			l0.09,0.179l9.528,30.876C519.023,281.063,519.054,281.403,518.874,281.672z"/>
	</g>
</g>
<g id="Layer_2">
</g>
</svg>
