<?xml version="1.0" encoding="utf-8"?>
<!-- Generator: Adobe Illustrator 17.0.2, SVG Export Plug-In . SVG Version: 6.00 Build 0)  -->
<!DOCTYPE svg PUBLIC "-//W3C//DTD SVG 1.1//EN" "http://www.w3.org/Graphics/SVG/1.1/DTD/svg11.dtd">
<svg version="1.1" id="Layer_1" xmlns="http://www.w3.org/2000/svg" xmlns:xlink="http://www.w3.org/1999/xlink" x="0px" y="0px"
	 width="900px" height="485px" viewBox="0 40 900 485" enable-background="new 0 40 900 485" xml:space="preserve">
<g id="Layer_1_1_">
	<g>
		<g>
			<path fill="#74CBC8" d="M618.681,207.771c-0.531-0.532-1.313-0.69-2.012-0.387c-0.452,0.189-0.796,0.54-0.971,0.985
				c-0.185,0.47-0.185,0.958,0.009,1.407c0.383,0.927,1.49,1.362,2.409,0.971c0.439-0.189,0.791-0.532,0.976-0.988
				c0.189-0.452,0.171-0.958-0.018-1.402C618.976,208.131,618.843,207.933,618.681,207.771z"/>
			<path fill="#74CBC8" d="M635.926,252.924c-24.185,10.231-52.181-1.121-62.395-25.311c-10.226-24.181,1.121-52.186,25.302-62.404
				c24.19-10.235,52.177,1.117,62.413,25.306C671.474,214.697,660.122,242.698,635.926,252.924z M634.713,250.033
				c22.595-9.546,33.199-35.705,23.645-58.286c-9.55-22.603-35.714-33.213-58.299-23.658c-22.599,9.559-33.199,35.717-23.64,58.304
				C585.969,248.987,612.124,259.592,634.713,250.033z"/>
			<path fill="#74CBC8" d="M656.61,192.467c-2.162-5.09-5.212-9.633-9.098-13.515c-12.323-12.328-30.668-15.892-46.715-9.114
				c-21.623,9.154-31.776,34.188-22.63,55.815c2.158,5.099,5.217,9.638,9.075,13.514c12.346,12.332,30.668,15.918,46.731,9.125
				c10.468-4.439,18.595-12.68,22.872-23.218C661.119,214.521,661.043,202.958,656.61,192.467z M658.218,202.54l-21.377,5.801
				l-8.482-2.25l6.175-6.218l21.372-5.784C656.974,196.849,657.757,199.688,658.218,202.54z M619.09,213.093
				c-1.644,0.703-3.542,0.339-4.799-0.945c-0.392-0.391-0.703-0.857-0.936-1.38c-0.461-1.068-0.461-2.268-0.027-3.345
				c0.436-1.094,1.279-1.938,2.342-2.391c1.661-0.69,3.542-0.334,4.813,0.936c0.4,0.4,0.717,0.857,0.936,1.389
				c0.452,1.085,0.466,2.259,0.027,3.344C621.002,211.788,620.171,212.645,619.09,213.093z M619.424,218.894l-1.881,7.09
				l-1.92-7.072l0.979-0.994c0.316,0.176,0.519,0.51,0.475,0.884c0.237,0.023,0.478,0.027,0.712,0
				c-0.044-0.418,0.212-0.787,0.589-0.936L619.424,218.894z M612.198,201.811l-1.301-0.342l-1.917-7.084l5.203,5.164l-0.378,1.433
				c-0.427,0.11-0.879-0.079-1.072-0.492c-0.216,0.115-0.422,0.237-0.611,0.356C612.334,201.135,612.352,201.504,612.198,201.811z
				 M610.247,203.837c-0.303,0.317-0.791,0.383-1.173,0.128c-0.11,0.207-0.233,0.409-0.348,0.616
				c0.348,0.15,0.545,0.496,0.545,0.849l-1.283,0.351l-5.204-5.173l7.102,1.872L610.247,203.837z M608.578,208.126
				c-0.115,0.404-0.492,0.712-0.941,0.655c0,0.246,0,0.478,0,0.72c0.404-0.044,0.765,0.185,0.918,0.532l-0.918,0.923l-7.102-1.868
				l7.084-1.92L608.578,208.126z M608.006,212.35l1.283,0.348c0.079,0.404-0.11,0.817-0.501,0.993
				c0.11,0.215,0.233,0.422,0.36,0.616c0.343-0.242,0.796-0.212,1.112,0.039l-0.352,1.292l-7.081,1.921L608.006,212.35z
				 M610.937,216.649l1.297-0.365c0.224,0.321,0.246,0.747,0.009,1.076c0.215,0.119,0.413,0.242,0.628,0.352
				c0.167-0.392,0.584-0.581,0.997-0.514l0.36,1.336l-5.173,5.203L610.937,216.649z M615.565,199.178l1.881-7.099l1.917,7.099
				l-1.089,1.099c-0.391-0.141-0.685-0.531-0.642-0.949c-0.219-0.018-0.452-0.018-0.685,0c0.035,0.334-0.127,0.651-0.395,0.84
				L615.565,199.178z M625.603,203.811L625.603,203.811c-0.272,0.219-0.628,0.25-0.932,0.119l0.391-1.49l7.085-1.912l-5.182,5.203
				l-1.555-0.413c-0.009-0.377,0.194-0.738,0.558-0.888C625.867,204.22,625.735,204.013,625.603,203.811z M624.051,201.433
				l-1.547,0.413c-0.233-0.307-0.268-0.756-0.014-1.086c-0.203-0.132-0.413-0.242-0.62-0.347c-0.136,0.321-0.427,0.496-0.738,0.545
				l-0.387-1.411l5.182-5.217L624.051,201.433z M621.173,217.123c0.342,0,0.667,0.198,0.831,0.54c0.207-0.106,0.4-0.224,0.62-0.351
				c-0.259-0.334-0.242-0.769-0.009-1.09l1.477,0.386l1.917,7.094l-5.204-5.186L621.173,217.123z M624.706,214.125
				c0.29-0.145,0.669-0.136,0.967,0.074c0.118-0.212,0.245-0.418,0.342-0.625c-0.342-0.145-0.549-0.501-0.549-0.87l1.525-0.409
				l5.204,5.182l-7.099-1.876L624.706,214.125z M626.227,209.78c0.194-0.29,0.536-0.47,0.906-0.431c0.005-0.233,0.005-0.47,0-0.699
				c-0.369,0.053-0.712-0.136-0.897-0.422l1.108-1.112l7.088,1.881l-7.072,1.926L626.227,209.78z M655.441,192.924l-19.148,5.186
				l13.993-14.077C652.363,186.754,654.091,189.734,655.441,192.924z M646.629,179.832c1.029,1.024,1.982,2.101,2.891,3.221
				l-15.629,15.708l-8.461,2.298l2.246-8.477l15.637-15.721C644.453,177.784,645.573,178.773,646.629,179.832z M642.326,176.087
				l-14.007,14.081l5.094-19.236C636.547,172.259,639.544,173.978,642.326,176.087z M632.253,170.462l-5.692,21.465l-6.188,6.232
				l-2.285-8.477l5.683-21.495C626.667,168.63,629.514,169.394,632.253,170.462z M622.535,168.014l-5.108,19.272l-5.212-19.254
				C615.67,167.583,619.134,167.578,622.535,168.014z M610.973,168.211l5.819,21.474l-2.245,8.482l-6.223-6.188l-5.819-21.487
				C605.281,169.412,608.128,168.66,610.973,168.211z M601.268,170.989c0.035-0.009,0.053-0.026,0.074-0.03l5.221,19.268
				l-14.169-14.086C595.071,174.101,598.038,172.352,601.268,170.989z M587.526,180.496l0.448,0.427l0.171-0.162l1.551,1.555
				l0.097-0.088l1.424,1.415l0.141-0.141l0.458,0.448l0.212-0.198l-0.461-0.452l0.136-0.15l-1.415-1.42l0.074-0.097l-1.555-1.542
				l0.171-0.18l-0.436-0.439c0.909-0.897,1.867-1.745,2.87-2.563l15.805,15.73l2.294,8.464l-8.491-2.241l-15.817-15.738
				C585.943,182.21,586.726,181.339,587.526,180.496z M584.449,184.126l14.178,14.095l-19.346-5.124
				C580.616,189.919,582.348,186.89,584.449,184.126z M578.823,194.252l21.562,5.713l6.223,6.184l-8.477,2.307l-21.566-5.718
				l-0.053,0.219C576.964,199.965,577.746,197.065,578.823,194.252z M576.375,203.973l19.36,5.124l-19.342,5.235
				C575.94,210.86,575.949,207.383,576.375,203.973z M576.564,215.576l21.575-5.84l8.477,2.25l-6.188,6.218l-21.536,5.837
				l0.062,0.224C577.825,221.416,577.03,218.49,576.564,215.576z M579.324,225.223l19.351-5.247l-14.13,14.204
				C582.445,231.438,580.695,228.444,579.324,225.223z M588.128,238.294c-0.985-0.993-1.929-2.044-2.817-3.124l15.765-15.853
				l8.477-2.298l-2.25,8.486l-15.729,15.821l0.207,0.216C590.514,240.543,589.301,239.466,588.128,238.294z M592.544,242.117
				l14.125-14.213l-5.124,19.369C598.372,245.963,595.357,244.235,592.544,242.117z M602.701,247.738l5.709-21.596l6.197-6.223
				l2.294,8.473l-5.713,21.571l0.083,0.018C608.34,249.553,605.474,248.798,602.701,247.738z M612.418,250.146l5.138-19.365
				l5.217,19.29C619.318,250.524,615.829,250.559,612.418,250.146z M624.004,249.874l-5.814-21.492l2.245-8.482l6.215,6.197
				l5.819,21.451C629.69,248.639,626.856,249.412,624.004,249.874z M633.619,247.079l-5.204-19.236l14.117,14.042
				C639.83,243.954,636.841,245.708,633.619,247.079z M643.508,241.111l-15.743-15.659l-2.289-8.473l8.491,2.25l15.734,15.655
				C647.864,237.177,645.797,239.26,643.508,241.111z M650.461,233.889l-14.099-14.021l19.175,5.072
				C654.21,228.163,652.5,231.16,650.461,233.889z M656.003,223.79l-21.399-5.674l-6.232-6.193l8.468-2.298l21.416,5.683
				C657.814,218.169,657.053,221.017,656.003,223.79z M639.232,208.984l19.157-5.191c0.448,3.406,0.457,6.848,0.026,10.27
				L639.232,208.984z"/>
			<path fill="#74CBC8" d="M505.793,207.238c-0.752,0-1.407,0.443-1.701,1.142c-0.171,0.457-0.171,0.945,0.018,1.398
				c0.185,0.448,0.528,0.791,0.993,0.979c0.923,0.383,2.014-0.092,2.391-1.011c0.18-0.452,0.18-0.949-0.004-1.393
				c-0.198-0.457-0.549-0.8-0.997-0.988C506.258,207.274,506.025,207.238,505.793,207.238z"/>
			<path fill="#74CBC8" d="M549.913,226.972c-9.862,24.326-37.682,36.095-62.012,26.22c-24.321-9.866-36.109-37.695-26.238-62.017
				c9.88-24.339,37.691-36.104,62.03-26.238C548.024,174.809,559.789,202.628,549.913,226.972z M547.022,225.781
				c9.212-22.731-1.775-48.713-24.519-57.938c-22.717-9.212-48.709,1.775-57.93,24.501c-9.217,22.735,1.775,48.727,24.506,57.943
				C511.805,259.508,537.801,248.517,547.022,225.781z"/>
			<path fill="#74CBC8" d="M521.795,169.618c-5.129-2.092-10.508-3.147-15.985-3.147c-17.435,0-32.922,10.438-39.48,26.594
				c-8.825,21.755,1.705,46.639,23.46,55.464c5.129,2.07,10.504,3.129,15.985,3.142c17.43-0.014,32.94-10.45,39.489-26.598
				c4.262-10.539,4.184-22.115-0.246-32.597C540.578,182.003,532.343,173.877,521.795,169.618z M530.057,175.587l-11.019,19.206
				l-7.586,4.412l-0.032-8.768l11.023-19.201C525.161,172.427,527.706,173.881,530.057,175.587z M509.84,210.71
				c-0.66,1.648-2.259,2.734-4.047,2.734c-0.572,0-1.112-0.11-1.631-0.321c-1.09-0.436-1.943-1.288-2.4-2.356
				c-0.466-1.073-0.466-2.254-0.027-3.345c0.676-1.661,2.268-2.725,4.056-2.738c0.566,0.013,1.121,0.101,1.648,0.325
				c1.08,0.452,1.925,1.274,2.382,2.347C510.279,208.443,510.297,209.625,509.84,210.71z M514.183,214.579l3.683,6.346l-6.364-3.652
				v-1.393c0.348-0.106,0.729,0.009,0.967,0.281c0.176-0.15,0.356-0.312,0.501-0.487c-0.325-0.263-0.409-0.712-0.247-1.094H514.183z
				 M497.003,207.612l-1.173,0.664l-6.364-3.648l7.339-0.03l0.738,1.292c-0.216,0.369-0.676,0.558-1.099,0.395
				c-0.079,0.228-0.127,0.457-0.185,0.694C496.611,207.028,496.893,207.283,497.003,207.612z M497.051,210.412
				c0,0.448-0.286,0.831-0.734,0.932c0.057,0.219,0.11,0.443,0.189,0.664c0.339-0.127,0.729-0.032,0.976,0.228l-0.642,1.156
				l-7.339,0.018l6.329-3.696L497.051,210.412z M498.906,214.622c0.203,0.391,0.132,0.861-0.203,1.142
				c0.171,0.171,0.334,0.334,0.51,0.492c0.246-0.307,0.669-0.4,1.029-0.259v1.315l-6.351,3.683l3.652-6.373H498.906z
				 M501.486,218.015l1.151-0.663c0.339,0.242,0.496,0.663,0.351,1.064c0.228,0.07,0.461,0.127,0.672,0.189
				c0.083-0.436,0.431-0.717,0.835-0.761l0.667,1.147l-3.657,6.377L501.486,218.015z M506.597,218.991l0.667-1.165
				c0.374,0.057,0.694,0.343,0.769,0.734c0.233-0.048,0.452-0.115,0.676-0.18c-0.145-0.409,0.009-0.84,0.356-1.073l1.195,0.69
				l0.027,7.335L506.597,218.991z M497.517,203.363l-3.696-6.347l6.377,3.652l0.009,1.552c-0.387,0.189-0.84,0.115-1.121-0.228
				c-0.171,0.154-0.339,0.316-0.496,0.496c0.272,0.221,0.378,0.554,0.325,0.875L497.517,203.363L497.517,203.363z M507.898,199.548
				L507.898,199.548c-0.039,0.343-0.281,0.611-0.584,0.729l-0.778-1.322l3.657-6.359l0.027,7.33l-1.398,0.814
				c-0.277-0.251-0.396-0.66-0.228-1.024C508.359,199.644,508.135,199.587,507.898,199.548z M505.102,198.954l-0.8,1.393
				c-0.383-0.062-0.712-0.352-0.769-0.765c-0.242,0.062-0.461,0.115-0.685,0.198c0.127,0.307,0.057,0.651-0.145,0.902l-1.27-0.721
				l-0.009-7.348L505.102,198.954z M514.174,212.087c0.237-0.251,0.616-0.339,0.967-0.194c0.079-0.237,0.124-0.457,0.185-0.699
				c-0.413-0.053-0.708-0.374-0.778-0.756l1.322-0.773l6.364,3.66l-7.344,0.014L514.174,212.087z M514.547,207.476
				c0.101-0.325,0.378-0.58,0.738-0.651c-0.065-0.228-0.127-0.457-0.194-0.676c-0.356,0.145-0.752,0.044-1.006-0.224l0.791-1.362
				l7.335-0.023l-6.342,3.687L514.547,207.476z M512.565,203.318c-0.079-0.334,0.036-0.717,0.321-0.941
				c-0.153-0.176-0.321-0.342-0.496-0.496c-0.219,0.29-0.593,0.413-0.927,0.339v-1.573l6.351-3.701l-3.666,6.373L512.565,203.318
				L512.565,203.318z M521.298,170.734l-9.875,17.219l-0.053-19.856C514.753,168.563,518.08,169.438,521.298,170.734z
				 M505.81,167.719c1.446,0,2.873,0.079,4.312,0.224l0.053,22.164l-4.36,7.603l-4.404-7.581l-0.061-22.168
				C502.817,167.807,504.303,167.719,505.81,167.719z M500.118,168.111l0.053,19.856l-10.011-17.202
				C493.316,169.477,496.655,168.598,500.118,168.111z M489.008,171.253l11.163,19.206l0.027,8.772l-7.621-4.368l-11.176-19.219
				C483.769,173.916,486.318,172.444,489.008,171.253z M480.398,176.395l10.02,17.241l-17.294-9.928
				C475.252,180.957,477.705,178.496,480.398,176.395z M472.369,184.702l19.312,11.071l4.404,7.598l-8.768,0.027l-19.321-11.084
				C469.205,189.589,470.664,187.053,472.369,184.702z M467.477,193.531c0.009-0.018,0.022-0.044,0.03-0.062l17.316,9.928
				l-19.997,0.057C465.285,200.123,466.173,196.788,467.477,193.531z M464.475,209.964h0.625l0.009-0.242h2.189l0.013-0.124
				l2.005-0.014v-0.198l0.655,0.009l-0.009-0.299l-0.646,0.009v-0.198h-2.017l-0.004-0.136h-2.193v-0.242l-0.629,0.009
				c0.022-1.279,0.083-2.554,0.219-3.841l22.287-0.056l7.616,4.368l-7.581,4.404l-22.309,0.065
				C464.572,212.311,464.51,211.142,464.475,209.964z M464.863,214.711l19.997-0.048l-17.29,10.046
				C466.252,221.518,465.336,218.156,464.863,214.711z M468.062,225.86l19.285-11.203l8.763-0.021l-4.364,7.607l-19.294,11.211
				l0.118,0.194C470.778,231.222,469.284,228.603,468.062,225.86z M473.195,234.461l17.316-10.055l-9.986,17.378
				C477.758,239.643,475.313,237.177,473.195,234.461z M481.546,242.53l11.11-19.386l7.586-4.404l0.026,8.777l-11.093,19.355
				l0.198,0.119C486.556,245.769,483.937,244.274,481.546,242.53z M490.3,247.396l9.986-17.391l0.053,20.041
				C496.911,249.593,493.552,248.718,490.3,247.396z M505.784,250.419c-1.411,0-2.817-0.079-4.215-0.219l-0.053-22.357l4.368-7.616
				l4.412,7.604l0.053,22.309h0.307C509.045,250.318,507.423,250.419,505.784,250.419z M511.599,250.01l-0.062-20.041l10.073,17.325
				C518.436,248.595,515.079,249.514,511.599,250.01z M522.752,246.802l-11.225-19.316l-0.027-8.781l7.607,4.368l11.216,19.298
				l0.083-0.039C528.022,244.087,525.46,245.58,522.752,246.802z M531.322,241.63l-10.046-17.321l17.325,9.937
				C536.487,237.019,534.039,239.498,531.322,241.63z M539.339,233.243l-19.321-11.089l-4.404-7.581l8.777-0.018l19.281,11.049
				C542.494,228.344,541.035,230.883,539.339,233.243z M544.161,224.459l-17.286-9.911l19.918-0.065
				C546.336,217.865,545.456,221.219,544.161,224.459z M546.934,213.247l-22.221,0.065l-7.604-4.368l7.595-4.409l22.186-0.065
				C547.232,207.388,547.232,210.328,546.934,213.247z M546.727,203.235l-19.888,0.053l17.167-9.972
				C545.338,196.532,546.248,199.864,546.727,203.235z M543.506,192.178l-19.144,11.111l-8.781,0.03l4.368-7.612l19.157-11.132
				C540.82,186.913,542.284,189.461,543.506,192.178z M521.188,193.549l9.871-17.206c2.729,2.101,5.177,4.522,7.287,7.238
				L521.188,193.549z"/>
			<path fill="#74CBC8" d="M392.908,207.771c-0.528,0.531-0.685,1.318-0.387,2.009c0.189,0.448,0.537,0.8,0.988,0.979
				c0.461,0.185,0.962,0.185,1.407,0c0.927-0.386,1.367-1.499,0.98-2.404c-0.194-0.457-0.554-0.8-1.002-0.993
				c-0.457-0.176-0.95-0.171-1.398,0.023C393.269,207.476,393.066,207.612,392.908,207.771z"/>
			<path fill="#74CBC8" d="M438.062,190.524c10.231,24.182-1.126,52.172-25.315,62.4c-24.173,10.231-52.168-1.13-62.4-25.311
				c-10.231-24.181,1.126-52.168,25.306-62.404C399.844,154.983,427.831,166.344,438.062,190.524z M435.178,191.747
				c-9.555-22.603-35.713-33.213-58.303-23.658c-22.586,9.559-33.19,35.717-23.627,58.312c9.541,22.586,35.696,33.19,58.286,23.631
				C434.125,240.487,444.734,214.328,435.178,191.747z"/>
			<path fill="#74CBC8" d="M377.614,169.855c-5.099,2.144-9.642,5.212-13.528,9.098c-12.328,12.311-15.883,30.647-9.102,46.701
				c9.146,21.619,34.184,31.789,55.808,22.639c5.103-2.158,9.642-5.226,13.523-9.08c12.323-12.337,15.901-30.682,9.119-46.736
				c-4.444-10.473-12.679-18.595-23.227-22.858C399.667,165.338,388.1,165.416,377.614,169.855z M387.683,168.247l5.807,21.368
				l-2.25,8.477l-6.232-6.179l-5.775-21.363C381.995,169.477,384.822,168.708,387.683,168.247z M398.234,207.362
				c0.694,1.657,0.33,3.546-0.94,4.804c-0.404,0.395-0.861,0.708-1.389,0.927c-1.064,0.461-2.259,0.461-3.35,0.03
				c-1.085-0.427-1.929-1.265-2.391-2.347c-0.694-1.652-0.316-3.538,0.944-4.808c0.392-0.395,0.861-0.717,1.393-0.936
				c1.073-0.448,2.263-0.461,3.35-0.023C396.934,205.463,397.777,206.285,398.234,207.362z M404.036,207.041l7.094,1.872
				l-7.081,1.925l-0.994-0.984c0.163-0.312,0.523-0.519,0.893-0.487c0.018-0.228,0.018-0.475,0-0.699
				c-0.418,0.035-0.791-0.212-0.953-0.598L404.036,207.041z M386.953,214.258l-0.347,1.297l-7.089,1.925l5.177-5.204l1.442,0.378
				c0.092,0.422-0.101,0.875-0.514,1.068c0.119,0.194,0.237,0.404,0.36,0.607C386.276,214.116,386.646,214.095,386.953,214.258z
				 M388.979,216.2c0.307,0.304,0.391,0.8,0.124,1.177c0.21,0.11,0.413,0.242,0.619,0.348c0.154-0.343,0.487-0.554,0.853-0.54
				l0.347,1.279l-5.182,5.2l1.885-7.098L388.979,216.2z M393.251,217.865c0.427,0.132,0.721,0.514,0.676,0.958
				c0.246,0,0.475,0,0.712-0.023c-0.039-0.386,0.185-0.747,0.537-0.905l0.932,0.923l-1.881,7.103l-1.925-7.085L393.251,217.865z
				 M397.497,218.442l0.334-1.283c0.413-0.074,0.826,0.115,1.002,0.496c0.215-0.097,0.413-0.233,0.607-0.343
				c-0.237-0.351-0.21-0.809,0.044-1.117l1.301,0.334l1.92,7.09L397.497,218.442z M401.786,215.514l-0.356-1.297
				c0.312-0.224,0.738-0.251,1.073-0.018c0.127-0.207,0.242-0.4,0.356-0.611c-0.395-0.18-0.598-0.602-0.519-1.002l1.336-0.369
				l5.212,5.186L401.786,215.514z M384.321,210.891l-7.094-1.881l7.085-1.926l1.099,1.099c-0.132,0.404-0.527,0.672-0.958,0.633
				c-0.009,0.228-0.009,0.457,0.009,0.699c0.343-0.048,0.66,0.118,0.844,0.377L384.321,210.891z M388.961,200.844L388.961,200.844
				c0.219,0.272,0.237,0.642,0.106,0.941l-1.495-0.383l-1.917-7.09l5.212,5.173l-0.409,1.552c-0.378,0.023-0.738-0.194-0.888-0.549
				C389.362,200.593,389.155,200.725,388.961,200.844z M386.571,202.409l0.418,1.542c-0.321,0.242-0.76,0.26-1.094,0.014
				c-0.124,0.207-0.237,0.4-0.339,0.616c0.312,0.127,0.505,0.418,0.549,0.738l-1.424,0.383l-5.212-5.173L386.571,202.409z
				 M402.26,205.274c0-0.339,0.207-0.676,0.545-0.822c-0.115-0.207-0.228-0.404-0.352-0.616c-0.342,0.251-0.769,0.237-1.089,0.005
				l0.395-1.481l7.085-1.92l-5.186,5.203L402.26,205.274z M399.277,201.745c-0.162-0.304-0.154-0.667,0.057-0.971
				c-0.203-0.119-0.409-0.237-0.611-0.343c-0.158,0.369-0.51,0.575-0.875,0.549l-0.413-1.516l5.177-5.2l-1.872,7.09L399.277,201.745
				z M394.934,200.216c-0.303-0.185-0.487-0.519-0.434-0.888c-0.242,0-0.475,0-0.703,0c0.044,0.36-0.141,0.703-0.427,0.888
				l-1.112-1.103l1.872-7.098l1.917,7.085L394.934,200.216z M378.062,171.007l5.195,19.153l-14.081-13.998
				C371.901,174.101,374.871,172.373,378.062,171.007z M364.983,179.823c1.02-1.02,2.097-1.987,3.209-2.887l15.712,15.624
				l2.289,8.464l-8.482-2.254l-15.717-15.633C362.917,181.99,363.911,180.878,364.983,179.823z M361.23,184.13l14.081,14.007
				l-19.241-5.094C357.388,189.896,359.119,186.908,361.23,184.13z M355.595,194.199l21.483,5.692l6.223,6.193l-8.473,2.285
				l-21.504-5.692C353.775,199.781,354.536,196.941,355.595,194.199z M353.152,203.92l19.277,5.108l-19.25,5.203
				C352.73,210.781,352.73,207.314,353.152,203.92z M353.344,215.475l21.483-5.81l8.482,2.245l-6.193,6.211l-21.478,5.823
				C354.567,221.176,353.811,218.322,353.344,215.475z M356.131,225.179c-0.018-0.023-0.027-0.053-0.035-0.061l19.28-5.226
				l-14.099,14.174C359.243,231.384,357.494,228.414,356.131,225.179z M365.633,238.918l0.44-0.436l-0.171-0.171l1.546-1.56
				l-0.083-0.097l1.424-1.419l-0.154-0.145l0.461-0.466l-0.21-0.198l-0.448,0.457l-0.15-0.136l-1.425,1.424l-0.092-0.079
				l-1.546,1.552l-0.171-0.18l-0.44,0.452c-0.888-0.923-1.74-1.867-2.557-2.875l15.72-15.805l8.465-2.294l-2.245,8.482
				l-15.734,15.818C367.356,240.513,366.486,239.735,365.633,238.918z M369.255,242.008l14.099-14.178l-5.115,19.337
				C375.043,245.836,372.032,244.099,369.255,242.008z M379.393,247.629l5.718-21.553l6.184-6.227l2.298,8.468l-5.713,21.557
				l0.21,0.071C385.112,249.479,382.203,248.718,379.393,247.629z M389.102,250.081l5.138-19.36l5.234,19.351
				C396.002,250.515,392.521,250.499,389.102,250.081z M400.714,249.896l-5.836-21.58l2.241-8.477l6.227,6.179l5.84,21.539
				l0.216-0.062C406.542,248.63,403.649,249.421,400.714,249.896z M410.356,247.132l-5.239-19.351l14.205,14.13
				C416.588,244.002,413.582,245.756,410.356,247.132z M423.431,238.324c-0.997,0.993-2.035,1.926-3.121,2.817l-15.852-15.774
				l-2.298-8.464l8.495,2.241l15.813,15.738l0.207-0.212C425.681,235.929,424.6,237.163,423.431,238.324z M427.259,233.912
				l-14.21-14.121l19.364,5.12C431.083,228.084,429.377,231.117,427.259,233.912z M432.875,223.755l-21.596-5.727l-6.211-6.193
				l8.456-2.294l21.575,5.727l0.021-0.083C434.686,218.116,433.936,220.982,432.875,223.755z M435.284,214.024l-19.355-5.115
				l19.285-5.239C435.671,207.138,435.702,210.614,435.284,214.024z M435.03,202.439l-21.504,5.828l-8.477-2.254l6.188-6.214
				l21.451-5.81C433.777,196.752,434.555,199.587,435.03,202.439z M432.213,192.828l-19.219,5.212l14.037-14.125
				C429.092,186.622,430.842,189.615,432.213,192.828z M426.248,182.935l-15.655,15.738l-8.473,2.303l2.247-8.482l15.65-15.743
				C422.319,178.588,424.398,180.658,426.248,182.935z M419.032,176l-14.028,14.095l5.085-19.184
				C413.31,172.246,416.298,173.96,419.032,176z M408.932,170.453l-5.687,21.399l-6.179,6.232l-2.294-8.468l5.669-21.416
				C403.316,168.63,406.159,169.394,408.932,170.453z M394.122,187.224l-5.195-19.157c3.415-0.448,6.86-0.47,10.275-0.039
				L394.122,187.224z"/>
			<path fill="#74CBC8" d="M282.612,161.452c-26.255,0-47.619,21.35-47.619,47.615c0,26.259,21.363,47.619,47.619,47.619
				c26.256,0,47.615-21.359,47.615-47.619C330.227,182.803,308.868,161.452,282.612,161.452z M319.873,215.004
				c-2.365,1.788-5.327,2.303-7.787,3.908c-2.519,1.657-4.553,3.858-6.382,6.244c-1.213,1.608-3.129,1.797-4.615,1.174
				c-1.539,3.05-3.288,5.964-5.27,8.733c-0.514,0.669-0.988,1.2-1.692,1.336c-0.902,0.162-5.881,0.814-14.063,0.814
				c-8.75,0-12.217-0.461-13.466-0.576c-0.747-0.065-2.039-0.263-2.229-0.29c-0.738-0.127-1.525-1.424-1.546-1.463
				c-7.907-11.181-12.539-24.831-12.539-39.567c0-1.235-0.083-4.14-0.083-4.391c0-0.805,0.667-1.301,1.463-1.463
				c0.528-0.106,13.871-1.407,27.899-1.407c13.089,0,26.695,1.301,27.196,1.407c0.787,0.171,1.468,0.66,1.468,1.463
				c0,0.115,0.079,3.024,0.079,4.391c0,0.478-0.009,0.927-0.018,1.402c1.463-0.532,3.032-0.814,4.642-0.76
				c3.858,0.11,8.561,1.745,10.293,5.554C325.384,206.255,324.071,211.806,319.873,215.004z"/>
			<path fill="#74CBC8" d="M313.474,203.064c-2.443-0.079-4.197,0.633-5.56,2.69c-1.089,1.788-1.49,6.17-2.325,9.08
				c1.38-1.209,2.882-2.238,4.54-2.953c2.795-1.213,7.436-2.201,7.111-6.149C317.096,203.982,315.004,203.108,313.474,203.064z"/>
		</g>
		<g>
			<g>
				<path fill="#74CBC8" d="M399.615,300.934h-72.02c-0.726,0-1.297-0.58-1.297-1.306s0.571-1.31,1.297-1.31h72.02
					c0.72,0,1.315,0.584,1.315,1.31S400.336,300.934,399.615,300.934z"/>
				<path fill="#74CBC8" d="M572.416,300.934h-72.033c-0.72,0-1.297-0.58-1.297-1.306s0.576-1.31,1.297-1.31h72.033
					c0.72,0,1.301,0.584,1.301,1.31S573.136,300.934,572.416,300.934z"/>
			</g>
		</g>
		<g>
			<path fill="#222222" d="M237.521,369.399c0-17.676,11.567-32.025,25.684-32.025c9.871,0,13.73,4.935,14.741,9.502l4.861-8.491
				h6.162l-5.168,19.047h-9.409c1.002-7.243-1.543-13.422-9.335-13.422c-8.1,0-12.724,6.865-15.502,16.499
				c-1.011,3.402-1.617,7.274-1.617,9.968c0,9.019,3.858,13.717,12.104,13.717c7.48,0,11.567-4.926,14.499-12.965l6.707,2.245
				c-3.301,10.881-10.948,17.122-21.979,17.122C245.317,390.596,237.521,381.894,237.521,369.399z"/>
			<path fill="#222222" d="M285.882,373.474c0-12.178,8.403-22.454,21.126-22.454c10.886,0,18.209,6.271,18.209,16.903
				c0,12.266-8.565,22.673-21.285,22.673C293.2,390.596,285.882,384.127,285.882,373.474z M315.347,365.303
				c0-4.795-2.852-8.17-7.709-8.17c-7.875,0-11.884,12.174-11.884,18.968c0,4.861,2.628,8.408,7.787,8.408
				C311.566,384.509,315.347,372.172,315.347,365.303z"/>
			<path fill="#222222" d="M330.857,352.035h5.849l1.318-4.781c1.772-6.562,5.168-10.719,12.42-10.719
				c3.239,0,6.087,0.452,8.781,2.241l-1.455,5.397c-0.848-0.545-2.694-1.011-4.166-1.011c-3.626,0-5.164,1.454-6.245,6.786
				l-0.545,2.088h11.804l1.31-4.781c1.776-6.562,5.159-10.719,12.42-10.719c3.244,0,6.091,0.452,8.786,2.241l-1.454,5.397
				c-0.853-0.545-2.708-1.011-4.167-1.011c-3.622,0-5.168,1.454-6.25,6.786l-0.554,2.088h6.952l-1.539,5.784h-6.865l-9.107,33.783
				c-2.005,7.181-5.002,11.954-13.347,11.954c-2.074,0-5.011-0.224-7.709-2.074l1.384-5.314c0.932,0.523,2.628,0.902,4.096,0.902
				c3.775,0,4.469-1.908,5.863-6.869l8.632-32.382H345.35l-9.107,33.783c-2,7.181-5.006,11.954-13.339,11.954
				c-2.092,0-5.011-0.224-7.718-2.074l1.389-5.314c0.927,0.523,2.628,0.902,4.088,0.902c3.784,0,4.483-1.908,5.863-6.869
				l8.645-32.382h-5.867L330.857,352.035z"/>
			<path fill="#222222" d="M384.268,372.784c-0.079,1.006-0.079,1.779-0.079,2.469c0,6.408,4.32,8.79,9.255,8.79
				c5.563,0,7.946-2.61,10.648-6.004l5.094,3.916c-4.165,6.482-9.26,8.641-17.43,8.641c-10.029,0-17.519-5.849-17.519-17.263
				c0-12.35,8.724-22.313,21.984-22.313c10.724,0,15.514,6.114,15.514,13.968c0,2.404-0.474,5.489-1.468,7.796L384.268,372.784
				L384.268,372.784z M385.581,367.39h16.345c0.316-1.173,0.474-2.312,0.474-3.48c0-4.149-1.546-6.931-6.022-6.931
				C391.822,356.979,388.052,359.519,385.581,367.39z"/>
			<path fill="#222222" d="M424.693,372.784c-0.083,1.006-0.083,1.779-0.083,2.469c0,6.408,4.329,8.79,9.26,8.79
				c5.547,0,7.946-2.61,10.653-6.004l5.081,3.916c-4.158,6.482-9.252,8.641-17.43,8.641c-10.029,0-17.51-5.849-17.51-17.263
				c0-12.35,8.716-22.313,21.984-22.313c10.719,0,15.505,6.114,15.505,13.968c0,2.404-0.475,5.489-1.468,7.796L424.693,372.784
				L424.693,372.784z M425.997,367.39h16.354c0.307-1.173,0.466-2.312,0.466-3.48c0-4.149-1.548-6.931-6.013-6.931
				C432.247,356.979,428.472,359.519,425.997,367.39z"/>
			<path fill="#222222" d="M481.454,383.819h4.166c1.077,0,1.622-0.386,2.079-2.241l10.108-37.713h-4.32
				c-3.16,0-4.707,0.378-5.854,3.779l-1.165,3.375h-7.485l3.398-12.635h44.512l-3.392,12.635h-7.485l0.611-3.375
				c0.625-3.323-0.764-3.779-4.008-3.779h-4.474l-10.104,37.713c-0.461,1.855-0.233,2.241,0.849,2.241h4.316l-1.617,5.784h-21.751
				L481.454,383.819z"/>
			<path fill="#222222" d="M538.61,358.28c2.707-4.548,6.478-7.485,11.11-7.485c4.786,0,7.787,3.024,7.946,7.327
				c0.159,5.327-3.085,9.88-7.638,9.88c-3.318,0-5.248-1.929-5.327-4.628c-0.079-2.391,1.775-4.79,4.483-5.151
				c-0.466-0.703-1.626-1.177-2.778-1.177c-6.254,0-9.339,7.099-12.877,20.212l-3.332,12.346h-10.32l8.096-29.468
				c0.452-1.784,0.233-2.316-0.694-2.316h-4.633l1.546-5.784h7.164c3.779,0,7.33-0.378,9.185-0.76L538.61,358.28z"/>
			<path fill="#222222" d="M560.132,383.968c0-2.536,1.551-7.317,2.702-11.717l3.472-12.117c0.452-1.784,0.228-2.316-0.694-2.316
				h-4.642l1.548-5.784h7.028c3.775,0,7.326-0.378,9.181-0.76l-5.019,18.345c-1.472,5.168-3.085,10.35-3.085,12.649
				c0,1.635,0.835,2.386,2.316,2.386c1.006,0,1.701-0.145,2.852-0.528l-1.463,5.476c-2.092,0.694-4.012,0.993-6.255,0.993
				C562.834,390.596,560.132,388.354,560.132,383.968z M569.546,343.016c0-3.309,2.457-6.029,6.166-6.029
				c3.622,0,6.17,2.72,6.17,6.029c0,3.31-2.549,6.008-6.17,6.008C572.003,349.024,569.546,346.326,569.546,343.016z"/>
			<path fill="#222222" d="M591.451,346.475c0.466-1.767,0.215-2.303-0.699-2.303h-4.008l1.539-5.789h6.716
				c3.779,0,7.326-0.382,9.172-0.778c0,0-4.232,15.277-8.179,29.477h1.775c8.948,0,8.412-16.063,18.903-16.063
				c4.478,0,7.335,2.554,7.335,6.583c0,4.22-2.558,7.006-6.329,7.006c-2.545,0-4.324-1.929-4.324-3.938
				c0-1.455,0.391-2.391,1.239-3.151c-3.094,1.912-4.478,7.559-9.321,10.565c4.768,1.926,6.087,6.167,6.624,10.179
				c0.469,3.168,0.527,6.562,4.078,6.562c1.235,0,1.934-0.316,3.015-0.699l-1.398,5.476c-1.917,0.598-3.384,0.993-6.003,0.993
				c-8.025,0-9.573-4.549-9.959-10.029c-0.383-5.177-0.079-8.394-5.925-8.394h-1.169c-2.153,7.796-4.158,14.662-5.014,17.431h-9.875
				L591.451,346.475z"/>
			<path fill="#222222" d="M635.03,372.784c-0.074,1.006-0.074,1.779-0.074,2.469c0,6.408,4.32,8.79,9.243,8.79
				c5.559,0,7.958-2.61,10.653-6.004l5.09,3.916c-4.167,6.482-9.255,8.641-17.434,8.641c-10.02,0-17.51-5.849-17.51-17.263
				c0-12.35,8.71-22.313,21.984-22.313c10.715,0,15.51,6.114,15.51,13.968c0,2.404-0.466,5.489-1.477,7.796L635.03,372.784
				L635.03,372.784z M636.336,367.39h16.354c0.307-1.173,0.461-2.312,0.461-3.48c0-4.149-1.542-6.931-6.017-6.931
				C642.585,356.979,638.805,359.519,636.336,367.39z"/>
			<path fill="#222222" d="M443.661,274.573c0-0.672-0.334-1.073-0.747-1.248c-3.648-1.652-10.434-4.061-15.83-4.061
				c-15.171,0-19.61,7.968-19.61,15.691c0,5.33,4.245,9.356,10.385,9.356c4.312,0,5.972-1.398,5.972-2.487
				c0-0.747-0.651-1.327-1.819-1.327c-4.896,0-9.686-3.297-9.686-9.107c0-7.52,5.96-9.146,12.429-9.146
				c4.905,0,7.467,2.154,11.783,4.153l-12.741,36.882c-1.41,4.061-4.817,6.391-7.132,7.129c-1.244,0.351-1.908,0.756-1.908,1.415
				c0,0.747,0.823,0.918,1.657,0.918c4.975,0,12.03-3.406,15.927-14.776c4.061-11.848,11.071-32.242,11.071-32.242
				C443.586,275.325,443.661,274.894,443.661,274.573z"/>
			<path fill="#222222" d="M488.226,305.562c-0.483,0-1.071,0.25-1.407,0.672c-3.894,4.562-8.285,6.557-11.77,6.557
				c-3.569,0-6.061-2.074-6.061-5.889c0-5.651,4.065-12.037,7.63-12.037c1.165,0,1.917,0.747,1.917,2.33
				c0,2.241-1.749,5.976-6.966,10.113c-0.835,0.658-1.165,1.248-1.165,1.745c0,0.584,0.496,1.002,1.165,1.002
				c0.233,0,0.575-0.101,0.902-0.259c5.814-2.646,12.037-8.285,12.037-12.767c0-2.571-2-5.058-6.135-5.058
				c-9.208,0-15.44,8.548-15.44,16.086c0,0.207,0.027,0.4,0.032,0.598c-2.927,2.97-5.168,4.382-6.241,4.382
				c-0.58,0-0.755-0.501-0.755-1.16c0-0.418,0.083-0.993,0.259-1.573c1.235-4.312,3.309-8.957,4.883-12.27
				c0.747-1.578,1.08-2.914,1.08-3.814c0-1.504-0.914-2.167-2.321-2.167c-3.226,0-9.125,3.323-13.185,7.875l9.335-27.174
				c0.325-0.914,0.496-1.749,0.496-2.07c0-0.927-0.566-1.416-1.41-1.416c-2.734,0-4.97,1.239-6.382,2.409
				c-1.073,0.902-1.666,1.652-1.666,2.229c0,0.589,0.427,0.831,1.002,0.831c0.251,0,0.747-0.159,0.914-0.159
				c0.242,0,0.334,0.159,0.334,0.321c0,0.259-0.167,0.667-0.334,1.165l-13.149,38.214c-0.176,0.505-0.251,0.923-0.251,1.253
				c0,0.911,0.58,1.324,1.407,1.324c1.74,0,4.395-1.652,5.309-4.229l1.416-4.065c1.481-4.404,9.031-11.031,10.777-11.031
				c0.254,0,0.413,0.18,0.413,0.418c0,1.239-2.725,4.97-4.483,11.203c-0.334,1.156-0.572,2.233-0.492,3.147
				c0,2.746,1.407,4.557,4.404,4.557c2.321,0,5.714-1.763,9.318-5.247c1.393,3.221,4.698,5.247,8.745,5.247
				c5.563,0,11.44-3.31,15.59-8.131c0.831-0.993,1.173-1.749,1.173-2.321C489.149,305.813,488.727,305.562,488.226,305.562z"/>
		</g>
	</g>
</g>
</svg>
