<?xml version="1.0" encoding="utf-8"?>
<!-- Generator: Adobe Illustrator 17.0.2, SVG Export Plug-In . SVG Version: 6.00 Build 0)  -->
<!DOCTYPE svg PUBLIC "-//W3C//DTD SVG 1.1//EN" "http://www.w3.org/Graphics/SVG/1.1/DTD/svg11.dtd">
<svg version="1.1" xmlns="http://www.w3.org/2000/svg" xmlns:xlink="http://www.w3.org/1999/xlink" x="0px" y="0px" width="900px"
	 height="525px" viewBox="0 0 900 525" enable-background="new 0 0 900 525" xml:space="preserve">
<g id="Layer_1">
	<g>
		<g>
			<path fill="#74CBC8" d="M599.87,196.104c-0.472-0.473-1.167-0.613-1.788-0.344c-0.402,0.168-0.707,0.48-0.863,0.875
				c-0.164,0.418-0.164,0.851,0.008,1.25c0.34,0.824,1.324,1.21,2.14,0.863c0.39-0.168,0.703-0.473,0.867-0.878
				c0.168-0.402,0.152-0.851-0.016-1.246C600.132,196.424,600.014,196.248,599.87,196.104z"/>
			<path fill="#74CBC8" d="M615.192,236.222c-21.488,9.09-46.362-0.996-55.437-22.488c-9.086-21.484,0.996-46.366,22.48-55.445
				c21.492-9.094,46.358,0.992,55.453,22.484C646.775,202.258,636.689,227.136,615.192,236.222z M614.114,233.653
				c20.075-8.481,29.497-31.723,21.008-51.786c-8.485-20.082-31.731-29.509-51.798-21.02c-20.079,8.493-29.497,31.734-21.004,51.802
				C570.806,232.724,594.044,242.146,614.114,233.653z"/>
			<path fill="#74CBC8" d="M633.569,182.507c-1.921-4.522-4.631-8.559-8.083-12.008c-10.949-10.953-27.248-14.12-41.505-8.098
				c-19.212,8.133-28.232,30.375-20.106,49.591c1.917,4.53,4.635,8.563,8.063,12.007c10.969,10.957,27.248,14.143,41.52,8.107
				c9.301-3.944,16.521-11.266,20.321-20.629C637.575,202.102,637.508,191.828,633.569,182.507z M634.998,191.457l-18.993,5.154
				l-7.536-1.999l5.486-5.525l18.989-5.139C633.892,186.4,634.588,188.923,634.998,191.457z M600.233,200.833
				c-1.461,0.625-3.147,0.301-4.264-0.84c-0.348-0.347-0.625-0.761-0.832-1.226c-0.41-0.949-0.41-2.015-0.024-2.972
				c0.387-0.972,1.136-1.722,2.081-2.124c1.476-0.613,3.147-0.297,4.276,0.832c0.355,0.355,0.637,0.761,0.832,1.234
				c0.402,0.964,0.414,2.007,0.024,2.971C601.932,199.673,601.194,200.435,600.233,200.833z M600.53,205.987l-1.671,6.299
				l-1.706-6.283l0.87-0.883c0.281,0.156,0.461,0.453,0.422,0.785c0.211,0.02,0.425,0.024,0.633,0
				c-0.039-0.371,0.188-0.699,0.523-0.832L600.53,205.987z M594.11,190.809l-1.156-0.304l-1.703-6.294l4.623,4.588l-0.336,1.273
				c-0.379,0.098-0.781-0.07-0.952-0.437c-0.192,0.102-0.375,0.211-0.543,0.316C594.231,190.208,594.247,190.536,594.11,190.809z
				 M592.376,192.609c-0.269,0.282-0.703,0.34-1.042,0.114c-0.098,0.184-0.207,0.363-0.309,0.547
				c0.309,0.133,0.484,0.441,0.484,0.754l-1.14,0.312l-4.624-4.596l6.31,1.663L592.376,192.609z M590.893,196.42
				c-0.102,0.359-0.437,0.633-0.836,0.582c0,0.219,0,0.425,0,0.64c0.359-0.039,0.68,0.164,0.816,0.473l-0.816,0.82l-6.31-1.66
				l6.294-1.706L590.893,196.42z M590.385,200.173l1.14,0.309c0.07,0.359-0.098,0.726-0.445,0.882
				c0.098,0.191,0.207,0.375,0.32,0.547c0.305-0.215,0.707-0.188,0.988,0.035l-0.313,1.148l-6.291,1.707L590.385,200.173z
				 M592.989,203.992l1.152-0.324c0.199,0.285,0.219,0.664,0.008,0.956c0.191,0.106,0.367,0.215,0.558,0.313
				c0.148-0.348,0.519-0.516,0.886-0.457l0.32,1.187l-4.596,4.623L592.989,203.992z M597.101,188.47l1.671-6.307l1.703,6.307
				l-0.968,0.976c-0.347-0.125-0.609-0.472-0.57-0.843c-0.195-0.016-0.402-0.016-0.609,0c0.031,0.297-0.113,0.578-0.351,0.746
				L597.101,188.47z M606.02,192.586L606.02,192.586c-0.242,0.195-0.558,0.222-0.828,0.106l0.347-1.324l6.295-1.699l-4.604,4.623
				l-1.382-0.367c-0.008-0.335,0.172-0.656,0.496-0.789C606.254,192.949,606.137,192.765,606.02,192.586z M604.641,190.473
				l-1.374,0.367c-0.207-0.273-0.238-0.672-0.012-0.965c-0.18-0.117-0.367-0.215-0.551-0.308c-0.121,0.285-0.379,0.441-0.656,0.484
				l-0.344-1.254l4.604-4.635L604.641,190.473z M602.084,204.413c0.304,0,0.593,0.176,0.738,0.48
				c0.184-0.094,0.355-0.199,0.551-0.312c-0.23-0.297-0.215-0.683-0.008-0.968l1.312,0.343l1.703,6.303l-4.624-4.608
				L602.084,204.413z M605.223,201.75c0.258-0.129,0.594-0.121,0.859,0.066c0.105-0.188,0.218-0.371,0.304-0.555
				c-0.304-0.129-0.488-0.445-0.488-0.773l1.355-0.363l4.624,4.604l-6.307-1.667L605.223,201.75z M606.574,197.889
				c0.172-0.258,0.476-0.418,0.805-0.383c0.004-0.207,0.004-0.418,0-0.621c-0.328,0.047-0.633-0.121-0.797-0.375l0.984-0.988
				l6.298,1.671l-6.283,1.711L606.574,197.889z M632.53,182.913l-17.013,4.608l12.433-12.507
				C629.796,177.431,631.331,180.079,632.53,182.913z M624.701,171.281c0.914,0.91,1.761,1.867,2.569,2.862l-13.886,13.956
				l-7.517,2.042l1.996-7.532l13.893-13.968C622.768,169.461,623.763,170.34,624.701,171.281z M620.878,167.954l-12.445,12.511
				l4.526-17.091C615.743,164.553,618.406,166.08,620.878,167.954z M611.928,162.956l-5.057,19.071l-5.498,5.537l-2.03-7.532
				l5.049-19.098C606.965,161.328,609.495,162.007,611.928,162.956z M603.294,160.781l-4.538,17.123l-4.631-17.107
				C597.195,160.398,600.272,160.394,603.294,160.781z M593.021,160.956l5.17,19.079l-1.995,7.536l-5.529-5.498l-5.17-19.091
				C587.964,162.023,590.494,161.355,593.021,160.956z M584.399,163.424c0.031-0.008,0.047-0.023,0.066-0.027l4.639,17.119
				l-12.589-12.515C578.893,166.189,581.529,164.635,584.399,163.424z M572.189,171.871l0.398,0.379l0.152-0.144l1.378,1.382
				l0.086-0.078l1.265,1.257l0.125-0.125L576,174.94l0.188-0.176l-0.41-0.402l0.121-0.133l-1.257-1.262l0.066-0.086l-1.382-1.37
				l0.152-0.16l-0.387-0.39c0.808-0.797,1.659-1.55,2.55-2.277l14.042,13.976l2.038,7.52l-7.544-1.991l-14.053-13.983
				C570.783,173.394,571.478,172.62,572.189,171.871z M569.455,175.096l12.597,12.523l-17.189-4.553
				C566.05,180.243,567.589,177.552,569.455,175.096z M564.457,184.093l19.157,5.076l5.529,5.494l-7.532,2.05l-19.161-5.08
				l-0.047,0.195C562.805,189.169,563.5,186.592,564.457,184.093z M562.282,192.73l17.201,4.553l-17.185,4.651
				C561.895,198.849,561.903,195.76,562.282,192.73z M562.45,203.039l19.169-5.189l7.532,1.999l-5.498,5.525l-19.134,5.186
				l0.055,0.199C563.57,208.228,562.864,205.628,562.45,203.039z M564.902,211.61l17.193-4.662l-12.554,12.62
				C567.675,217.132,566.12,214.472,564.902,211.61z M572.724,223.223c-0.875-0.882-1.714-1.816-2.503-2.776l14.007-14.085
				l7.532-2.042l-1.999,7.54l-13.975,14.057l0.184,0.192C574.844,225.222,573.766,224.265,572.724,223.223z M576.648,226.62
				l12.55-12.628l-4.553,17.209C581.826,230.037,579.147,228.502,576.648,226.62z M585.672,231.614l5.072-19.188l5.506-5.529
				l2.038,7.528l-5.076,19.165l0.074,0.016C590.682,233.227,588.136,232.556,585.672,231.614z M594.305,233.754l4.565-17.205
				l4.635,17.139C600.436,234.09,597.336,234.121,594.305,233.754z M604.599,233.512l-5.166-19.095l1.995-7.536l5.522,5.506
				l5.17,19.059C609.651,232.415,607.133,233.102,604.599,233.512z M613.142,231.029l-4.624-17.091l12.543,12.476
				C618.66,228.252,616.005,229.811,613.142,231.029z M621.928,225.726l-13.987-13.913l-2.034-7.528l7.544,1.999l13.979,13.909
				C625.798,222.231,623.962,224.082,621.928,225.726z M628.106,219.31l-12.527-12.457l17.037,4.506
				C631.437,214.222,629.917,216.885,628.106,219.31z M633.03,210.337l-19.013-5.041l-5.537-5.502l7.524-2.042l19.028,5.049
				C634.639,205.343,633.963,207.873,633.03,210.337z M618.129,197.182l17.021-4.612c0.398,3.026,0.406,6.084,0.023,9.125
				L618.129,197.182z"/>
			<path fill="#74CBC8" d="M499.571,195.631c-0.668,0-1.25,0.394-1.511,1.015c-0.152,0.406-0.152,0.84,0.016,1.242
				c0.164,0.398,0.469,0.703,0.882,0.87c0.82,0.34,1.789-0.082,2.124-0.898c0.16-0.402,0.16-0.843-0.004-1.238
				c-0.176-0.406-0.488-0.711-0.886-0.878C499.984,195.663,499.777,195.631,499.571,195.631z"/>
			<path fill="#74CBC8" d="M538.771,213.164c-8.762,21.613-33.48,32.07-55.097,23.296c-21.609-8.766-32.082-33.491-23.312-55.101
				c8.778-21.625,33.488-32.078,55.113-23.312C537.092,166.818,547.545,191.535,538.771,213.164z M536.202,212.106
				c8.185-20.196-1.577-43.281-21.785-51.477c-20.184-8.185-43.277,1.577-51.47,21.769c-8.189,20.2,1.577,43.293,21.773,51.481
				C504.912,242.072,528.009,232.306,536.202,212.106z"/>
			<path fill="#74CBC8" d="M513.788,162.206c-4.557-1.859-9.336-2.796-14.202-2.796c-15.491,0-29.251,9.274-35.077,23.628
				c-7.841,19.329,1.515,41.438,20.844,49.279c4.557,1.839,9.333,2.78,14.202,2.792c15.486-0.012,29.267-9.285,35.085-23.632
				c3.787-9.364,3.717-19.649-0.219-28.962C530.477,173.21,523.16,165.99,513.788,162.206z M521.129,167.509l-9.79,17.064
				l-6.74,3.92l-0.028-7.79l9.794-17.06C516.779,164.702,519.04,165.994,521.129,167.509z M503.167,198.716
				c-0.586,1.464-2.007,2.429-3.596,2.429c-0.508,0-0.988-0.098-1.449-0.285c-0.968-0.387-1.726-1.144-2.132-2.093
				c-0.414-0.953-0.414-2.003-0.024-2.972c0.601-1.476,2.015-2.421,3.604-2.433c0.503,0.012,0.996,0.09,1.464,0.289
				c0.96,0.402,1.71,1.132,2.116,2.085C503.557,196.701,503.573,197.752,503.167,198.716z M507.025,202.153l3.272,5.638
				l-5.654-3.245v-1.238c0.309-0.094,0.648,0.008,0.859,0.25c0.156-0.133,0.316-0.277,0.445-0.433
				c-0.289-0.234-0.363-0.633-0.219-0.972H507.025z M491.761,195.963l-1.042,0.59l-5.654-3.241l6.521-0.027l0.656,1.148
				c-0.192,0.328-0.601,0.496-0.976,0.351c-0.07,0.203-0.113,0.406-0.164,0.617C491.413,195.444,491.663,195.671,491.761,195.963z
				 M491.804,198.451c0,0.398-0.254,0.738-0.652,0.828c0.051,0.195,0.098,0.394,0.168,0.59c0.301-0.113,0.648-0.028,0.867,0.203
				l-0.57,1.027l-6.521,0.016l5.623-3.284L491.804,198.451z M493.452,202.191c0.18,0.347,0.117,0.765-0.18,1.015
				c0.152,0.152,0.297,0.297,0.453,0.437c0.219-0.273,0.594-0.355,0.914-0.23v1.168l-5.643,3.272l3.245-5.662H493.452z
				 M495.744,205.206l1.023-0.589c0.301,0.215,0.441,0.589,0.312,0.945c0.203,0.062,0.41,0.113,0.597,0.168
				c0.074-0.387,0.383-0.637,0.742-0.676l0.593,1.019l-3.249,5.666L495.744,205.206z M500.285,206.073l0.593-1.035
				c0.332,0.051,0.617,0.305,0.683,0.652c0.207-0.043,0.402-0.102,0.601-0.16c-0.129-0.363,0.008-0.746,0.316-0.953l1.062,0.613
				l0.024,6.517L500.285,206.073z M492.218,192.188l-3.284-5.639l5.666,3.245l0.008,1.379c-0.344,0.168-0.746,0.102-0.996-0.203
				c-0.152,0.137-0.301,0.281-0.441,0.441c0.242,0.196,0.336,0.492,0.289,0.777H492.218z M501.441,188.798L501.441,188.798
				c-0.035,0.305-0.25,0.543-0.519,0.648l-0.691-1.175l3.249-5.65l0.024,6.513l-1.242,0.723c-0.246-0.223-0.352-0.586-0.203-0.91
				C501.851,188.884,501.652,188.833,501.441,188.798z M498.957,188.271l-0.711,1.238c-0.34-0.055-0.633-0.313-0.683-0.68
				c-0.215,0.055-0.41,0.102-0.609,0.176c0.113,0.273,0.051,0.578-0.129,0.801l-1.128-0.641l-0.008-6.529L498.957,188.271z
				 M507.017,199.939c0.211-0.223,0.547-0.301,0.859-0.172c0.07-0.211,0.11-0.406,0.164-0.621c-0.367-0.047-0.629-0.332-0.691-0.672
				l1.175-0.687l5.654,3.252l-6.525,0.012L507.017,199.939z M507.349,195.842c0.09-0.289,0.336-0.515,0.656-0.578
				c-0.058-0.203-0.113-0.406-0.172-0.601c-0.316,0.129-0.668,0.039-0.894-0.199l0.703-1.21l6.517-0.02l-5.635,3.276
				L507.349,195.842z M505.588,192.148c-0.07-0.297,0.032-0.637,0.285-0.836c-0.136-0.156-0.285-0.304-0.441-0.441
				c-0.195,0.258-0.527,0.367-0.824,0.301v-1.398l5.643-3.288l-3.257,5.662H505.588z M513.347,163.198l-8.774,15.299l-0.047-17.642
				C507.532,161.269,510.488,162.046,513.347,163.198z M499.586,160.519c1.285,0,2.553,0.07,3.831,0.199l0.047,19.692l-3.874,6.755
				l-3.913-6.736l-0.054-19.696C496.927,160.597,498.247,160.519,499.586,160.519z M494.529,160.867l0.047,17.642l-8.895-15.284
				C488.485,162.081,491.452,161.3,494.529,160.867z M484.658,163.659l9.918,17.064l0.024,7.794l-6.771-3.881l-9.93-17.076
				C480.003,166.025,482.268,164.717,484.658,163.659z M477.008,168.227l8.903,15.318l-15.365-8.821
				C472.436,172.281,474.615,170.094,477.008,168.227z M469.874,175.608l17.158,9.836l3.913,6.751l-7.79,0.024l-17.166-9.848
				C467.063,179.95,468.359,177.697,469.874,175.608z M465.528,183.452c0.008-0.016,0.02-0.039,0.027-0.055l15.385,8.821
				l-17.767,0.051C463.58,189.309,464.369,186.346,465.528,183.452z M462.861,198.053h0.555l0.008-0.215h1.945l0.012-0.11
				l1.781-0.012v-0.176l0.582,0.008l-0.008-0.266l-0.574,0.008v-0.176h-1.792l-0.004-0.121h-1.948v-0.215l-0.559,0.008
				c0.02-1.136,0.074-2.269,0.195-3.413l19.802-0.05l6.767,3.881l-6.736,3.913l-19.821,0.058
				C462.947,200.138,462.892,199.099,462.861,198.053z M463.205,202.27l17.767-0.043l-15.362,8.926
				C464.439,208.318,463.626,205.331,463.205,202.27z M466.048,212.176l17.134-9.954l7.786-0.019l-3.877,6.759l-17.142,9.961
				l0.105,0.172C468.461,216.94,467.133,214.613,466.048,212.176z M470.608,219.818l15.385-8.934l-8.872,15.44
				C474.662,224.422,472.49,222.231,470.608,219.818z M478.028,226.987l9.871-17.224l6.74-3.913l0.023,7.798l-9.856,17.197
				l0.176,0.106C482.479,229.865,480.152,228.537,478.028,226.987z M485.806,231.31l8.872-15.452l0.047,17.806
				C491.679,233.262,488.695,232.485,485.806,231.31z M499.563,233.996c-1.254,0-2.503-0.07-3.745-0.195l-0.047-19.864l3.881-6.767
				l3.92,6.756l0.047,19.821h0.273C502.46,233.907,501.019,233.996,499.563,233.996z M504.729,233.633l-0.055-17.806l8.95,15.393
				C510.804,232.376,507.821,233.192,504.729,233.633z M514.639,230.783l-9.973-17.162l-0.024-7.802l6.759,3.881l9.965,17.146
				l0.074-0.035C519.321,228.37,517.045,229.697,514.639,230.783z M522.253,226.187l-8.926-15.389l15.393,8.829
				C526.842,222.091,524.667,224.293,522.253,226.187z M529.376,218.736l-17.166-9.852l-3.913-6.736l7.798-0.016l17.131,9.817
				C532.179,214.383,530.883,216.639,529.376,218.736z M533.66,210.931l-15.358-8.806l17.697-0.058
				C535.593,205.073,534.811,208.053,533.66,210.931z M536.124,200.97l-19.743,0.058l-6.756-3.881l6.748-3.917l19.712-0.058
				C536.389,195.764,536.389,198.376,536.124,200.97z M535.94,192.074l-17.67,0.047l15.253-8.86
				C534.706,186.119,535.514,189.079,535.94,192.074z M533.078,182.25l-17.009,9.872l-7.802,0.027l3.881-6.763l17.021-9.891
				C530.692,177.572,531.992,179.836,533.078,182.25z M513.249,183.468l8.77-15.287c2.425,1.867,4.6,4.018,6.474,6.431
				L513.249,183.468z"/>
			<path fill="#74CBC8" d="M399.275,196.104c-0.469,0.472-0.609,1.171-0.344,1.785c0.168,0.398,0.477,0.711,0.878,0.87
				c0.41,0.164,0.855,0.164,1.25,0c0.824-0.343,1.215-1.332,0.871-2.136c-0.172-0.406-0.492-0.711-0.89-0.882
				c-0.406-0.156-0.844-0.152-1.242,0.02C399.595,195.842,399.415,195.963,399.275,196.104z"/>
			<path fill="#74CBC8" d="M439.393,180.781c9.09,21.485-1,46.354-22.492,55.441c-21.477,9.09-46.35-1.004-55.441-22.488
				c-9.09-21.484,1-46.35,22.484-55.445C405.437,149.203,430.303,159.297,439.393,180.781z M436.831,181.867
				c-8.489-20.082-31.73-29.509-51.801-21.02c-20.067,8.493-29.489,31.734-20.992,51.809c8.477,20.067,31.715,29.489,51.786,20.996
				C435.895,225.172,445.321,201.93,436.831,181.867z"/>
			<path fill="#74CBC8" d="M385.686,162.417c-4.53,1.905-8.567,4.631-12.019,8.083c-10.953,10.938-14.112,27.229-8.087,41.493
				c8.126,19.208,30.372,28.244,49.584,20.114c4.534-1.917,8.567-4.643,12.015-8.067c10.949-10.961,14.128-27.26,8.102-41.524
				c-3.948-9.305-11.265-16.521-20.637-20.309C405.28,158.403,395.003,158.473,385.686,162.417z M394.632,160.988l5.159,18.985
				l-1.999,7.532l-5.537-5.49l-5.131-18.981C389.579,162.081,392.09,161.398,394.632,160.988z M404.007,195.741
				c0.617,1.472,0.293,3.151-0.835,4.268c-0.359,0.351-0.765,0.629-1.234,0.824c-0.945,0.41-2.007,0.41-2.976,0.027
				c-0.964-0.379-1.714-1.124-2.124-2.085c-0.617-1.468-0.281-3.143,0.839-4.272c0.348-0.351,0.765-0.637,1.238-0.832
				c0.953-0.398,2.011-0.41,2.976-0.02C402.852,194.054,403.601,194.784,404.007,195.741z M409.162,195.456l6.303,1.663l-6.291,1.71
				l-0.883-0.874c0.145-0.277,0.465-0.461,0.793-0.433c0.016-0.203,0.016-0.422,0-0.621c-0.371,0.031-0.703-0.188-0.847-0.531
				L409.162,195.456z M393.984,201.868l-0.308,1.152l-6.298,1.71l4.6-4.624l1.281,0.336c0.082,0.375-0.09,0.777-0.457,0.949
				c0.106,0.172,0.211,0.359,0.32,0.539C393.382,201.742,393.711,201.723,393.984,201.868z M395.784,203.593
				c0.273,0.27,0.347,0.711,0.11,1.046c0.187,0.098,0.367,0.215,0.55,0.309c0.137-0.305,0.433-0.492,0.758-0.48l0.308,1.136
				l-4.604,4.62l1.675-6.306L395.784,203.593z M399.579,205.073c0.379,0.117,0.641,0.457,0.601,0.851c0.219,0,0.422,0,0.633-0.02
				c-0.035-0.343,0.164-0.664,0.477-0.804l0.828,0.82l-1.671,6.311l-1.71-6.295L399.579,205.073z M403.352,205.585l0.297-1.14
				c0.367-0.066,0.734,0.102,0.89,0.441c0.191-0.086,0.367-0.207,0.539-0.305c-0.211-0.312-0.187-0.719,0.039-0.992l1.156,0.297
				l1.706,6.299L403.352,205.585z M407.163,202.984l-0.316-1.152c0.277-0.199,0.656-0.223,0.953-0.016
				c0.113-0.184,0.215-0.355,0.316-0.543c-0.351-0.16-0.531-0.535-0.461-0.89l1.187-0.328l4.631,4.608L407.163,202.984z
				 M391.645,198.876l-6.303-1.671l6.295-1.711l0.976,0.976c-0.117,0.359-0.468,0.597-0.851,0.562
				c-0.008,0.203-0.008,0.406,0.008,0.621c0.305-0.043,0.586,0.105,0.75,0.335L391.645,198.876z M395.768,189.95L395.768,189.95
				c0.195,0.242,0.211,0.57,0.094,0.836l-1.328-0.34l-1.703-6.299l4.631,4.596l-0.363,1.379c-0.336,0.02-0.656-0.172-0.789-0.488
				C396.124,189.727,395.94,189.844,395.768,189.95z M393.644,191.34l0.371,1.37c-0.285,0.215-0.675,0.231-0.972,0.012
				c-0.11,0.184-0.211,0.355-0.301,0.547c0.277,0.113,0.449,0.371,0.488,0.656l-1.265,0.34l-4.631-4.596L393.644,191.34z
				 M407.584,193.886c0-0.301,0.184-0.601,0.484-0.73c-0.102-0.184-0.203-0.359-0.313-0.547c-0.304,0.223-0.683,0.211-0.968,0.004
				l0.351-1.316l6.295-1.706l-4.608,4.623L407.584,193.886z M404.933,190.75c-0.144-0.27-0.137-0.593,0.051-0.863
				c-0.18-0.106-0.363-0.211-0.543-0.305c-0.14,0.328-0.453,0.511-0.777,0.488l-0.367-1.347l4.6-4.62l-1.663,6.299L404.933,190.75z
				 M401.075,189.392c-0.269-0.164-0.433-0.461-0.386-0.789c-0.215,0-0.422,0-0.625,0c0.039,0.32-0.125,0.625-0.379,0.789
				l-0.988-0.98l1.663-6.306l1.703,6.295L401.075,189.392z M386.084,163.44l4.616,17.017l-12.511-12.437
				C380.61,166.189,383.249,164.654,386.084,163.44z M374.464,171.273c0.906-0.906,1.863-1.765,2.851-2.565l13.96,13.882l2.034,7.52
				l-7.536-2.003l-13.964-13.89C372.628,173.198,373.511,172.21,374.464,171.273z M371.129,175.1l12.511,12.445l-17.095-4.526
				C367.716,180.223,369.254,177.568,371.129,175.1z M366.123,184.046l19.087,5.057l5.529,5.502l-7.528,2.03l-19.106-5.057
				C364.506,189.005,365.182,186.482,366.123,184.046z M363.952,192.683l17.127,4.538l-17.103,4.623
				C363.577,198.779,363.577,195.698,363.952,192.683z M364.123,202.949l19.087-5.162l7.536,1.995l-5.502,5.518l-19.083,5.174
				C365.209,208.014,364.538,205.479,364.123,202.949z M366.599,211.571c-0.016-0.02-0.024-0.047-0.031-0.054l17.13-4.643
				l-12.527,12.593C369.364,217.084,367.81,214.445,366.599,211.571z M375.041,223.778l0.391-0.387l-0.152-0.152l1.374-1.386
				l-0.074-0.086l1.265-1.261l-0.137-0.129l0.41-0.414l-0.187-0.176l-0.398,0.406l-0.133-0.121l-1.266,1.265l-0.082-0.07
				l-1.374,1.379l-0.152-0.16l-0.391,0.402c-0.789-0.82-1.546-1.659-2.272-2.554l13.967-14.042l7.521-2.038l-1.995,7.536
				l-13.979,14.054C376.572,225.195,375.799,224.504,375.041,223.778z M378.259,226.523l12.527-12.597l-4.545,17.181
				C383.402,229.924,380.727,228.381,378.259,226.523z M387.267,231.517l5.08-19.149l5.494-5.533l2.042,7.524l-5.076,19.153
				l0.187,0.063C392.348,233.161,389.763,232.485,387.267,231.517z M395.893,233.696l4.565-17.201l4.65,17.193
				C402.024,234.082,398.931,234.067,395.893,233.696z M406.21,233.532l-5.185-19.173l1.991-7.532l5.533,5.49l5.189,19.137
				l0.192-0.055C411.388,232.407,408.818,233.11,406.21,233.532z M414.777,231.076l-4.655-17.193l12.621,12.554
				C420.314,228.295,417.643,229.853,414.777,231.076z M426.394,223.25c-0.886,0.882-1.808,1.711-2.773,2.503l-14.084-14.015
				l-2.042-7.52l7.548,1.991l14.05,13.983l0.184-0.188C428.393,221.122,427.432,222.219,426.394,223.25z M429.795,219.33
				l-12.625-12.546l17.205,4.549C433.192,214.152,431.677,216.847,429.795,219.33z M434.785,210.306l-19.188-5.088l-5.518-5.502
				l7.513-2.038l19.169,5.088l0.019-0.074C436.394,205.296,435.727,207.842,434.785,210.306z M436.925,201.66l-17.197-4.545
				l17.134-4.655C437.269,195.542,437.296,198.63,436.925,201.66z M436.699,191.367l-19.106,5.178l-7.532-2.003l5.498-5.521
				l19.059-5.162C435.586,186.314,436.277,188.833,436.699,191.367z M434.196,182.828l-17.076,4.631l12.472-12.55
				C431.423,177.314,432.978,179.973,434.196,182.828z M428.897,174.038l-13.909,13.983l-7.528,2.046l1.996-7.536l13.905-13.987
				C425.406,170.176,427.253,172.015,428.897,174.038z M422.485,167.876l-12.464,12.523l4.518-17.045
				C417.401,164.541,420.056,166.064,422.485,167.876z M413.512,162.948l-5.053,19.013l-5.49,5.537l-2.038-7.524l5.037-19.028
				C408.522,161.328,411.048,162.007,413.512,162.948z M400.353,177.849l-4.616-17.021c3.034-0.398,6.095-0.418,9.129-0.035
				L400.353,177.849z"/>
			<path fill="#74CBC8" d="M301.279,154.951c-23.327,0-42.309,18.969-42.309,42.305c0,23.331,18.981,42.309,42.309,42.309
				c23.328,0,42.305-18.977,42.305-42.309C343.584,173.921,324.607,154.951,301.279,154.951z M334.384,202.531
				c-2.101,1.589-4.733,2.046-6.919,3.472c-2.238,1.472-4.045,3.428-5.67,5.548c-1.078,1.429-2.78,1.597-4.1,1.043
				c-1.367,2.71-2.921,5.299-4.682,7.759c-0.457,0.594-0.878,1.066-1.503,1.187c-0.801,0.144-5.225,0.723-12.495,0.723
				c-7.774,0-10.855-0.41-11.964-0.512c-0.664-0.058-1.812-0.234-1.98-0.258c-0.656-0.113-1.355-1.265-1.374-1.3
				c-7.025-9.934-11.141-22.062-11.141-35.155c0-1.097-0.074-3.678-0.074-3.901c0-0.715,0.593-1.156,1.3-1.3
				c0.469-0.094,12.324-1.25,24.788-1.25c11.629,0,23.718,1.156,24.163,1.25c0.699,0.152,1.304,0.586,1.304,1.3
				c0,0.102,0.07,2.687,0.07,3.901c0,0.425-0.008,0.824-0.016,1.246c1.3-0.473,2.694-0.723,4.124-0.675
				c3.428,0.098,7.606,1.55,9.145,4.935C339.281,194.757,338.114,199.689,334.384,202.531z"/>
			<path fill="#74CBC8" d="M328.699,191.922c-2.171-0.07-3.729,0.562-4.94,2.39c-0.968,1.589-1.324,5.482-2.066,8.067
				c1.226-1.074,2.561-1.988,4.034-2.624c2.483-1.078,6.607-1.956,6.318-5.463C331.917,192.738,330.058,191.961,328.699,191.922z"/>
		</g>
		<g>
			<g>
				<path fill="#74CBC8" d="M405.234,278.878h-63.988c-0.645,0-1.152-0.515-1.152-1.16s0.507-1.164,1.152-1.164h63.988
					c0.64,0,1.168,0.519,1.168,1.164S405.874,278.878,405.234,278.878z"/>
				<path fill="#74CBC8" d="M558.764,278.878h-64c-0.64,0-1.152-0.515-1.152-1.16s0.512-1.164,1.152-1.164h64
					c0.64,0,1.156,0.519,1.156,1.164S559.404,278.878,558.764,278.878z"/>
			</g>
		</g>
		<g>
			<path fill="#FFFFFF" d="M261.216,339.708c0-15.705,10.277-28.454,22.82-28.454c8.77,0,12.199,4.385,13.097,8.442l4.319-7.544
				h5.475l-4.592,16.923h-8.36c0.89-6.435-1.371-11.925-8.294-11.925c-7.197,0-11.305,6.099-13.773,14.659
				c-0.898,3.023-1.437,6.463-1.437,8.856c0,8.013,3.428,12.187,10.754,12.187c6.646,0,10.277-4.377,12.882-11.519l5.959,1.995
				c-2.933,9.668-9.727,15.213-19.528,15.213C268.143,358.541,261.216,350.809,261.216,339.708z"/>
			<path fill="#FFFFFF" d="M304.184,343.328c0-10.82,7.466-19.95,18.77-19.95c9.672,0,16.178,5.572,16.178,15.018
				c0,10.898-7.61,20.145-18.911,20.145C310.686,358.541,304.184,352.793,304.184,343.328z M330.363,336.069
				c0-4.26-2.534-7.259-6.849-7.259c-6.997,0-10.559,10.816-10.559,16.853c0,4.319,2.335,7.47,6.919,7.47
				C327.004,353.133,330.363,342.172,330.363,336.069z"/>
			<path fill="#FFFFFF" d="M344.143,324.28h5.197l1.171-4.248c1.574-5.83,4.592-9.524,11.035-9.524c2.878,0,5.408,0.402,7.802,1.991
				l-1.293,4.795c-0.753-0.484-2.394-0.898-3.701-0.898c-3.222,0-4.588,1.292-5.549,6.029l-0.484,1.855h10.488l1.164-4.248
				c1.578-5.83,4.584-9.524,11.035-9.524c2.882,0,5.412,0.402,7.806,1.991l-1.292,4.795c-0.758-0.484-2.406-0.898-3.702-0.898
				c-3.218,0-4.592,1.292-5.553,6.029l-0.492,1.855h6.177l-1.367,5.139h-6.099l-8.091,30.016
				c-1.781,6.38-4.444,10.621-11.859,10.621c-1.843,0-4.452-0.199-6.849-1.843l1.23-4.721c0.828,0.465,2.335,0.801,3.639,0.801
				c3.354,0,3.971-1.695,5.209-6.103l7.669-28.771h-10.414l-8.091,30.016c-1.777,6.38-4.448,10.621-11.851,10.621
				c-1.859,0-4.452-0.199-6.857-1.843l1.234-4.721c0.824,0.465,2.335,0.801,3.632,0.801c3.362,0,3.983-1.695,5.209-6.103
				l7.681-28.771h-5.213L344.143,324.28z"/>
			<path fill="#FFFFFF" d="M391.598,342.715c-0.07,0.894-0.07,1.581-0.07,2.194c0,5.693,3.838,7.81,8.223,7.81
				c4.943,0,7.06-2.319,9.461-5.334l4.526,3.479c-3.701,5.759-8.227,7.677-15.486,7.677c-8.911,0-15.565-5.197-15.565-15.338
				c0-10.973,7.751-19.825,19.532-19.825c9.528,0,13.784,5.432,13.784,12.41c0,2.136-0.421,4.877-1.304,6.927H391.598z
				 M392.765,337.923h14.522c0.281-1.042,0.421-2.054,0.421-3.092c0-3.686-1.374-6.158-5.35-6.158
				C398.31,328.673,394.96,330.93,392.765,337.923z"/>
			<path fill="#FFFFFF" d="M427.515,342.715c-0.074,0.894-0.074,1.581-0.074,2.194c0,5.693,3.846,7.81,8.227,7.81
				c4.928,0,7.06-2.319,9.465-5.334l4.514,3.479c-3.694,5.759-8.22,7.677-15.486,7.677c-8.911,0-15.557-5.197-15.557-15.338
				c0-10.973,7.744-19.825,19.532-19.825c9.524,0,13.776,5.432,13.776,12.41c0,2.136-0.422,4.877-1.304,6.927H427.515z
				 M428.674,337.923h14.53c0.273-1.042,0.414-2.054,0.414-3.092c0-3.686-1.375-6.158-5.342-6.158
				C434.227,328.673,430.873,330.93,428.674,337.923z"/>
			<path fill="#FFFFFF" d="M477.946,352.52h3.701c0.957,0,1.441-0.343,1.847-1.991l8.981-33.507h-3.838
				c-2.808,0-4.182,0.336-5.201,3.358l-1.035,2.999h-6.65l3.019-11.226h39.548l-3.014,11.226h-6.65l0.543-2.999
				c0.555-2.952-0.679-3.358-3.561-3.358h-3.975l-8.977,33.507c-0.41,1.648-0.207,1.991,0.754,1.991h3.835l-1.437,5.139h-19.325
				L477.946,352.52z"/>
			<path fill="#FFFFFF" d="M528.728,329.829c2.405-4.041,5.756-6.65,9.871-6.65c4.252,0,6.919,2.687,7.06,6.51
				c0.141,4.733-2.741,8.778-6.786,8.778c-2.948,0-4.663-1.714-4.733-4.112c-0.07-2.124,1.577-4.256,3.983-4.577
				c-0.414-0.625-1.445-1.046-2.468-1.046c-5.557,0-8.298,6.307-11.441,17.958l-2.96,10.969h-9.169l7.193-26.182
				c0.402-1.585,0.207-2.058-0.617-2.058h-4.116l1.374-5.139h6.365c3.358,0,6.513-0.336,8.161-0.675L528.728,329.829z"/>
			<path fill="#FFFFFF" d="M547.85,352.652c0-2.253,1.378-6.501,2.401-10.41l3.085-10.766c0.402-1.585,0.203-2.058-0.617-2.058
				h-4.124l1.375-5.139h6.244c3.354,0,6.509-0.336,8.157-0.675l-4.459,16.299c-1.308,4.592-2.741,9.196-2.741,11.238
				c0,1.453,0.742,2.12,2.058,2.12c0.894,0,1.511-0.129,2.534-0.469l-1.3,4.865c-1.859,0.617-3.565,0.882-5.557,0.882
				C550.251,358.541,547.85,356.549,547.85,352.652z M556.214,316.267c0-2.94,2.183-5.357,5.478-5.357
				c3.218,0,5.482,2.417,5.482,5.357c0,2.941-2.265,5.338-5.482,5.338C558.397,321.605,556.214,319.208,556.214,316.267z"/>
			<path fill="#FFFFFF" d="M575.676,319.34c0.414-1.57,0.191-2.046-0.621-2.046h-3.561l1.367-5.143h5.967
				c3.358,0,6.509-0.339,8.149-0.691c0,0-3.76,13.573-7.267,26.19h1.577c7.95,0,7.474-14.272,16.795-14.272
				c3.979,0,6.517,2.269,6.517,5.849c0,3.749-2.273,6.225-5.623,6.225c-2.261,0-3.842-1.714-3.842-3.499
				c0-1.293,0.347-2.124,1.101-2.8c-2.749,1.699-3.979,6.716-8.282,9.387c4.236,1.711,5.408,5.479,5.885,9.044
				c0.417,2.815,0.468,5.83,3.623,5.83c1.097,0,1.718-0.281,2.679-0.621l-1.242,4.865c-1.703,0.531-3.007,0.882-5.334,0.882
				c-7.13,0-8.505-4.042-8.848-8.911c-0.34-4.6-0.07-7.458-5.264-7.458h-1.039c-1.913,6.927-3.694,13.027-4.455,15.487h-8.774
				L575.676,319.34z"/>
			<path fill="#FFFFFF" d="M614.396,342.715c-0.066,0.894-0.066,1.581-0.066,2.194c0,5.693,3.838,7.81,8.212,7.81
				c4.939,0,7.071-2.319,9.465-5.334l4.522,3.479c-3.702,5.759-8.223,7.677-15.49,7.677c-8.903,0-15.557-5.197-15.557-15.338
				c0-10.973,7.739-19.825,19.532-19.825c9.52,0,13.78,5.432,13.78,12.41c0,2.136-0.414,4.877-1.312,6.927H614.396z
				 M615.556,337.923h14.53c0.273-1.042,0.41-2.054,0.41-3.092c0-3.686-1.37-6.158-5.346-6.158
				C621.108,328.673,617.75,330.93,615.556,337.923z"/>
			<path fill="#FFFFFF" d="M444.368,255.457c0-0.597-0.297-0.953-0.664-1.109c-3.241-1.468-9.27-3.608-14.065-3.608
				c-13.479,0-17.423,7.079-17.423,13.941c0,4.736,3.772,8.313,9.227,8.313c3.831,0,5.306-1.242,5.306-2.21
				c0-0.664-0.578-1.179-1.616-1.179c-4.35,0-8.606-2.929-8.606-8.091c0-6.681,5.295-8.126,11.043-8.126
				c4.358,0,6.634,1.914,10.469,3.69l-11.32,32.769c-1.253,3.608-4.28,5.678-6.337,6.334c-1.105,0.312-1.695,0.672-1.695,1.257
				c0,0.664,0.731,0.816,1.472,0.816c4.42,0,10.688-3.026,14.151-13.128c3.608-10.527,9.836-28.646,9.836-28.646
				C444.301,256.125,444.368,255.742,444.368,255.457z"/>
			<path fill="#FFFFFF" d="M483.963,282.99c-0.429,0-0.952,0.222-1.25,0.597c-3.46,4.053-7.361,5.826-10.457,5.826
				c-3.171,0-5.385-1.843-5.385-5.232c0-5.021,3.612-10.695,6.779-10.695c1.035,0,1.703,0.664,1.703,2.07
				c0,1.991-1.554,5.31-6.189,8.985c-0.742,0.585-1.035,1.109-1.035,1.55c0,0.519,0.441,0.89,1.035,0.89
				c0.207,0,0.511-0.09,0.801-0.23c5.166-2.351,10.695-7.361,10.695-11.343c0-2.284-1.777-4.494-5.451-4.494
				c-8.181,0-13.718,7.595-13.718,14.292c0,0.184,0.024,0.355,0.028,0.531c-2.601,2.639-4.592,3.893-5.545,3.893
				c-0.515,0-0.671-0.445-0.671-1.031c0-0.371,0.074-0.882,0.23-1.398c1.097-3.831,2.94-7.958,4.338-10.902
				c0.664-1.402,0.96-2.589,0.96-3.389c0-1.336-0.812-1.925-2.062-1.925c-2.866,0-8.107,2.952-11.715,6.997l8.294-24.144
				c0.289-0.812,0.441-1.554,0.441-1.839c0-0.824-0.503-1.258-1.253-1.258c-2.429,0-4.416,1.101-5.67,2.14
				c-0.953,0.801-1.48,1.468-1.48,1.98c0,0.523,0.379,0.738,0.89,0.738c0.223,0,0.664-0.141,0.812-0.141
				c0.215,0,0.297,0.141,0.297,0.285c0,0.23-0.148,0.593-0.297,1.035l-11.683,33.952c-0.156,0.449-0.223,0.82-0.223,1.113
				c0,0.809,0.515,1.176,1.25,1.176c1.546,0,3.905-1.468,4.717-3.757l1.258-3.612c1.316-3.913,8.024-9.801,9.575-9.801
				c0.226,0,0.367,0.16,0.367,0.371c0,1.101-2.421,4.416-3.983,9.954c-0.297,1.027-0.508,1.984-0.437,2.796
				c0,2.44,1.25,4.049,3.913,4.049c2.062,0,5.077-1.566,8.279-4.662c1.238,2.862,4.174,4.662,7.77,4.662
				c4.943,0,10.164-2.941,13.851-7.224c0.738-0.882,1.042-1.554,1.042-2.062C484.783,283.213,484.408,282.99,483.963,282.99z"/>
		</g>
	</g>
</g>
<g id="Layer_2">
</g>
</svg>
