<?xml version="1.0" encoding="utf-8"?>
<!-- Generator: Adobe Illustrator 17.0.2, SVG Export Plug-In . SVG Version: 6.00 Build 0)  -->
<!DOCTYPE svg PUBLIC "-//W3C//DTD SVG 1.1//EN" "http://www.w3.org/Graphics/SVG/1.1/DTD/svg11.dtd">
<svg version="1.1" id="Layer_1" xmlns="http://www.w3.org/2000/svg" xmlns:xlink="http://www.w3.org/1999/xlink" x="0px" y="0px"
	 width="900px" height="525px" viewBox="0 0 900 525" enable-background="new 0 0 900 525" xml:space="preserve">
<g id="Layer_1_1_">
	<g>
		<g>
			<path fill="#002318" d="M478.008,166.202c-4.635-2.468-9.614-4.369-14.844-5.619c0.103-0.488,0.127-1.013,0.127-1.324
				c0-8.271-6.729-14.996-14.995-14.996c-8.269,0-14.998,6.725-14.998,14.996c0,0.492,0.024,0.977,0.072,1.456
				c-27.342,6.808-47.663,31.569-47.663,60.988c0,25.172,14.878,46.931,36.303,56.953c8.785,4.68,18.805,7.337,29.436,7.337
				c34.652,0,62.847-28.192,62.847-62.846C514.293,197.985,499.422,176.23,478.008,166.202z M437.63,159.259
				c0-5.88,4.783-10.663,10.666-10.663c5.88,0,10.662,4.782,10.662,10.651c0,0.149-0.014,0.356-0.027,0.448
				c-0.003,0.01-0.003,0.02-0.003,0.027c-3.377-0.562-6.842-0.864-10.377-0.864c-3.713,0-7.355,0.326-10.893,0.947
				C437.651,159.624,437.63,159.443,437.63,159.259z"/>
			<path fill="#FFFFFF" d="M448.551,163.201c-3.335,0-6.602,0.284-9.786,0.822c1.093,2.17,2.902,3.921,5.116,4.931
				c1.011-1.5,2.727-2.492,4.669-2.492c3.105,0,5.629,2.526,5.629,5.629s-2.524,5.627-5.629,5.627c-2.682,0-4.927-1.889-5.488-4.405
				c-3.92-1.464-7.07-4.523-8.651-8.382c-25.448,6.342-44.362,29.387-44.362,56.772c0,32.257,26.242,58.503,58.501,58.503
				s58.505-26.245,58.505-58.503S480.81,163.201,448.551,163.201z M456.37,238.466v2.874c-10.047-2.583-18.585-9.762-22.683-19.525
				c-0.712,0.058-1.448,0.087-2.204,0.087h-1.417l-0.048,0.008h-4.625v-0.008h-1.465c-0.186,0-0.364-0.024-0.536-0.066
				c-1.272-0.259-2.235-1.386-2.235-2.732c0-1.357,1.08-2.518,2.455-2.693c0.107-0.018,0.21-0.031,0.316-0.031l0,0
				c0.007,0,0.014-0.004,0.024-0.004h1.348h5.065h0.629c7.338,0,12.574-3.199,12.574-9.485v-0.14c0-6.007-4.611-9.639-12.506-9.639
				h-15.088v41.351c0,1.538-1.255,2.795-2.792,2.795c-1.468,0-2.723-1.258-2.723-2.795v-43.659c0-1.534,1.255-2.791,2.723-2.791
				h18.299c6.01,0,10.831,1.815,13.901,4.891c2.376,2.373,3.772,5.796,3.772,9.64v0.138c0,0.248-0.021,0.492-0.031,0.738
				l0.031-0.048c0,3.841-1.396,7.266-3.772,9.639c-1.578,1.581-3.621,2.823-6.045,3.664c3.352,7.155,9.624,12.511,17.03,14.828
				v2.963H456.37z M476.374,242.314h-9.057v-5.533h9.267c8.104,0,13.41-3.827,13.41-10.256v-0.138
				c0-6.985-5.24-10.617-13.131-10.617h-12.361v21.515v5.029v14.808c0,1.535-1.259,2.793-2.795,2.793
				c-1.472,0-2.727-1.258-2.727-2.793v-43.657c0-1.538,1.255-2.795,2.727-2.795h15.576c11.037,0,18.302,5.868,18.302,15.509v0.138
				C495.585,236.863,486.782,242.314,476.374,242.314z"/>
		</g>
		<g>
			<g>
				<path fill="#002318" d="M278.374,316.057c0-1.734,1.417-3.15,3.07-3.15h20.617c6.763,0,12.193,2.044,15.655,5.508
					c2.675,2.675,4.25,6.532,4.25,10.857v0.161c0,9.05-6.138,14.321-14.713,15.971l13.688,17.627
					c0.633,0.708,1.025,1.416,1.025,2.281c0,1.65-1.575,3.068-3.149,3.068c-1.259,0-2.201-0.707-2.909-1.652l-15.5-20.143H284.59
					v18.649c0,1.729-1.417,3.146-3.146,3.146c-1.654,0-3.07-1.418-3.07-3.146V316.057z M301.507,341
					c8.263,0,14.163-4.253,14.163-11.332v-0.158c0-6.767-5.192-10.858-14.084-10.858H284.59V341H301.507z"/>
				<path fill="#002318" d="M332.79,314.558c0-1.967,1.575-3.223,3.542-3.223c2.046,0,3.617,1.257,3.617,3.223v1.024
					c0,1.89-1.571,3.226-3.617,3.226c-1.967,0-3.542-1.336-3.542-3.226V314.558z M333.34,329.982c0-1.653,1.337-3.069,2.991-3.069
					c1.729,0,3.067,1.338,3.067,3.069v35.33c0,1.73-1.259,3.068-2.992,3.068c-1.729,0-3.067-1.338-3.067-3.068v-35.33H333.34z"/>
				<path fill="#002318" d="M352.729,375.936c-0.946-0.474-1.571-1.416-1.571-2.519c0-1.337,1.334-2.673,2.751-2.673
					c0.55,0,0.946,0.155,1.337,0.392c4.25,2.834,9.129,4.408,14.4,4.408c8.974,0,14.795-4.958,14.795-14.482v-4.797
					c-3.542,4.719-8.5,8.578-15.971,8.578c-9.758,0-19.124-7.32-19.124-19.045v-0.155c0-11.882,9.442-19.202,19.124-19.202
					c7.63,0,12.588,3.776,15.892,8.185v-4.644c0-1.653,1.258-3.069,2.988-3.069c1.733,0,3.071,1.416,3.071,3.069v30.925
					c0,6.295-1.888,11.094-5.192,14.398c-3.621,3.621-9.05,5.431-15.504,5.431C363.509,380.736,357.842,379.083,352.729,375.936z
					 M384.6,345.72v-0.157c0-8.341-7.241-13.771-14.954-13.771c-7.709,0-14.084,5.35-14.084,13.692v0.159
					c0,8.182,6.53,13.846,14.084,13.846C377.359,359.488,384.6,353.902,384.6,345.72z"/>
				<path fill="#002318" d="M402.889,313.222c0-1.651,1.338-3.07,2.991-3.07c1.73,0,3.067,1.419,3.067,3.07v21.165
					c2.675-4.405,6.925-7.947,13.929-7.947c9.834,0,15.579,6.611,15.579,16.29v22.582c0,1.73-1.337,3.068-2.991,3.068
					c-1.729,0-3.067-1.338-3.067-3.068v-21.089c0-7.554-4.092-12.276-11.254-12.276c-7.004,0-12.196,5.115-12.196,12.749v20.615
					c0,1.73-1.258,3.068-2.991,3.068c-1.729,0-3.067-1.338-3.067-3.068V313.222z"/>
				<path fill="#002318" d="M451.48,357.207V332.66h-3.304c-1.417,0-2.675-1.26-2.675-2.678c0-1.496,1.258-2.676,2.675-2.676h3.304
					v-9.598c0-1.651,1.258-3.07,2.991-3.07c1.654,0,3.07,1.418,3.07,3.07v9.598h10.542c1.496,0,2.758,1.262,2.758,2.676
					c0,1.494-1.262,2.678-2.758,2.678h-10.542v23.762c0,4.956,2.754,6.766,6.846,6.766c2.122,0,3.225-0.551,3.696-0.551
					c1.417,0,2.596,1.182,2.596,2.598c0,1.1-0.708,1.968-1.729,2.36c-1.733,0.708-3.621,1.104-5.979,1.104
					C456.438,368.698,451.48,365.469,451.48,357.207z"/>
				<path fill="#002318" d="M505.78,316.057c0-1.734,1.417-3.15,3.071-3.15h17.546c12.433,0,20.617,6.609,20.617,17.469v0.155
					c0,11.884-9.916,18.023-21.638,18.023h-13.379v16.681c0,1.729-1.417,3.146-3.146,3.146c-1.654,0-3.071-1.418-3.071-3.146
					L505.78,316.057L505.78,316.057z M525.609,342.885c9.129,0,15.108-4.877,15.108-12.116v-0.156c0-7.869-5.9-11.96-14.792-11.96
					h-13.929v24.232H525.609z"/>
				<path fill="#002318" d="M573.447,368.933c-11.171,0-20.3-8.575-20.3-21.169v-0.155c0-11.726,8.262-21.169,19.513-21.169
					c12.041,0,18.887,9.836,18.887,20.615c0,1.654-1.338,2.834-2.833,2.834h-29.429c0.866,8.813,7.083,13.769,14.317,13.769
					c5.041,0,8.737-1.966,11.728-4.718c0.471-0.395,1.021-0.711,1.733-0.711c1.492,0,2.672,1.181,2.672,2.597
					c0,0.71-0.313,1.417-0.942,1.968C584.935,366.493,580.372,368.933,573.447,368.933z M585.489,345.404
					c-0.633-7.397-4.879-13.852-12.987-13.852c-7.08,0-12.43,5.905-13.217,13.852H585.489z"/>
				<path fill="#002318" d="M602.265,357.207V332.66h-3.301c-1.42,0-2.679-1.26-2.679-2.678c0-1.496,1.258-2.676,2.679-2.676h3.301
					v-9.598c0-1.651,1.262-3.07,2.991-3.07c1.654,0,3.07,1.418,3.07,3.07v9.598h10.542c1.496,0,2.758,1.262,2.758,2.676
					c0,1.494-1.262,2.678-2.758,2.678h-10.542v23.762c0,4.956,2.754,6.766,6.846,6.766c2.125,0,3.225-0.551,3.696-0.551
					c1.417,0,2.599,1.182,2.599,2.598c0,1.1-0.708,1.968-1.733,2.36c-1.733,0.708-3.621,1.104-5.979,1.104
					C607.226,368.698,602.265,365.469,602.265,357.207z"/>
			</g>
		</g>
	</g>
</g>
<g id="Layer_2">
</g>
</svg>
