<?xml version="1.0" encoding="utf-8"?>
<!-- Generator: Adobe Illustrator 17.0.2, SVG Export Plug-In . SVG Version: 6.00 Build 0)  -->
<!DOCTYPE svg PUBLIC "-//W3C//DTD SVG 1.1//EN" "http://www.w3.org/Graphics/SVG/1.1/DTD/svg11.dtd">
<svg version="1.1" xmlns="http://www.w3.org/2000/svg" xmlns:xlink="http://www.w3.org/1999/xlink" x="0px" y="0px" width="900px"
	 height="525px" viewBox="0 0 900 525" enable-background="new 0 0 900 525" xml:space="preserve">
<g id="Layer_1">
	<g>
		<g>
			<g>
				<linearGradient id="SVGID_1_" gradientUnits="userSpaceOnUse" x1="595.7795" y1="163.7648" x2="507.689" y2="276.5155">
					<stop  offset="0" style="stop-color:#007985"/>
					<stop  offset="0.4885" style="stop-color:#007884"/>
					<stop  offset="0.6644" style="stop-color:#007581"/>
					<stop  offset="0.7898" style="stop-color:#006F7A"/>
					<stop  offset="0.8911" style="stop-color:#006772"/>
					<stop  offset="0.977" style="stop-color:#005D68"/>
					<stop  offset="1" style="stop-color:#005A64"/>
				</linearGradient>
				<polygon fill="url(#SVGID_1_)" points="449.323,230.915 567.705,320.005 567.705,141.831 				"/>
				<polygon fill="#008999" points="567.705,320.005 330.939,320.005 330.939,141.831 				"/>
			</g>
			<g>
				<path fill="#005A64" d="M329.328,359.39h5.548l8.245,9.892l8.254-9.892h5.535v23.392h-5.077v-16.306l-8.673,9.984h-0.133
					l-8.618-9.886v16.207h-5.081V359.39z"/>
				<path fill="#005A64" d="M376.23,359.225h4.734l10.025,23.55h-5.375l-2.142-5.246h-9.884l-2.14,5.246h-5.237L376.23,359.225z
					 M381.636,372.986l-3.106-7.579l-3.104,7.579H381.636z"/>
				<path fill="#005A64" d="M430.605,359.39h10.685c2.96,0,5.231,0.795,6.812,2.373c1.328,1.337,2.005,3.123,2.005,5.347v0.069
					c0,1.889-0.471,3.432-1.386,4.623c-0.919,1.191-2.133,2.067-3.627,2.622l5.711,8.352h-6.006l-5.017-7.482h-0.06h-3.976v7.482
					h-5.141V359.39z M440.953,370.747c1.275,0,2.249-0.298,2.92-0.902c0.679-0.6,1.024-1.399,1.024-2.401v-0.068
					c0-1.112-0.356-1.949-1.067-2.504c-0.716-0.559-1.714-0.833-2.977-0.833h-5.107v6.709H440.953z"/>
				<path fill="#005A64" d="M461.43,359.39h17.599v4.582h-12.523v4.743h11.015v4.573h-11.015v4.914h12.681v4.573H461.43V359.39z"/>
				<path fill="#005A64" d="M498.836,383.107c-1.78,0-3.524-0.306-5.248-0.919c-1.709-0.608-3.267-1.555-4.67-2.821l3.042-3.639
					c1.063,0.865,2.163,1.557,3.282,2.072c1.131,0.51,2.356,0.765,3.693,0.765c1.071,0,1.904-0.191,2.485-0.581
					c0.596-0.39,0.891-0.932,0.891-1.621v-0.064c0-0.334-0.056-0.63-0.189-0.891c-0.113-0.248-0.353-0.497-0.703-0.717
					c-0.347-0.223-0.823-0.439-1.435-0.664c-0.613-0.225-1.416-0.458-2.395-0.705c-1.187-0.287-2.251-0.611-3.215-0.964
					c-0.964-0.36-1.774-0.793-2.444-1.322c-0.673-0.521-1.195-1.174-1.555-1.954c-0.375-0.775-0.553-1.75-0.553-2.907v-0.066
					c0-1.069,0.197-2.033,0.591-2.888c0.399-0.853,0.96-1.598,1.68-2.226c0.713-0.621,1.581-1.099,2.575-1.433
					c0.994-0.336,2.099-0.497,3.299-0.497c1.709,0,3.295,0.249,4.732,0.765c1.435,0.508,2.753,1.249,3.952,2.202l-2.669,3.879
					c-1.048-0.717-2.072-1.279-3.08-1.692c-0.996-0.411-1.997-0.615-2.997-0.615c-1.005,0-1.757,0.193-2.256,0.585
					c-0.506,0.388-0.75,0.874-0.75,1.448v0.069c0,0.379,0.066,0.709,0.216,0.985c0.143,0.279,0.405,0.531,0.79,0.754
					c0.373,0.219,0.889,0.435,1.551,0.636c0.655,0.195,1.491,0.437,2.493,0.696c1.183,0.311,2.241,0.666,3.166,1.056
					c0.925,0.392,1.709,0.853,2.346,1.401c0.641,0.542,1.116,1.189,1.442,1.922c0.321,0.735,0.482,1.611,0.482,2.637v0.066
					c0,1.161-0.208,2.191-0.63,3.091c-0.42,0.904-1.005,1.66-1.756,2.268c-0.752,0.615-1.652,1.084-2.688,1.403
					C501.266,382.944,500.111,383.107,498.836,383.107z"/>
				<path fill="#005A64" d="M558.588,358.998c-6.675,0-12.081,5.409-12.081,12.084c0,6.675,5.407,12.088,12.081,12.088
					c6.679,0,12.084-5.413,12.084-12.088C570.672,364.406,565.267,358.998,558.588,358.998z M558.588,378.247
					c-3.956,0-7.159-3.207-7.159-7.165c0-3.95,3.203-7.159,7.159-7.159c3.963,0,7.161,3.209,7.161,7.159
					C565.749,375.04,562.551,378.247,558.588,378.247z"/>
				<path fill="#005A64" d="M534.601,374.982c-1.234,1.808-3.269,3.031-5.629,3.125c-3.954,0.158-7.279-2.918-7.438-6.874
					c-0.154-3.948,2.913-7.279,6.868-7.437c2.356-0.092,4.486,0.966,5.857,2.667l3.809-3.11c-2.318-2.857-5.895-4.636-9.862-4.479
					c-6.671,0.268-11.857,5.889-11.593,12.555c0.266,6.671,5.884,11.865,12.555,11.602c3.969-0.161,7.392-2.217,9.477-5.25
					L534.601,374.982z"/>
				<path fill="#005A64" d="M415.996,374.982c-1.234,1.808-3.271,3.031-5.629,3.125c-3.954,0.158-7.279-2.918-7.435-6.874
					c-0.156-3.948,2.911-7.279,6.866-7.437c2.356-0.092,4.486,0.966,5.856,2.667l3.809-3.11c-2.318-2.857-5.895-4.636-9.862-4.479
					c-6.671,0.268-11.859,5.889-11.593,12.555c0.266,6.671,5.884,11.865,12.555,11.602c3.965-0.161,7.392-2.217,9.475-5.25
					L415.996,374.982z"/>
			</g>
		</g>
	</g>
</g>
<g id="Layer_2">
</g>
</svg>
