<?xml version="1.0" encoding="utf-8"?>
<!-- Generator: Adobe Illustrator 17.0.2, SVG Export Plug-In . SVG Version: 6.00 Build 0)  -->
<!DOCTYPE svg PUBLIC "-//W3C//DTD SVG 1.1//EN" "http://www.w3.org/Graphics/SVG/1.1/DTD/svg11.dtd">
<svg version="1.1" xmlns="http://www.w3.org/2000/svg" xmlns:xlink="http://www.w3.org/1999/xlink" x="0px" y="0px" width="900px"
	 height="525px" viewBox="0 0 900 525" enable-background="new 0 0 900 525" xml:space="preserve">
<g id="Layer_1">
	<g>
		<g>
			<path fill="#FEBC1D" d="M395.089,234.099c0,5.781-1.571,15.208-14.956,15.208c-7.478,0-14.768-4.085-14.768-13.888v-3.896h8.923
				v2.011c0,4.336,1.068,7.479,5.719,7.479c5.216,0,5.216-4.21,5.216-7.353v-30.29h9.866V234.099z"/>
			<path fill="#FEBC1D" d="M401.18,225.741c0.503-8.358,7.981-10.872,15.27-10.872c6.474,0,14.265,1.445,14.265,9.237v16.904
				c0,2.953,0.314,5.907,1.131,7.227h-9.049c-0.315-1.005-0.566-2.074-0.629-3.142c-2.827,2.954-6.975,4.022-10.934,4.022
				c-6.159,0-11.06-3.079-11.06-9.74c0-7.353,5.53-9.111,11.06-9.866c5.467-0.816,10.557-0.628,10.557-4.273
				c0-3.833-2.64-4.399-5.782-4.399c-3.393,0-5.593,1.383-5.907,4.902H401.18z M421.792,232.339
				c-1.508,1.32-4.651,1.383-7.415,1.886c-2.766,0.566-5.279,1.508-5.279,4.776c0,3.331,2.577,4.147,5.467,4.147
				c6.975,0,7.227-5.53,7.227-7.478V232.339z"/>
			<path fill="#FEBC1D" d="M458.486,227.186c-0.566-3.645-2.892-5.593-6.598-5.593c-5.719,0-7.604,5.781-7.604,10.557
				c0,4.651,1.822,10.243,7.415,10.243c4.148,0,6.535-2.639,7.101-6.598h8.609c-1.131,8.609-7.101,13.322-15.648,13.322
				c-9.804,0-16.401-6.912-16.401-16.652c0-10.118,6.033-17.595,16.59-17.595c7.666,0,14.704,4.022,15.27,12.317H458.486z"/>
			<path fill="#FEBC1D" d="M471.991,203.369h8.923v24.069l11.249-11.689h10.556l-12.253,11.94l13.637,20.549h-10.809l-8.923-14.516
				l-3.456,3.33v11.186h-8.923V203.369z"/>
			<path fill="#FEBC1D" d="M540.48,214.869c10.242,0,16.841,6.787,16.841,17.155c0,10.307-6.598,17.093-16.841,17.093
				c-10.18,0-16.779-6.786-16.779-17.093C523.701,221.656,530.299,214.869,540.48,214.869z M540.48,242.394
				c6.096,0,7.918-5.216,7.918-10.369c0-5.216-1.822-10.431-7.918-10.431c-6.033,0-7.856,5.216-7.856,10.431
				C532.624,237.178,534.447,242.394,540.48,242.394z"/>
			<path fill="#FEBC1D" d="M565.045,221.719h-5.341v-5.97h5.341v-2.514c0-5.718,3.582-9.866,10.872-9.866
				c1.571,0,3.204,0.189,4.712,0.252v6.661c-1.068-0.125-2.136-0.188-3.267-0.188c-2.388,0-3.393,1.005-3.393,3.707v1.948h6.158
				v5.97h-6.158v26.519h-8.924V221.719z"/>
			<path fill="#FEBC1D" d="M388.93,270.727c13.889,0,22.057,10.369,22.057,23.691c0,12.946-8.168,23.314-22.057,23.314
				c-13.887,0-22.057-10.369-22.057-23.314C366.873,281.096,375.043,270.727,388.93,270.727z M388.93,309.437
				c8.861,0,12.191-7.541,12.191-15.019c0-7.855-3.33-15.396-12.191-15.396c-8.86,0-12.191,7.541-12.191,15.396
				C376.739,301.896,380.07,309.437,388.93,309.437z"/>
			<path fill="#FEBC1D" d="M416.762,284.175h8.483v4.525h0.189c2.262-3.644,6.159-5.404,9.929-5.404
				c9.489,0,11.876,5.342,11.876,13.385v19.983h-8.923v-18.35c0-5.342-1.571-7.981-5.718-7.981c-4.839,0-6.913,2.702-6.913,9.3
				v17.03h-8.923V284.175z"/>
			<path fill="#FEBC1D" d="M461.373,302.587c0.252,5.656,3.016,8.232,7.982,8.232c3.582,0,6.472-2.199,7.038-4.21h7.855
				c-2.514,7.667-7.855,10.934-15.208,10.934c-10.242,0-16.59-7.038-16.59-17.093c0-9.74,6.724-17.155,16.59-17.155
				c11.06,0,16.402,9.3,15.774,19.292H461.373z M475.89,296.931c-0.818-4.525-2.766-6.912-7.101-6.912
				c-5.656,0-7.29,4.399-7.416,6.912H475.89z"/>
			<path fill="#FEBC1D" d="M518.426,280.091h-13.449v-8.296h36.762v8.296h-13.448v36.573h-9.866V280.091z"/>
			<path fill="#FEBC1D" d="M542.676,284.175h8.483v6.033h0.126c1.634-4.084,6.033-6.912,10.368-6.912
				c0.629,0,1.383,0.125,1.949,0.314v8.294c-0.818-0.188-2.137-0.314-3.205-0.314c-6.535,0-8.798,4.713-8.798,10.431v14.642h-8.923
				V284.175z"/>
			<path fill="#FEBC1D" d="M566.742,294.167c0.503-8.358,7.981-10.872,15.271-10.872c6.472,0,14.264,1.445,14.264,9.237v16.904
				c0,2.953,0.315,5.907,1.131,7.227h-9.049c-0.314-1.005-0.566-2.074-0.629-3.142c-2.827,2.954-6.975,4.022-10.934,4.022
				c-6.159,0-11.06-3.079-11.06-9.74c0-7.353,5.53-9.112,11.06-9.866c5.467-0.816,10.557-0.628,10.557-4.273
				c0-3.833-2.64-4.399-5.782-4.399c-3.393,0-5.592,1.383-5.907,4.902H566.742z M587.354,300.765
				c-1.508,1.32-4.651,1.383-7.415,1.886c-2.766,0.566-5.279,1.508-5.279,4.776c0,3.331,2.577,4.147,5.467,4.147
				c6.976,0,7.227-5.53,7.227-7.478V300.765z"/>
			<path fill="#FEBC1D" d="M625.115,312.516h-0.126c-2.073,3.519-5.718,5.027-9.866,5.027c-9.804,0-14.579-8.42-14.579-17.406
				c0-8.735,4.838-16.841,14.39-16.841c3.834,0,7.604,1.634,9.615,4.839h0.126v-16.339h8.923v44.869h-8.483V312.516z
				 M617.324,290.019c-5.845,0-7.856,5.027-7.856,10.369c0,5.09,2.326,10.431,7.856,10.431c5.907,0,7.666-5.153,7.666-10.494
				C624.989,295.046,623.104,290.019,617.324,290.019z"/>
			<path fill="#FEBC1D" d="M647.67,302.587c0.251,5.656,3.016,8.232,7.981,8.232c3.582,0,6.472-2.199,7.038-4.21h7.855
				c-2.514,7.667-7.855,10.934-15.208,10.934c-10.242,0-16.59-7.038-16.59-17.093c0-9.74,6.724-17.155,16.59-17.155
				c11.06,0,16.402,9.3,15.773,19.292H647.67z M662.187,296.931c-0.818-4.525-2.766-6.912-7.101-6.912
				c-5.656,0-7.29,4.399-7.415,6.912H662.187z"/>
		</g>
		<g>
			<path fill="#FEBC1D" d="M270.459,326.168c-22.948,0-41.618-18.67-41.618-41.618v-8.76c0-0.99,0.802-1.792,1.792-1.792h23.971
				c0.989,0,1.792,0.802,1.792,1.792v10.81c0,7.061,5.745,12.805,12.805,12.805c7.062,0,12.806-5.744,12.806-12.805v-85.976
				c0-0.99,0.802-1.792,1.792-1.792h26.341c0.988,0,1.79,0.8,1.792,1.789l0.146,83.926
				C312.077,307.498,293.407,326.168,270.459,326.168z M232.424,277.582v6.968c0,20.972,17.062,38.035,38.035,38.035
				s38.035-17.062,38.035-38.035l-0.142-82.134H285.59V286.6c0,9.036-7.352,16.388-16.389,16.388
				c-9.036,0-16.388-7.352-16.388-16.388v-9.019H232.424z"/>
			<path fill="#FEBC1D" d="M270.019,314.557c-18.103,0-29.348-11.245-29.348-29.347c0-0.99,0.803-1.792,1.792-1.792
				c0.989,0,1.792,0.802,1.792,1.792c0,16.133,9.632,25.764,25.765,25.764c14.929,0,25.765-10.835,25.765-25.764l-0.125-43.698
				c-0.002-0.99,0.797-1.794,1.787-1.797c0.001,0,0.004,0,0.005,0c0.987,0,1.789,0.799,1.792,1.786l0.125,43.703
				C299.368,302.215,287.025,314.557,270.019,314.557z"/>
			<path fill="#FEBC1D" d="M270.459,326.168c-22.948,0-41.618-18.67-41.618-41.618v-8.76c0-0.99,0.802-1.792,1.792-1.792
				c0.989,0,1.792,0.802,1.792,1.792v8.76c0,20.972,17.062,38.035,38.035,38.035s38.035-17.062,38.035-38.035l-0.146-83.923
				c-0.001-0.989,0.799-1.793,1.788-1.795c0.001,0,0.002,0,0.004,0c0.988,0,1.79,0.8,1.792,1.789l0.146,83.926
				C312.077,307.498,293.407,326.168,270.459,326.168z"/>
			<path fill="#FEBC1D" d="M230.632,277.582c-0.292,0-0.586-0.071-0.858-0.22c-0.869-0.475-1.187-1.564-0.712-2.432l11.986-21.899
				c0.314-0.574,0.917-0.931,1.571-0.931l0,0c0.654,0,1.257,0.357,1.571,0.931l11.985,21.899c0.476,0.868,0.157,1.957-0.712,2.432
				c-0.865,0.473-1.956,0.157-2.431-0.712l-10.414-19.027l-10.415,19.027C231.878,277.245,231.265,277.582,230.632,277.582z"/>
			<path fill="#FEBC1D" d="M310.177,233.14h-26.379c-0.989,0-1.792-0.802-1.792-1.792v-17.916c0-0.99,0.802-1.792,1.792-1.792
				h26.379c0.989,0,1.792,0.802,1.792,1.792v17.916C311.968,232.338,311.166,233.14,310.177,233.14z M285.59,229.557h22.795v-14.333
				H285.59V229.557z"/>
			<path fill="#FEBC1D" d="M290.532,226.988c-0.821,0-1.487-0.664-1.49-1.484l-0.023-6.214c-0.003-0.823,0.662-1.493,1.484-1.496
				c0.002,0,0.004,0,0.006,0c0.821,0,1.487,0.664,1.49,1.484l0.023,6.214c0.003,0.823-0.662,1.493-1.484,1.496
				C290.536,226.988,290.534,226.988,290.532,226.988z"/>
			<path fill="#FEBC1D" d="M303.442,226.988c-0.821,0-1.487-0.664-1.49-1.485l-0.022-6.214c-0.003-0.823,0.662-1.493,1.484-1.496
				c0.002,0,0.004,0,0.006,0c0.821,0,1.487,0.664,1.49,1.485l0.022,6.214c0.003,0.823-0.662,1.493-1.484,1.496
				C303.446,226.988,303.444,226.988,303.442,226.988z"/>
			<path fill="#FEBC1D" d="M296.987,226.988c-0.821,0-1.487-0.664-1.49-1.485l-0.022-6.214c-0.003-0.823,0.662-1.493,1.484-1.496
				c0.002,0,0.004,0,0.006,0c0.821,0,1.487,0.664,1.49,1.485l0.022,6.214c0.003,0.823-0.662,1.493-1.484,1.496
				C296.991,226.988,296.989,226.988,296.987,226.988z"/>
			<polygon fill="#FEBC1D" points="242.619,253.891 237.907,262.5 247.33,262.5 			"/>
		</g>
		<path fill="#FEBC1D" d="M339.656,320.935c-0.989,0-1.792-0.802-1.792-1.792V202.238c0-0.99,0.802-1.792,1.792-1.792
			s1.792,0.802,1.792,1.792v116.906C341.447,320.133,340.645,320.935,339.656,320.935z"/>
	</g>
</g>
<g id="Layer_2">
</g>
</svg>
